<svg width="355" viewBox="0 0 355 269" fill="none" xmlns="http://www.w3.org/2000/svg">
<path d="M188.681 38.1239H243.938V53.8394H188.681C187.497 53.8394 186.362 53.3691 185.524 52.5319C184.687 51.6947 184.217 50.5593 184.217 49.3753V42.5792C184.219 41.3968 184.691 40.2636 185.528 39.4283C186.364 38.593 187.499 38.1239 188.681 38.1239V38.1239Z" fill="#92E3A9"/>
<path d="M243.938 18.518H192.075C189.998 18.518 188.006 19.3431 186.537 20.8119C185.068 22.2806 184.243 24.2726 184.243 26.3497V26.3497C184.243 28.4268 185.068 30.4188 186.537 31.8875C188.006 33.3562 189.998 34.1813 192.075 34.1813H243.938V18.518Z" fill="#92E3A9"/>
<path d="M267.511 0.444397H248.654V53.0904H267.511V0.444397Z" fill="#92E3A9"/>
<path d="M291.084 0.444397H272.227V53.0904H291.084V0.444397Z" fill="#92E3A9"/>
<path d="M314.657 0.444397H295.8V53.0904H314.657V0.444397Z" fill="#92E3A9"/>
<path opacity="0.4" d="M188.681 38.1239H243.938V53.8394H188.681C187.497 53.8394 186.362 53.3691 185.524 52.5319C184.687 51.6947 184.217 50.5593 184.217 49.3753V42.5792C184.219 41.3968 184.691 40.2636 185.528 39.4283C186.364 38.593 187.499 38.1239 188.681 38.1239V38.1239Z" fill="white"/>
<path opacity="0.4" d="M243.938 18.518H192.075C189.998 18.518 188.006 19.3431 186.537 20.8119C185.068 22.2806 184.243 24.2726 184.243 26.3497V26.3497C184.243 28.4268 185.068 30.4188 186.537 31.8875C188.006 33.3562 189.998 34.1813 192.075 34.1813H243.938V18.518Z" fill="white"/>
<path opacity="0.4" d="M267.511 0.444397H248.654V53.0904H267.511V0.444397Z" fill="white"/>
<path opacity="0.4" d="M291.084 0.444397H272.227V53.0904H291.084V0.444397Z" fill="white"/>
<path opacity="0.4" d="M314.657 0.444397H295.8V53.0904H314.657V0.444397Z" fill="white"/>
<path d="M326.049 54.5004H177.961V63.2718H189.978V85.0263H197.131V63.2718H303.389V85.0263H310.542V63.2718H326.049V54.5004Z" fill="#92E3A9"/>
<path opacity="0.1" d="M326.049 54.5004H177.961V63.2718H189.978V85.0263H197.131V63.2718H303.389V85.0263H310.542V63.2718H326.049V54.5004Z" fill="black"/>
<path d="M149.175 80.6065C147.49 81.1539 145.837 81.7959 144.224 82.5296C145.094 81.877 145.964 81.2156 146.835 80.5282C150.769 77.3779 154.509 73.9925 158.034 70.3906C153.886 74.4159 149.454 78.1383 144.772 81.5289C145.414 80.4072 145.981 79.2444 146.469 78.0482C147.339 75.8553 147.505 73.6972 145.407 72.4703C142.797 71.0258 139.708 73.1925 140.534 76.9082C141.028 78.9701 142 80.8869 143.371 82.5035C140.33 84.6134 137.153 86.5204 133.86 88.2119L133.547 88.3685C134.243 87.1645 134.857 85.9143 135.383 84.6267C136.253 82.4339 136.427 80.2323 134.33 79.0489C131.72 77.5957 128.622 79.7624 129.457 83.4868C129.943 85.5227 130.897 87.4174 132.242 89.0212C128.282 90.9704 124.192 92.6237 120.12 94.425L119.528 94.6947C120.324 93.839 121.062 92.9321 121.739 91.9798C123.061 90.0393 123.775 87.9421 122.008 86.3062C119.842 84.2961 116.291 85.6797 116.23 89.4911C116.234 91.6049 116.726 93.6893 117.666 95.5823C113.861 97.3455 110.246 99.4914 106.876 101.987L106.771 102.065C107.232 101.346 107.648 100.599 108.016 99.8288C109.016 97.7056 109.382 95.4779 107.381 94.19C106.973 93.9065 106.505 93.7195 106.014 93.6434C105.523 93.5673 105.021 93.6041 104.547 93.7508C104.072 93.8976 103.637 94.1506 103.275 94.4905C102.912 94.8305 102.632 95.2485 102.455 95.7128C102.194 95.2958 101.832 94.9515 101.402 94.7121C99.3836 93.5461 97.3996 94.8079 95.7027 96.5917C95.2589 97.0529 94.8325 97.5489 94.4409 98.0536C95.7561 94.4071 97.4079 90.8909 99.3749 87.5505C101.242 88.3758 103.259 88.8083 105.301 88.821C109.321 88.821 111.018 85.4708 109.043 83.3911C107.441 81.7029 105.179 82.3469 103.047 83.5738C102.342 83.9828 101.655 84.444 101.011 84.9139C103.062 81.8351 105.393 78.9513 107.972 76.2991C109.653 77.6575 111.606 78.6396 113.698 79.1794C117.605 80.1453 120.059 77.3085 118.641 74.8285C117.492 72.801 115.16 72.8793 112.776 73.558C111.662 73.8951 110.569 74.299 109.504 74.7676C110.565 73.7321 111.671 72.7313 112.784 71.748C114.255 70.495 115.769 69.2854 117.309 68.1107C118.971 69.433 120.892 70.3907 122.948 70.9214C126.847 71.8873 129.3 69.0505 127.891 66.5705C126.742 64.5429 124.41 64.63 122.026 65.3087C121.477 65.4653 120.921 65.6568 120.381 65.8569C122.417 64.4037 124.488 62.9853 126.559 61.5669L128.474 60.2616C130.203 61.7027 132.23 62.7429 134.408 63.3073C138.316 64.2732 140.761 61.4364 139.351 58.9564C138.202 56.9201 135.87 57.0072 133.486 57.6859C132.56 57.9584 131.651 58.2838 130.762 58.6605V58.6605C131.163 58.3821 131.554 58.0949 131.946 57.7903C132.677 57.2682 133.39 56.7374 134.104 56.1892C134.974 55.5278 135.844 54.7882 136.714 54.0921C137.202 53.7005 137.672 53.2828 138.141 52.8564C139.868 54.3236 141.907 55.3772 144.102 55.9368C148.009 56.9027 150.463 54.0746 149.054 51.5859C147.905 49.5584 145.573 49.6367 143.18 50.3155C141.872 50.7191 140.59 51.2044 139.342 51.7687V51.7687C140.935 50.2893 142.475 48.7491 143.937 47.1393C144.041 47.0262 144.128 46.913 144.224 46.7999C144.859 46.1038 145.477 45.3989 146.078 44.6767C146.678 43.9544 147.444 42.9363 148.105 42.0661C150.785 38.5518 152.988 34.6983 154.658 30.6058C152.916 34.6636 150.636 38.4685 147.879 41.9182C145.164 45.3811 142.134 48.5854 138.829 51.4902L138.472 51.7948C139.229 50.4922 139.898 49.1404 140.474 47.7484C141.344 45.5556 141.518 43.354 139.421 42.1705C136.81 40.726 133.712 42.8841 134.548 46.6085C135.079 48.7982 136.14 50.824 137.637 52.5083L136.862 53.1696C136.558 53.422 136.244 53.6831 135.931 53.9267C135.418 54.3444 134.896 54.7447 134.374 55.1363L133.503 55.7802C132.755 56.3284 131.989 56.8766 131.224 57.4074L130.031 58.1384L128.778 59.0086C129.507 57.7574 130.15 56.4578 130.701 55.1189C131.572 52.926 131.746 50.7244 129.648 49.541C127.038 48.0878 123.94 50.2545 124.767 53.9789C125.283 56.0987 126.297 58.0646 127.725 59.7134L126.794 60.3138L123.314 62.5589L122.644 63.0027C122 63.4204 121.364 63.8729 120.729 64.2819C120.451 64.4646 120.172 64.6474 119.902 64.8388C119.032 65.4479 118.119 66.0657 117.24 66.701C117.979 65.4286 118.633 64.1089 119.198 62.7504C120.068 60.5575 120.242 58.3472 118.145 57.1725C115.534 55.7193 112.436 57.886 113.263 61.6017C113.785 63.755 114.821 65.7497 116.282 67.4145C114.786 68.511 113.306 69.6422 111.862 70.817C110.818 71.6871 109.782 72.6095 108.773 73.5319C109.213 72.7173 109.605 71.8776 109.948 71.0171C110.818 68.8242 110.992 66.6662 108.895 65.4392C106.284 63.9947 103.186 66.1528 104.013 69.8772C104.508 71.9143 105.463 73.8106 106.806 75.4202C103.949 78.2581 101.376 81.3678 99.1225 84.7051C99.3802 83.7442 99.575 82.7675 99.7055 81.7812C99.9927 79.4492 99.6533 77.2563 97.3386 76.6211C94.4844 75.8379 91.9696 78.6921 93.6752 82.1032C94.654 83.9762 96.054 85.5966 97.765 86.837C95.5479 90.4567 93.6941 94.2867 92.2307 98.2712C92.194 97.4375 92.1097 96.6066 91.9783 95.7825C91.5867 93.4678 90.6469 91.4316 88.2452 91.5099C85.2866 91.5621 83.6855 94.9906 86.2873 97.8013C87.6767 99.2473 89.3712 100.365 91.2474 101.073C90.2454 104.158 89.426 107.299 88.7934 110.48C88.6977 110.985 88.6107 111.489 88.5237 111.994C88.411 112.083 88.3062 112.182 88.2104 112.29C88.106 111.855 87.9842 111.42 87.845 110.993C87.0966 108.766 85.8609 106.93 83.494 107.347C80.5789 107.861 79.5347 111.515 82.5281 113.865C84.0536 115.032 85.8142 115.854 87.6883 116.275C87.7156 116.362 87.7506 116.447 87.7927 116.528C87.4708 118.921 87.2271 121.322 87.0792 123.741C86.969 125.54 86.8965 127.347 86.8616 129.163C84.3381 129.163 82.5107 131.921 84.3033 134.923C85.0324 136.166 85.9683 137.276 87.0705 138.204C87.288 141.598 87.6187 144.991 88.0712 148.359C87.7144 148.03 87.2778 147.799 86.8046 147.691C86.3314 147.583 85.8381 147.6 85.3736 147.741C83.7812 148.167 83.0677 149.481 82.8153 151.022C82.2607 151.607 81.9495 152.382 81.9451 153.188C80.7617 151.448 79.6478 149.629 78.5688 147.802C80.2212 146.532 81.5905 144.932 82.589 143.103C84.486 139.561 82.3541 136.481 79.5869 137.238C77.3332 137.847 76.8371 140.144 76.9068 142.607C76.9446 143.539 77.0318 144.469 77.1678 145.392L76.0801 143.277C75.1055 141.537 74.2788 139.796 73.3651 137.986C73.1302 137.56 72.93 137.116 72.7386 136.672C74.5985 135.736 76.2432 134.424 77.5681 132.817C80.0916 129.693 78.5688 126.265 75.7146 126.491C73.3825 126.665 72.4688 128.832 72.0773 131.26C71.9192 132.321 71.8233 133.39 71.7901 134.462L70.9199 132.548C69.1522 128.211 67.6982 123.753 66.569 119.208C68.6635 118.47 70.5706 117.282 72.1556 115.727C74.9837 112.864 73.8176 109.305 70.946 109.235C68.6139 109.183 67.4653 111.246 66.8475 113.586C66.5361 114.865 66.3036 116.161 66.1513 117.467C65.5335 114.857 65.0027 112.246 64.5676 109.575C64.263 107.93 64.0716 106.268 63.8627 104.606C66.127 104.167 68.2592 103.211 70.0932 101.813C73.2694 99.3502 72.5646 95.6693 69.7278 95.2255C67.4305 94.8688 66.0382 96.7658 65.0984 99.0456C64.5484 100.492 64.0892 101.971 63.7235 103.475C63.5408 101.543 63.3406 99.62 63.2536 97.6882C63.0012 93.7003 63.0187 89.7 63.3058 85.7145C62.8969 89.6975 62.7573 93.7037 62.8881 97.7056C62.8881 99.5504 63.0448 101.386 63.1579 103.231C62.6641 101.977 62.0825 100.758 61.4175 99.5852C60.2167 97.5663 58.6068 96.0435 56.3879 96.9746C53.6468 98.0972 53.4118 101.9 56.8404 103.553C58.8616 104.479 61.0773 104.9 63.2971 104.78C63.4537 106.425 63.593 108.069 63.8366 109.697C64.1847 112.307 64.6285 114.918 65.1419 117.45C64.5815 116.467 63.9565 115.522 63.271 114.622C61.8091 112.777 60.0252 111.472 57.9368 112.664C55.3263 114.135 55.6221 117.929 59.2421 119.121C61.2934 119.761 63.4671 119.908 65.5857 119.547C66.5838 124.146 67.9069 128.667 69.545 133.078L70.0671 134.401C69.5972 133.801 69.0925 133.183 68.5617 132.661C66.9258 130.973 65.0201 129.859 63.0622 131.251C60.6518 132.991 61.3218 136.725 65.0027 137.551C67.0629 137.971 69.1924 137.909 71.2245 137.368C71.4072 137.821 71.5899 138.239 71.8075 138.717C72.6777 140.527 73.4782 142.389 74.418 144.173C74.6791 144.687 74.9488 145.191 75.2186 145.696C74.7574 145.305 74.2788 144.922 73.7828 144.574C71.8684 143.216 69.78 142.476 68.1179 144.217C66.0817 146.357 67.4044 149.925 71.2158 150.038C73.1784 150.065 75.1233 149.664 76.9155 148.864C78.0032 150.839 79.1344 152.788 80.344 154.702C80.7965 155.433 81.2664 156.156 81.7363 156.878C81.0457 156.233 80.3163 155.632 79.5521 155.077C77.629 153.719 75.5406 152.98 73.8872 154.72C71.8423 156.861 73.165 160.428 76.9764 160.541C79.1558 160.567 81.3097 160.072 83.2591 159.097C83.8856 159.967 84.5383 160.837 85.217 161.707C83.7986 163.352 84.2598 166.145 87.1401 167.381C88.5532 167.966 90.0586 168.296 91.5867 168.356C91.7608 168.504 91.9435 168.643 92.1262 168.773L92.222 168.843C92.892 171.349 93.623 173.838 94.3887 176.309H81.4752V217.303H113.811V176.283H98.7483C97.4518 171.854 96.364 167.999 96.1378 167.894L95.6853 167.677C97.3826 167.096 98.9601 166.212 100.341 165.066C103.404 162.456 102.534 158.81 99.6881 158.505C97.3647 158.244 96.0595 160.202 95.2328 162.525C94.9944 163.187 94.7911 163.861 94.6237 164.544C94.4583 163.926 94.293 163.309 94.1364 162.691C93.6665 160.863 93.2662 159.019 92.8311 157.183C94.6744 156.592 96.3855 155.649 97.8694 154.407C100.932 151.796 100.062 148.159 97.2168 147.845C94.8934 147.593 93.5969 149.586 92.7615 151.866C92.5213 152.539 92.3151 153.225 92.1437 153.919C91.8739 152.579 91.6215 151.239 91.3866 149.89C91.2126 148.881 91.0559 147.88 90.908 146.88C90.8471 145.452 90.8297 144.017 90.8471 142.59C90.8471 141.798 90.8471 141.015 90.9167 140.223C92.6427 140.781 94.4573 141.014 96.2683 140.91C100.289 140.649 101.768 137.212 99.6707 135.254C97.9304 133.67 95.7462 134.453 93.6926 135.811C92.784 136.439 91.9124 137.119 91.082 137.847C91.3287 134.482 91.8408 131.142 92.6135 127.857C93.0716 125.931 93.6351 124.031 94.3017 122.166C96.1458 122.804 98.0966 123.076 100.045 122.967C104.056 122.715 105.544 119.269 103.447 117.319C101.707 115.727 99.5228 116.519 97.4692 117.876C96.7404 118.371 96.0375 118.902 95.3633 119.469C96.1366 117.647 97.0381 115.882 98.0609 114.187C100.111 110.776 102.676 107.702 105.666 105.076C107.206 106.487 109.023 107.563 111.001 108.235C114.829 109.488 117.483 106.842 116.222 104.249C115.23 102.144 112.88 102.048 110.461 102.509C109.547 102.712 108.643 102.962 107.755 103.257H107.816C111.097 100.69 114.634 98.4685 118.371 96.6265C119.694 98.3542 121.374 99.776 123.296 100.795C126.873 102.64 129.918 100.464 129.126 97.7056C128.482 95.4605 126.176 94.9993 123.714 95.095C122.749 95.1488 121.787 95.2563 120.834 95.417C124.81 93.5374 128.865 91.7622 132.781 89.6912L132.868 89.6477C134.628 91.1594 136.712 92.2461 138.959 92.8239C142.867 93.7898 145.32 90.953 143.902 88.4729C142.762 86.4367 140.421 86.5237 138.037 87.2025C137.376 87.3852 136.723 87.6289 136.079 87.8725C138.691 86.3515 141.223 84.6989 143.667 82.9212L143.876 83.1387C143.871 83.107 143.871 83.0747 143.876 83.043C145.634 84.5677 147.717 85.6692 149.967 86.2627C153.874 87.2199 156.328 84.3918 154.919 81.9118C153.857 79.893 151.507 79.893 149.175 80.6065ZM87.523 160.498C86.7311 159.567 85.9654 158.592 85.2257 157.609C85.4084 157.444 85.5999 157.261 85.7913 157.069C86.8922 157.415 88.0326 157.62 89.185 157.679V157.861L89.7245 157.757C90.003 159.14 90.2989 160.533 90.5947 161.916C90.232 161.444 89.7593 161.068 89.2178 160.821C88.6763 160.574 88.0824 160.463 87.4882 160.498H87.523ZM90.4033 127.309C90.1335 128.345 89.8986 129.389 89.681 130.433L89.5505 130.25C89.5505 128.104 89.5824 125.96 89.6462 123.82C89.7071 122.314 89.8203 120.818 89.9508 119.33C90.6694 120.072 91.4658 120.734 92.3264 121.305C91.5653 123.269 90.9117 125.274 90.3685 127.309H90.4033ZM94.0232 117.433C94.0232 117.041 94.1103 116.641 94.1364 116.258C94.1364 116.058 94.1364 115.858 94.1364 115.666C94.4496 115.57 94.7716 115.457 95.0936 115.327C94.6933 116.023 94.3539 116.719 93.9884 117.433H94.0232ZM98.6091 109.975C98.4561 109.628 98.2348 109.314 97.9582 109.054C97.6816 108.794 97.3555 108.592 96.9993 108.461C94.8238 107.591 93.0573 109.175 91.6563 111.193L91.5867 111.298L91.4475 111.254L90.995 111.193C90.995 111.072 91.0385 110.95 91.0559 110.828C91.6156 107.647 92.3682 104.502 93.3097 101.413C95.3338 101.665 97.3881 101.505 99.3488 100.943C100.548 100.638 101.598 99.9121 102.307 98.8977C102.702 100.672 103.441 102.351 104.483 103.84C102.309 105.678 100.329 107.734 98.5743 109.975H98.6091Z" fill="#92E3A9"/>
<path d="M167.154 94.9125H321.846C323.693 94.9125 325.463 95.6459 326.769 96.9514C328.074 98.257 328.808 100.028 328.808 101.874V210.42H160.219V101.848C160.226 100.011 160.959 98.2505 162.258 96.9514C163.557 95.6523 165.317 94.9194 167.154 94.9125Z" fill="#263238" stroke="#263238" stroke-linecap="round" stroke-linejoin="round"/>
<path d="M354.069 261.474H134.931L160.218 210.412H328.781L354.069 261.474Z" fill="white" stroke="#263238" stroke-linecap="round" stroke-linejoin="round"/>
<path d="M318.574 104.058H170.426V201.266H318.574V104.058Z" fill="#92E3A9" stroke="#263238" stroke-linecap="round" stroke-linejoin="round"/>
<path d="M237.465 226.57L237.761 220.349H228.85L228.258 226.57H237.465Z" fill="#263238" stroke="white" stroke-linecap="round" stroke-linejoin="round"/>
<path d="M255.878 226.57L255.573 220.349H246.662L246.671 226.57H255.878Z" fill="#263238" stroke="white" stroke-linecap="round" stroke-linejoin="round"/>
<path d="M303.816 233.228H313.336L311.1 226.571H301.902L303.816 233.228Z" fill="#263238" stroke="white" stroke-linecap="round" stroke-linejoin="round"/>
<path d="M228.258 226.57L228.85 220.349H219.948L219.06 226.57H228.258Z" fill="#263238" stroke="white" stroke-linecap="round" stroke-linejoin="round"/>
<path d="M209.854 226.57L211.037 220.349H202.135L200.647 226.57H209.854Z" fill="#263238" stroke="white" stroke-linecap="round" stroke-linejoin="round"/>
<path d="M292.695 226.57L291.198 220.349H282.296L283.488 226.57H292.695Z" fill="#263238" stroke="white" stroke-linecap="round" stroke-linejoin="round"/>
<path d="M301.902 226.57L300.11 220.349H291.199L292.696 226.57H301.902Z" fill="#263238" stroke="white" stroke-linecap="round" stroke-linejoin="round"/>
<path d="M200.647 226.57L202.135 220.349H193.224L191.44 226.57H200.647Z" fill="#263238" stroke="white" stroke-linecap="round" stroke-linejoin="round"/>
<path d="M265.075 226.57L264.475 220.349H255.573L255.877 226.57H265.075Z" fill="#263238" stroke="white" stroke-linecap="round" stroke-linejoin="round"/>
<path d="M311.099 226.57L309.011 220.349H300.109L301.901 226.57H311.099Z" fill="#263238" stroke="white" stroke-linecap="round" stroke-linejoin="round"/>
<path d="M283.489 226.57L282.296 220.349H273.386L274.282 226.57H283.489Z" fill="#263238" stroke="white" stroke-linecap="round" stroke-linejoin="round"/>
<path d="M274.282 226.57L273.386 220.349H264.475L265.076 226.57H274.282Z" fill="#263238" stroke="white" stroke-linecap="round" stroke-linejoin="round"/>
<path d="M246.671 226.57L246.663 220.349H237.761L237.465 226.57H246.671Z" fill="#263238" stroke="white" stroke-linecap="round" stroke-linejoin="round"/>
<path d="M182.243 226.571H173.037L170.496 233.228H180.015L182.243 226.571Z" fill="#263238" stroke="white" stroke-linecap="round" stroke-linejoin="round"/>
<path d="M184.314 220.349H175.412L173.036 226.57H182.243L184.314 220.349Z" fill="#263238" stroke="white" stroke-linecap="round" stroke-linejoin="round"/>
<path d="M191.441 226.57L193.224 220.349H184.314L182.243 226.57H191.441Z" fill="#263238" stroke="white" stroke-linecap="round" stroke-linejoin="round"/>
<path d="M167.772 240.355L164.839 248.012H175.073L177.631 240.355H167.772Z" fill="#263238" stroke="white" stroke-linecap="round" stroke-linejoin="round"/>
<path d="M180.016 233.228H170.496L167.772 240.355H177.631L180.016 233.228Z" fill="#263238" stroke="white" stroke-linecap="round" stroke-linejoin="round"/>
<path d="M177.631 240.355L175.072 248.012H185.306L187.499 240.355H177.631Z" fill="#263238" stroke="white" stroke-linecap="round" stroke-linejoin="round"/>
<path d="M219.061 226.57L219.948 220.349H211.038L209.854 226.57H219.061Z" fill="#263238" stroke="white" stroke-linecap="round" stroke-linejoin="round"/>
<path d="M218.103 233.228L219.06 226.571H209.854L208.583 233.228H218.103Z" fill="#263238" stroke="white" stroke-linecap="round" stroke-linejoin="round"/>
<path d="M208.583 233.228L209.854 226.571H200.647L199.064 233.228H208.583Z" fill="#263238" stroke="white" stroke-linecap="round" stroke-linejoin="round"/>
<path d="M227.632 233.228L228.258 226.571H219.061L218.103 233.228H227.632Z" fill="#263238" stroke="white" stroke-linecap="round" stroke-linejoin="round"/>
<path d="M191.441 226.571H182.243L180.016 233.228H189.535L191.441 226.571Z" fill="#263238" stroke="white" stroke-linecap="round" stroke-linejoin="round"/>
<path d="M305.87 240.355H315.737L313.336 233.228H303.816L305.87 240.355Z" fill="#263238" stroke="white" stroke-linecap="round" stroke-linejoin="round"/>
<path d="M199.064 233.228L200.648 226.571H191.441L189.535 233.228H199.064Z" fill="#263238" stroke="white" stroke-linecap="round" stroke-linejoin="round"/>
<path d="M180.015 233.228L177.631 240.355H187.499L189.535 233.228H180.015Z" fill="#263238" stroke="white" stroke-linecap="round" stroke-linejoin="round"/>
<path d="M284.768 233.228L283.489 226.571H274.283L275.249 233.228H284.768Z" fill="#263238" stroke="white" stroke-linecap="round" stroke-linejoin="round"/>
<path d="M275.248 233.228L274.283 226.571H265.076L265.72 233.228H275.248Z" fill="#263238" stroke="white" stroke-linecap="round" stroke-linejoin="round"/>
<path d="M303.816 233.228L301.902 226.571H292.695L294.288 233.228H303.816Z" fill="#263238" stroke="white" stroke-linecap="round" stroke-linejoin="round"/>
<path d="M246.68 233.228L246.671 226.571H237.464L237.151 233.228H246.68Z" fill="#263238" stroke="white" stroke-linecap="round" stroke-linejoin="round"/>
<path d="M265.719 233.228L265.076 226.571H255.878L256.2 233.228H265.719Z" fill="#263238" stroke="white" stroke-linecap="round" stroke-linejoin="round"/>
<path d="M256.2 233.228L255.878 226.571H246.672L246.68 233.228H256.2Z" fill="#263238" stroke="white" stroke-linecap="round" stroke-linejoin="round"/>
<path d="M237.151 233.228L237.464 226.571H228.258L227.631 233.228H237.151Z" fill="#263238" stroke="white" stroke-linecap="round" stroke-linejoin="round"/>
<path d="M265.719 233.228L266.415 240.355H276.275L275.248 233.228H265.719Z" fill="#263238" stroke="white" stroke-linecap="round" stroke-linejoin="round"/>
<path d="M275.248 233.228L276.275 240.355H286.143L284.768 233.228H275.248Z" fill="#263238" stroke="white" stroke-linecap="round" stroke-linejoin="round"/>
<path d="M189.535 233.228L187.499 240.355H197.367L199.064 233.228H189.535Z" fill="#263238" stroke="white" stroke-linecap="round" stroke-linejoin="round"/>
<path d="M284.768 233.228L286.143 240.355H296.002L294.288 233.228H284.768Z" fill="#263238" stroke="white" stroke-linecap="round" stroke-linejoin="round"/>
<path d="M246.68 233.228V240.355H256.548L256.2 233.228H246.68Z" fill="#263238" stroke="white" stroke-linecap="round" stroke-linejoin="round"/>
<path d="M294.288 233.228L296.002 240.355H305.87L303.817 233.228H294.288Z" fill="#263238" stroke="white" stroke-linecap="round" stroke-linejoin="round"/>
<path d="M256.199 233.228L256.547 240.355H266.415L265.719 233.228H256.199Z" fill="#263238" stroke="white" stroke-linecap="round" stroke-linejoin="round"/>
<path d="M208.583 233.228L207.226 240.355H217.094L218.103 233.228H208.583Z" fill="#263238" stroke="white" stroke-linecap="round" stroke-linejoin="round"/>
<path d="M199.064 233.228L197.367 240.355H207.226L208.584 233.228H199.064Z" fill="#263238" stroke="white" stroke-linecap="round" stroke-linejoin="round"/>
<path d="M237.151 233.228L236.82 240.355H246.679V233.228H237.151Z" fill="#263238" stroke="white" stroke-linecap="round" stroke-linejoin="round"/>
<path d="M227.632 233.228L226.953 240.355H236.821L237.151 233.228H227.632Z" fill="#263238" stroke="white" stroke-linecap="round" stroke-linejoin="round"/>
<path d="M218.103 233.228L217.094 240.355H226.953L227.632 233.228H218.103Z" fill="#263238" stroke="white" stroke-linecap="round" stroke-linejoin="round"/>
<path d="M294.287 233.228L292.695 226.571H283.488L284.768 233.228H294.287Z" fill="#263238" stroke="white" stroke-linecap="round" stroke-linejoin="round"/>
<path d="M184.314 220.349L186.446 213.979H177.84L175.412 220.349H184.314Z" fill="#263238" stroke="white" stroke-linecap="round" stroke-linejoin="round"/>
<path d="M175.412 220.349H167.189L164.534 226.57H173.036L175.412 220.349Z" fill="#263238" stroke="white" stroke-linecap="round" stroke-linejoin="round"/>
<path d="M177.84 213.979H169.904L167.189 220.349H175.412L177.84 213.979Z" fill="#263238" stroke="white" stroke-linecap="round" stroke-linejoin="round"/>
<path d="M173.037 226.571H164.535L161.707 233.228H170.496L173.037 226.571Z" fill="#263238" stroke="white" stroke-linecap="round" stroke-linejoin="round"/>
<path d="M170.495 233.228H161.706L158.661 240.355H167.772L170.495 233.228Z" fill="#263238" stroke="white" stroke-linecap="round" stroke-linejoin="round"/>
<path d="M167.773 240.355H158.662L155.399 248.012H164.84L167.773 240.355Z" fill="#263238" stroke="white" stroke-linecap="round" stroke-linejoin="round"/>
<path d="M320.307 226.571L322.865 233.228H331.288L328.451 226.571H320.307Z" fill="#263238" stroke="white" stroke-linecap="round" stroke-linejoin="round"/>
<path d="M325.597 240.355H334.325L331.288 233.228H322.865L325.597 240.355Z" fill="#263238" stroke="white" stroke-linecap="round" stroke-linejoin="round"/>
<path d="M328.538 248.012H337.588L334.325 240.355H325.597L328.538 248.012Z" fill="#263238" stroke="white" stroke-linecap="round" stroke-linejoin="round"/>
<path d="M255.573 220.349L255.26 213.979H246.662V220.349H255.573Z" fill="#263238" stroke="white" stroke-linecap="round" stroke-linejoin="round"/>
<path d="M320.306 226.57H328.451L325.797 220.349H317.922L320.306 226.57Z" fill="#263238" stroke="white" stroke-linecap="round" stroke-linejoin="round"/>
<path d="M315.738 240.355H325.597L322.864 233.228H313.336L315.738 240.355Z" fill="#263238" stroke="white" stroke-linecap="round" stroke-linejoin="round"/>
<path d="M193.225 220.349L195.044 213.979H186.446L184.315 220.349H193.225Z" fill="#263238" stroke="white" stroke-linecap="round" stroke-linejoin="round"/>
<path d="M309.011 220.349L311.1 226.57H320.306L317.922 220.349H309.011Z" fill="#263238" stroke="white" stroke-linecap="round" stroke-linejoin="round"/>
<path d="M325.797 220.349L323.082 213.979H315.477L317.922 220.349H325.797Z" fill="#263238" stroke="white" stroke-linecap="round" stroke-linejoin="round"/>
<path d="M317.922 220.349L315.477 213.979H306.871L309.011 220.349H317.922Z" fill="#263238" stroke="white" stroke-linecap="round" stroke-linejoin="round"/>
<path d="M286.143 240.355L287.614 248.012H297.847L296.002 240.355H286.143Z" fill="#263238" stroke="white" stroke-linecap="round" stroke-linejoin="round"/>
<path d="M318.305 248.012H328.538L325.597 240.355H315.738L318.305 248.012Z" fill="#263238" stroke="white" stroke-linecap="round" stroke-linejoin="round"/>
<path d="M309.011 220.349L306.87 213.979H298.273L300.109 220.349H309.011Z" fill="#263238" stroke="white" stroke-linecap="round" stroke-linejoin="round"/>
<path d="M305.87 240.355L308.08 248.012H318.305L315.738 240.355H305.87Z" fill="#263238" stroke="white" stroke-linecap="round" stroke-linejoin="round"/>
<path d="M296.002 240.355L297.847 248.012H308.081L305.87 240.355H296.002Z" fill="#263238" stroke="white" stroke-linecap="round" stroke-linejoin="round"/>
<path d="M313.336 233.228H322.864L320.306 226.571H311.099L313.336 233.228Z" fill="#263238" stroke="white" stroke-linecap="round" stroke-linejoin="round"/>
<path d="M228.85 220.349L229.46 213.979H220.853L219.948 220.349H228.85Z" fill="#263238" stroke="white" stroke-linecap="round" stroke-linejoin="round"/>
<path d="M300.109 220.349L298.273 213.979H289.667L291.199 220.349H300.109Z" fill="#263238" stroke="white" stroke-linecap="round" stroke-linejoin="round"/>
<path d="M219.948 220.349L220.853 213.979H212.256L211.038 220.349H219.948Z" fill="#263238" stroke="white" stroke-linecap="round" stroke-linejoin="round"/>
<path d="M246.663 220.349V213.979H238.057L237.761 220.349H246.663Z" fill="#263238" stroke="white" stroke-linecap="round" stroke-linejoin="round"/>
<path d="M211.037 220.349L212.256 213.979H203.65L202.135 220.349H211.037Z" fill="#263238" stroke="white" stroke-linecap="round" stroke-linejoin="round"/>
<path d="M202.136 220.349L203.65 213.979H195.044L193.225 220.349H202.136Z" fill="#263238" stroke="white" stroke-linecap="round" stroke-linejoin="round"/>
<path d="M237.76 220.349L238.056 213.979H229.459L228.85 220.349H237.76Z" fill="#263238" stroke="white" stroke-linecap="round" stroke-linejoin="round"/>
<path d="M291.199 220.349L289.667 213.979H281.07L282.297 220.349H291.199Z" fill="#263238" stroke="white" stroke-linecap="round" stroke-linejoin="round"/>
<path d="M282.297 220.349L281.07 213.979H272.464L273.386 220.349H282.297Z" fill="#263238" stroke="white" stroke-linecap="round" stroke-linejoin="round"/>
<path d="M264.475 220.349L263.866 213.979H255.26L255.573 220.349H264.475Z" fill="#263238" stroke="white" stroke-linecap="round" stroke-linejoin="round"/>
<path d="M286.143 240.355H276.275H266.416H256.548H246.681H236.821H226.954H217.094H207.226H197.367H187.499L185.307 248.012H195.54H205.765H215.998H226.231H236.465H246.689H256.923H267.156H277.381H287.614L286.143 240.355Z" fill="#263238" stroke="white" stroke-linecap="round" stroke-linejoin="round"/>
<path d="M273.386 220.349L272.464 213.979H263.866L264.475 220.349H273.386Z" fill="#263238" stroke="white" stroke-linecap="round" stroke-linejoin="round"/>
<path d="M354.165 261.465H134.931V264.572H354.165V261.465Z" fill="#263238" stroke="#263238" stroke-linecap="round" stroke-linejoin="round"/>
<path opacity="0.15" d="M303.119 126.229V209.845L278.815 241.529L274.725 243.06L150.046 261.456V265.546L104.379 267.999V223.133H182.242V125.829L303.119 126.229Z" fill="black"/>
<path d="M76.3763 214.162C70.7637 214.44 64.6811 218.722 64.6811 218.722L1.24481 268H104.379C104.379 268 169.495 218.861 171.444 217.451C174.533 215.223 180.659 214.092 180.659 214.092L177.761 214.162H76.3763Z" fill="white" stroke="#263238" stroke-linecap="round" stroke-linejoin="round"/>
<path d="M313.641 126.308H175.621" stroke="#263238" stroke-linecap="round" stroke-linejoin="round"/>
<path d="M292.825 96.5652C291.473 96.564 290.133 96.8298 288.883 97.3473C287.633 97.8648 286.497 98.6238 285.541 99.5808C284.585 100.538 283.826 101.674 283.31 102.925C282.794 104.175 282.529 105.515 282.531 106.868V233.401C282.528 235.07 282.125 236.714 281.355 238.195C280.586 239.676 279.473 240.95 278.109 241.913C276.746 242.875 275.172 243.496 273.519 243.725C271.865 243.953 270.182 243.782 268.608 243.226L190.527 215.493C186.431 214.034 182.003 213.787 177.77 214.779V106.868C177.77 104.138 178.855 101.52 180.785 99.589C182.716 97.6585 185.334 96.5739 188.064 96.5739L292.825 96.5652Z" fill="white"/>
<path d="M200.116 218.904L268.6 243.226C270.173 243.782 271.857 243.953 273.51 243.725C275.163 243.496 276.737 242.875 278.101 241.913C279.464 240.951 280.577 239.676 281.347 238.195C282.116 236.714 282.519 235.07 282.523 233.401V218.904H200.116Z" fill="#92E3A9"/>
<path opacity="0.6" d="M200.116 218.904L268.6 243.226C270.173 243.782 271.857 243.953 273.51 243.725C275.163 243.496 276.737 242.875 278.101 241.913C279.464 240.951 280.577 239.676 281.347 238.195C282.116 236.714 282.519 235.07 282.523 233.401V218.904H200.116Z" fill="white"/>
<path d="M200.117 235.569L268.6 259.934C270.174 260.49 271.858 260.661 273.512 260.432C275.166 260.204 276.741 259.581 278.105 258.618C279.468 257.655 280.581 256.379 281.35 254.897C282.119 253.415 282.521 251.77 282.523 250.101V235.569H200.117Z" fill="#92E3A9"/>
<path d="M292.825 96.5652C291.473 96.564 290.133 96.8298 288.883 97.3473C287.633 97.8648 286.497 98.6238 285.541 99.5808C284.585 100.538 283.826 101.674 283.31 102.925C282.794 104.175 282.529 105.515 282.531 106.868V233.401C282.528 235.07 282.125 236.714 281.355 238.195C280.586 239.676 279.473 240.95 278.109 241.913C276.746 242.875 275.172 243.496 273.519 243.725C271.865 243.953 270.182 243.782 268.608 243.226L190.527 215.493C186.431 214.034 182.003 213.787 177.77 214.779V106.868C177.77 104.138 178.855 101.52 180.785 99.589C182.716 97.6585 185.334 96.5739 188.064 96.5739L292.825 96.5652Z" stroke="#263238" stroke-linecap="round" stroke-linejoin="round"/>
<path d="M182.199 214.161H177.761" stroke="#263238" stroke-linecap="round" stroke-linejoin="round"/>
<path d="M272.106 243.844H167.337C166.149 243.839 164.972 243.63 163.856 243.226L145.765 236.865L168.259 219.548C171.296 216.988 174.95 215.267 178.858 214.556C182.765 213.845 186.791 214.168 190.536 215.493L268.617 243.226C269.736 243.63 270.916 243.839 272.106 243.844V243.844Z" fill="white"/>
<path d="M272.107 243.844H167.337C166.15 243.839 164.973 243.63 163.857 243.226L144.643 236.526L168.242 219.549C171.279 216.989 174.933 215.268 178.841 214.556C182.749 213.845 186.775 214.168 190.519 215.494L268.6 243.226C269.725 243.633 270.911 243.842 272.107 243.844V243.844Z" fill="#92E3A9"/>
<path opacity="0.2" d="M272.107 243.844H167.337C166.15 243.839 164.973 243.63 163.857 243.226L144.643 236.526L168.242 219.549C171.279 216.989 174.933 215.268 178.841 214.556C182.749 213.845 186.775 214.168 190.519 215.494L268.6 243.226C269.725 243.633 270.911 243.842 272.107 243.844V243.844Z" fill="black"/>
<path d="M272.106 243.844H167.337C166.149 243.839 164.972 243.63 163.856 243.226L145.765 236.865L168.259 219.548C171.296 216.988 174.95 215.267 178.858 214.556C182.765 213.845 186.791 214.168 190.536 215.493L268.617 243.226C269.736 243.63 270.916 243.839 272.106 243.844V243.844Z" stroke="#263238" stroke-linecap="round" stroke-linejoin="round"/>
<path d="M167.336 243.844H167.11" stroke="#263238" stroke-linecap="round" stroke-linejoin="round"/>
<path d="M272.305 243.844H272.106" stroke="#263238" stroke-linecap="round" stroke-linejoin="round"/>
<path d="M300.101 99.5847C299.148 98.6251 298.015 97.864 296.766 97.3457C295.517 96.8274 294.178 96.5621 292.826 96.5652C282.105 96.5652 282.532 106.859 282.532 106.859V126.23H303.12V106.868C303.123 105.515 302.858 104.174 302.34 102.924C301.822 101.674 301.061 100.539 300.101 99.5847V99.5847Z" fill="white"/>
<path d="M300.101 99.5847C299.148 98.6251 298.015 97.864 296.766 97.3457C295.517 96.8274 294.178 96.5621 292.826 96.5652C282.105 96.5652 282.532 106.859 282.532 106.859V126.23H303.12V106.868C303.123 105.515 302.858 104.174 302.34 102.924C301.822 101.674 301.061 100.539 300.101 99.5847V99.5847Z" fill="#92E3A9"/>
<path opacity="0.2" d="M300.101 99.5847C299.148 98.6251 298.015 97.864 296.766 97.3457C295.517 96.8274 294.178 96.5621 292.826 96.5652C282.105 96.5652 282.532 106.859 282.532 106.859V126.23H303.12V106.868C303.123 105.515 302.858 104.174 302.34 102.924C301.822 101.674 301.061 100.539 300.101 99.5847V99.5847Z" fill="black"/>
<path d="M300.101 99.5847C299.148 98.6251 298.015 97.864 296.766 97.3457C295.517 96.8274 294.178 96.5621 292.826 96.5652C282.105 96.5652 282.532 106.859 282.532 106.859V126.23H303.12V106.868C303.123 105.515 302.858 104.174 302.34 102.924C301.822 101.674 301.061 100.539 300.101 99.5847V99.5847Z" stroke="#263238" stroke-linecap="round" stroke-linejoin="round"/>
<g opacity="0.15">
<path d="M187.376 114.3V114.483V118.877V119.06V123.455V123.637V128.023V128.206V132.6V132.783V137.177V137.36V141.746V141.928V146.323V146.506V150.9V151.083V155.469V155.651V160.046V160.228V164.806H197.323V160.228V160.046V155.651V155.469V151.083V150.9V146.506V146.323V141.928V141.746V137.36V137.177V132.783V132.6V128.206V128.023V123.637V123.455V119.06V118.877V114.483V114.3V109.732H187.376V114.3Z" fill="black"/>
<path d="M265.797 109.732H265.588H256.068H255.851H246.331H246.114H236.602H236.385H226.865H226.648H217.136H216.919H207.399H207.182H197.453V114.483H207.182H207.399H216.919H217.136H226.648H226.865H236.385H236.602H246.114H246.331H255.851H256.068H265.588H265.797H275.534V109.732H265.797Z" fill="black"/>
</g>
<path d="M197.323 109.732H187.376V114.492H197.323V109.732Z" stroke="#263238" stroke-width="0.25" stroke-linecap="round" stroke-linejoin="round"/>
<path d="M197.323 114.3H187.376V119.06H197.323V114.3Z" stroke="#263238" stroke-width="0.25" stroke-linecap="round" stroke-linejoin="round"/>
<path d="M197.323 118.876H187.376V123.636H197.323V118.876Z" stroke="#263238" stroke-width="0.25" stroke-linecap="round" stroke-linejoin="round"/>
<path d="M197.323 123.455H187.376V128.214H197.323V123.455Z" stroke="#263238" stroke-width="0.25" stroke-linecap="round" stroke-linejoin="round"/>
<path d="M197.323 128.023H187.376V132.782H197.323V128.023Z" stroke="#263238" stroke-width="0.25" stroke-linecap="round" stroke-linejoin="round"/>
<path d="M197.323 132.599H187.376V137.359H197.323V132.599Z" stroke="#263238" stroke-width="0.25" stroke-linecap="round" stroke-linejoin="round"/>
<path d="M197.323 137.177H187.376V141.937H197.323V137.177Z" stroke="#263238" stroke-width="0.25" stroke-linecap="round" stroke-linejoin="round"/>
<path d="M197.323 141.745H187.376V146.505H197.323V141.745Z" stroke="#263238" stroke-width="0.25" stroke-linecap="round" stroke-linejoin="round"/>
<path d="M197.323 146.323H187.376V151.083H197.323V146.323Z" stroke="#263238" stroke-width="0.25" stroke-linecap="round" stroke-linejoin="round"/>
<path d="M197.323 150.899H187.376V155.659H197.323V150.899Z" stroke="#263238" stroke-width="0.25" stroke-linecap="round" stroke-linejoin="round"/>
<path d="M197.323 155.468H187.376V160.228H197.323V155.468Z" stroke="#263238" stroke-width="0.25" stroke-linecap="round" stroke-linejoin="round"/>
<path d="M197.323 160.045H187.376V164.805H197.323V160.045Z" stroke="#263238" stroke-width="0.25" stroke-linecap="round" stroke-linejoin="round"/>
<path d="M207.4 109.732H197.453V114.492H207.4V109.732Z" stroke="#263238" stroke-width="0.25" stroke-linecap="round" stroke-linejoin="round"/>
<path d="M217.128 109.732H207.182V114.492H217.128V109.732Z" stroke="#263238" stroke-width="0.25" stroke-linecap="round" stroke-linejoin="round"/>
<path d="M226.866 109.732H216.919V114.492H226.866V109.732Z" stroke="#263238" stroke-width="0.25" stroke-linecap="round" stroke-linejoin="round"/>
<path d="M236.594 109.732H226.648V114.492H236.594V109.732Z" stroke="#263238" stroke-width="0.25" stroke-linecap="round" stroke-linejoin="round"/>
<path d="M246.331 109.732H236.385V114.492H246.331V109.732Z" stroke="#263238" stroke-width="0.25" stroke-linecap="round" stroke-linejoin="round"/>
<path d="M256.061 109.732H246.114V114.492H256.061V109.732Z" stroke="#263238" stroke-width="0.25" stroke-linecap="round" stroke-linejoin="round"/>
<path d="M265.797 109.732H255.851V114.492H265.797V109.732Z" stroke="#263238" stroke-width="0.25" stroke-linecap="round" stroke-linejoin="round"/>
<path d="M275.534 109.732H265.588V114.492H275.534V109.732Z" stroke="#263238" stroke-width="0.25" stroke-linecap="round" stroke-linejoin="round"/>
<path d="M275.526 114.482H197.323V164.796H275.526V114.482Z" stroke="#263238" stroke-width="0.25" stroke-linecap="round" stroke-linejoin="round"/>
<path d="M207.27 114.482V164.787" stroke="#263238" stroke-width="0.25" stroke-linecap="round" stroke-linejoin="round"/>
<path d="M217.006 114.482V164.787" stroke="#263238" stroke-width="0.25" stroke-linecap="round" stroke-linejoin="round"/>
<path d="M226.743 114.482V164.787" stroke="#263238" stroke-width="0.25" stroke-linecap="round" stroke-linejoin="round"/>
<path d="M236.482 114.482V164.787" stroke="#263238" stroke-width="0.25" stroke-linecap="round" stroke-linejoin="round"/>
<path d="M246.209 114.482V164.787" stroke="#263238" stroke-width="0.25" stroke-linecap="round" stroke-linejoin="round"/>
<path d="M255.948 114.482V164.787" stroke="#263238" stroke-width="0.25" stroke-linecap="round" stroke-linejoin="round"/>
<path d="M265.684 114.482V164.787" stroke="#263238" stroke-width="0.25" stroke-linecap="round" stroke-linejoin="round"/>
<path d="M197.323 119.06H275.474" stroke="#263238" stroke-width="0.25" stroke-linecap="round" stroke-linejoin="round"/>
<path d="M197.323 123.62H275.474" stroke="#263238" stroke-width="0.25" stroke-linecap="round" stroke-linejoin="round"/>
<path d="M197.323 128.179H275.474" stroke="#263238" stroke-width="0.25" stroke-linecap="round" stroke-linejoin="round"/>
<path d="M197.323 132.739H275.474" stroke="#263238" stroke-width="0.25" stroke-linecap="round" stroke-linejoin="round"/>
<path d="M197.323 137.298H275.474" stroke="#263238" stroke-width="0.25" stroke-linecap="round" stroke-linejoin="round"/>
<path d="M197.323 141.85H275.474" stroke="#263238" stroke-width="0.25" stroke-linecap="round" stroke-linejoin="round"/>
<path d="M197.323 146.409H275.474" stroke="#263238" stroke-width="0.25" stroke-linecap="round" stroke-linejoin="round"/>
<path d="M197.323 150.969H275.474" stroke="#263238" stroke-width="0.25" stroke-linecap="round" stroke-linejoin="round"/>
<path d="M197.323 155.529H275.474" stroke="#263238" stroke-width="0.25" stroke-linecap="round" stroke-linejoin="round"/>
<path d="M197.323 160.089H275.474" stroke="#263238" stroke-width="0.25" stroke-linecap="round" stroke-linejoin="round"/>
<path d="M147.471 226.414H63.6286L69.4153 222.02H153.257L147.471 226.414Z" fill="#92E3A9"/>
<path d="M19.2577 261.691H17.204L69.415 222.02H71.4773L19.2577 261.691Z" fill="#92E3A9"/>
<path d="M128.996 240.425H45.1631L51.7156 235.517H135.549L128.996 240.425Z" fill="#263238"/>
<path d="M100.777 261.892H16.9347L69.4153 222.02H153.257L100.777 261.892Z" stroke="#263238" stroke-width="0.25" stroke-linecap="round" stroke-linejoin="round"/>
<path d="M78.0561 222.168L25.8017 261.865" stroke="#263238" stroke-width="0.25" stroke-linecap="round" stroke-linejoin="round"/>
<path d="M86.4791 222.168L34.2246 261.865" stroke="#263238" stroke-width="0.25" stroke-linecap="round" stroke-linejoin="round"/>
<path d="M94.8933 222.168L42.6389 261.865" stroke="#263238" stroke-width="0.25" stroke-linecap="round" stroke-linejoin="round"/>
<path d="M103.317 222.168L51.0627 261.865" stroke="#263238" stroke-width="0.25" stroke-linecap="round" stroke-linejoin="round"/>
<path d="M111.741 222.168L59.4862 261.865" stroke="#263238" stroke-width="0.25" stroke-linecap="round" stroke-linejoin="round"/>
<path d="M120.164 222.168L67.9008 261.865" stroke="#263238" stroke-width="0.25" stroke-linecap="round" stroke-linejoin="round"/>
<path d="M128.578 222.168L76.3238 261.865" stroke="#263238" stroke-width="0.25" stroke-linecap="round" stroke-linejoin="round"/>
<path d="M137.002 222.168L84.7472 261.865" stroke="#263238" stroke-width="0.25" stroke-linecap="round" stroke-linejoin="round"/>
<path d="M145.425 222.168L93.1619 261.865" stroke="#263238" stroke-width="0.25" stroke-linecap="round" stroke-linejoin="round"/>
<path d="M58.4941 230.425H142.084" stroke="#263238" stroke-width="0.25" stroke-linecap="round" stroke-linejoin="round"/>
<path d="M51.8196 235.499H135.409" stroke="#263238" stroke-width="0.25" stroke-linecap="round" stroke-linejoin="round"/>
<path d="M45.1455 240.572H128.735" stroke="#263238" stroke-width="0.25" stroke-linecap="round" stroke-linejoin="round"/>
<path d="M38.471 245.636H122.061" stroke="#263238" stroke-width="0.25" stroke-linecap="round" stroke-linejoin="round"/>
<path d="M31.7965 250.71H115.386" stroke="#263238" stroke-width="0.25" stroke-linecap="round" stroke-linejoin="round"/>
<path d="M25.1229 255.782H108.713" stroke="#263238" stroke-width="0.25" stroke-linecap="round" stroke-linejoin="round"/>
<path d="M275.665 168.643H187.298V171.888H275.665V168.643Z" fill="#92E3A9"/>
<path d="M189.465 168.643H187.298V210.446H189.465V168.643Z" fill="#92E3A9"/>
<path d="M275.665 168.643H187.298V210.664H275.665V168.643Z" stroke="#263238" stroke-width="0.25" stroke-linecap="round" stroke-linejoin="round"/>
<path d="M196.61 168.799V210.638" stroke="#263238" stroke-width="0.25" stroke-linecap="round" stroke-linejoin="round"/>
<path d="M205.486 168.799V210.638" stroke="#263238" stroke-width="0.25" stroke-linecap="round" stroke-linejoin="round"/>
<path d="M214.361 168.799V210.638" stroke="#263238" stroke-width="0.25" stroke-linecap="round" stroke-linejoin="round"/>
<path d="M223.237 168.799V210.638" stroke="#263238" stroke-width="0.25" stroke-linecap="round" stroke-linejoin="round"/>
<path d="M232.113 168.799V210.638" stroke="#263238" stroke-width="0.25" stroke-linecap="round" stroke-linejoin="round"/>
<path d="M240.989 168.799V210.638" stroke="#263238" stroke-width="0.25" stroke-linecap="round" stroke-linejoin="round"/>
<path d="M249.865 168.799V210.638" stroke="#263238" stroke-width="0.25" stroke-linecap="round" stroke-linejoin="round"/>
<path d="M258.732 168.799V210.638" stroke="#263238" stroke-width="0.25" stroke-linecap="round" stroke-linejoin="round"/>
<path d="M267.608 168.799V210.638" stroke="#263238" stroke-width="0.25" stroke-linecap="round" stroke-linejoin="round"/>
<path d="M187.446 177.501H275.552" stroke="#263238" stroke-width="0.25" stroke-linecap="round" stroke-linejoin="round"/>
<path d="M187.446 182.853H275.552" stroke="#263238" stroke-width="0.25" stroke-linecap="round" stroke-linejoin="round"/>
<path d="M187.446 188.195H275.552" stroke="#263238" stroke-width="0.25" stroke-linecap="round" stroke-linejoin="round"/>
<path d="M187.446 193.539H275.552" stroke="#263238" stroke-width="0.25" stroke-linecap="round" stroke-linejoin="round"/>
<path d="M187.446 198.881H275.552" stroke="#263238" stroke-width="0.25" stroke-linecap="round" stroke-linejoin="round"/>
<path d="M187.446 204.225H275.552" stroke="#263238" stroke-width="0.25" stroke-linecap="round" stroke-linejoin="round"/>
<path d="M246.41 195.462H242.729V204.059H246.41V195.462Z" fill="#263238" stroke="#263238" stroke-width="0.5" stroke-miterlimit="10"/>
<path d="M252.31 190.31H248.629V204.068H252.31V190.31Z" fill="#92E3A9" stroke="#263238" stroke-width="0.5" stroke-miterlimit="10"/>
<path d="M258.201 181.712H254.52V204.067H258.201V181.712Z" fill="#263238" stroke="#263238" stroke-width="0.5" stroke-miterlimit="10"/>
<path d="M264.101 190.057H260.42V204.059H264.101V190.057Z" fill="#92E3A9" stroke="#263238" stroke-width="0.5" stroke-miterlimit="10"/>
<path d="M269.992 181.712H266.311V204.067H269.992V181.712Z" fill="#263238" stroke="#263238" stroke-width="0.5" stroke-miterlimit="10"/>
<path d="M208.514 193.73V203.946C205.804 203.946 203.206 202.869 201.29 200.953C199.374 199.038 198.298 196.439 198.298 193.73C198.298 191.02 199.374 188.422 201.29 186.506C203.206 184.59 205.804 183.514 208.514 183.514V183.514V193.73Z" fill="#92E3A9" stroke="#263238" stroke-width="0.5" stroke-miterlimit="10"/>
<path d="M208.513 193.73L218.225 190.571C218.643 191.847 218.805 193.193 218.702 194.533C218.599 195.872 218.232 197.177 217.623 198.375C217.015 199.572 216.176 200.637 215.154 201.509C214.133 202.382 212.95 203.044 211.672 203.458C210.654 203.799 209.587 203.97 208.513 203.963V193.73Z" fill="white" stroke="#263238" stroke-width="0.5" stroke-miterlimit="10"/>
<path d="M208.513 193.73V183.514C210.676 183.489 212.789 184.162 214.538 185.434C216.288 186.705 217.581 188.507 218.225 190.572L208.513 193.73Z" fill="#263238" stroke="#263238" stroke-width="0.5" stroke-miterlimit="10"/>
</svg>
