<svg width="303" viewBox="0 0 303 274" fill="none" xmlns="http://www.w3.org/2000/svg">
<path d="M173.686 128.594C170.124 129.903 161.647 129.224 161.641 129.224C161.634 129.224 163.799 123.773 163.982 123.446C166.078 119.67 172.359 113.584 177.11 114.522C180.54 115.195 182.252 118.77 181.276 121.974C180.301 125.177 176.72 127.48 173.686 128.594Z" fill="#92E3A9"/>
<path d="M64.218 92.9923C69.0577 92.7657 74.3757 99.7011 75.8987 103.748C76.0246 104.1 77.4532 109.815 77.3651 109.808H77.2581C78.1078 110.897 79.0077 112.074 79.958 113.383C81.7013 115.806 83.646 118.563 85.5592 121.703C87.6636 125.064 89.5676 128.546 91.2611 132.131C93.1809 136.134 94.7395 140.3 95.9183 144.58L95.9561 144.737C96.0127 143.321 96.3148 139.363 96.3715 139.073C97.1896 134.825 101.255 127.116 106.063 126.486C109.531 126.058 112.269 128.916 112.357 132.264C112.445 135.612 109.758 138.941 107.221 140.949C104.364 143.208 96.6861 145.096 96.0757 145.247C97.169 149.632 97.968 154.085 98.4672 158.577C98.7756 161.195 99.0021 163.838 99.1909 166.494C99.2853 165.235 99.3735 164.172 99.4049 164.021C100.217 159.773 104.289 152.063 109.097 151.434C112.565 151.006 115.302 153.869 115.39 157.217C115.478 160.565 112.791 163.888 110.261 165.896C107.731 167.904 101.18 169.672 99.449 170.113C99.5119 171.132 99.5874 172.146 99.6441 173.165C99.9336 178.055 100.198 182.939 100.607 187.716C100.752 189.396 100.953 191.051 101.148 192.706C101.23 191.618 101.312 190.705 101.337 190.567C102.149 186.318 106.221 178.609 111.029 177.98C114.49 177.552 117.234 180.409 117.322 183.757C117.411 187.105 114.723 190.434 112.187 192.442C109.651 194.45 103.741 196.048 101.689 196.577C101.941 198.263 102.193 199.956 102.514 201.58C102.753 202.688 102.917 203.764 103.219 204.865C103.521 205.967 103.779 207.037 104.056 208.107C104.685 210.146 105.277 212.254 105.912 214.23C106.353 215.608 106.793 216.911 107.234 218.226C107.07 216.552 106.825 213.267 106.831 212.99C107.116 209.195 108.366 205.536 110.463 202.361C110.477 201.937 110.53 201.516 110.62 201.102C111.35 197.829 114.597 195.564 117.914 196.665C122.515 198.194 124.982 206.577 124.944 210.901C124.944 211.159 124.604 213.922 124.365 215.665C124.667 214.664 124.938 213.689 125.259 212.657C125.888 210.618 126.517 208.604 127.26 206.432L128.424 203.286C128.789 202.228 129.305 201.165 129.752 200.089C130.828 197.615 132.037 195.161 133.314 192.719C131.527 192.178 125.227 190.157 122.773 188.03C120.318 185.903 117.813 182.536 118.04 179.125C118.267 175.714 121.136 173.052 124.579 173.637C129.356 174.449 133.069 182.36 133.686 186.639C133.723 186.91 133.818 190.032 133.843 191.75C134.617 190.283 135.385 188.823 136.222 187.344C138.632 183.14 141.2 178.968 143.774 174.789C144.554 173.53 145.316 172.227 146.084 170.95C145.454 170.761 137.902 168.527 135.158 166.142C132.716 164.021 130.193 160.647 130.426 157.236C130.658 153.825 133.516 151.163 136.958 151.748C141.735 152.56 145.448 160.471 146.065 164.751C146.115 165.078 146.247 169.571 146.222 170.711C147.915 167.891 149.57 165.046 151.093 162.202C153.169 158.356 154.992 154.378 156.55 150.295C156.254 150.206 148.368 147.909 145.555 145.467C143.113 143.353 140.596 139.973 140.822 136.562C141.049 133.151 143.919 130.489 147.361 131.074C152.138 131.886 155.845 139.797 156.468 144.083C156.512 144.416 156.657 149.25 156.619 150.131C156.707 149.892 156.827 149.659 156.915 149.42C158.363 145.281 159.441 141.023 160.137 136.694C160.552 134.309 160.811 132.006 161.018 129.771C159.508 129.495 152.61 128.148 149.835 126.228C147.173 124.391 144.296 121.313 144.171 117.896C144.045 114.478 146.581 111.52 150.061 111.722C154.901 112.005 159.457 119.463 160.54 123.679C160.603 123.906 160.943 126.285 161.169 128.028C161.245 127.009 161.345 125.964 161.402 124.988C161.616 121.332 161.585 117.971 161.534 114.988C161.49 113.295 161.421 111.766 161.339 110.337C159.999 109.286 154.643 105 153.088 102.08C151.534 99.1599 150.445 95.1572 151.886 92.0608C153.328 88.9644 156.965 87.5169 159.961 89.298C164.127 91.8154 164.738 100.5 163.768 104.717C163.68 105.082 161.723 110.627 161.648 110.576L161.566 110.513C161.673 111.885 161.773 113.364 161.849 114.982C161.962 117.965 162.069 121.332 161.931 125.007C161.829 128.971 161.497 132.926 160.936 136.852C160.326 141.251 159.326 145.588 157.947 149.81C157.932 149.86 157.913 149.908 157.89 149.955C158.721 148.809 161.163 145.669 161.377 145.449C164.398 142.358 172.076 138.148 176.393 140.307C179.54 141.868 180.232 145.763 178.439 148.595C176.645 151.427 172.592 152.73 169.37 153.001C165.738 153.309 158.293 150.653 157.702 150.439C156.167 154.706 154.348 158.864 152.258 162.888C151.074 165.235 149.803 167.564 148.482 169.886C149.23 168.917 149.916 168.055 150.023 167.941C153.044 164.845 160.722 160.641 165.04 162.8C168.186 164.354 168.872 168.25 167.091 171.088C165.31 173.927 161.238 175.223 158.016 175.494C154.794 175.764 148.356 173.637 146.688 173.045C146.178 173.933 145.681 174.82 145.165 175.708C142.71 179.943 140.237 184.16 137.94 188.37C137.134 189.849 136.392 191.341 135.637 192.832C136.31 191.97 136.895 191.253 136.977 191.146C139.998 188.055 147.676 183.845 152 186.004C155.146 187.565 155.832 191.46 154.045 194.292C152.258 197.124 148.192 198.427 144.976 198.698C141.829 198.962 135.939 197.043 133.931 196.357C133.214 197.905 132.49 199.453 131.86 200.982C131.451 202.04 130.986 203.028 130.64 204.129C130.293 205.23 129.909 206.25 129.551 207.276C128.921 209.315 128.292 211.411 127.719 213.412C127.323 214.803 126.97 216.137 126.612 217.478C127.398 215.986 129.01 213.11 129.167 212.89C131.684 209.371 138.607 204.079 143.239 205.526C146.562 206.596 147.852 210.334 146.512 213.406C145.171 216.477 141.357 218.384 138.217 219.139C134.755 219.97 127.291 218.573 126.36 218.39C125.775 220.612 125.227 222.796 124.743 224.822C124.636 225.263 124.547 225.659 124.447 226.081H121.42C121.583 225.451 121.747 224.784 121.923 224.117C122.508 221.858 123.182 219.46 123.893 217.006C121.686 215.958 119.541 214.786 117.467 213.494C114.83 216.011 108.298 218.78 107.454 219.158C108.191 221.329 108.927 223.437 109.651 225.414L109.909 226.106H106.882C106.152 223.972 105.422 221.7 104.691 219.353C103.766 219.485 96.233 220.549 92.8093 219.561C89.7067 218.661 85.9998 216.647 84.7788 213.45C83.5579 210.253 85.0495 206.64 88.4165 205.734C93.0926 204.475 99.7762 210.095 102.136 213.727C102.275 213.941 103.521 216.433 104.282 218.019C103.974 217.018 103.653 216.049 103.364 215.017C102.734 212.978 102.206 210.926 101.608 208.723C101.35 207.647 101.098 206.558 100.84 205.463C100.582 204.368 100.406 203.204 100.179 202.058C99.7133 199.403 99.3735 196.69 99.084 193.952C97.3029 194.481 90.9024 196.275 87.7116 195.84C84.5208 195.406 80.5433 193.997 78.8504 191.02C77.1574 188.043 78.0826 184.248 81.2734 182.838C85.6788 180.881 93.1681 185.431 96.0442 188.666C96.2267 188.867 98.0266 191.416 98.9896 192.839C98.8322 191.19 98.6686 189.541 98.5616 187.867C98.2532 183.04 98.0959 178.137 97.9322 173.247C97.8819 171.749 97.8064 170.257 97.7434 168.766C97.1141 168.961 89.5619 171.283 85.9746 170.786C82.7712 170.371 78.8063 168.942 77.1134 165.965C75.4204 162.988 76.3456 159.194 79.5364 157.784C83.9733 155.826 91.4311 160.377 94.3072 163.612C94.5275 163.857 97.1141 167.526 97.7309 168.495C97.5798 165.204 97.4036 161.931 97.1015 158.709C96.712 154.356 96.0372 150.034 95.0813 145.769C94.7918 145.864 86.9438 148.287 83.2495 147.809C80.0461 147.387 76.0812 145.965 74.3946 142.988C72.7079 140.011 73.6205 136.216 76.8176 134.806C81.223 132.849 88.706 137.399 91.5884 140.634C91.8087 140.886 94.5967 144.838 95.0498 145.593C94.9932 145.348 94.9617 145.083 94.8988 144.838C93.8284 140.586 92.3793 136.439 90.5689 132.446C89.5997 130.231 88.5487 128.16 87.4788 126.153C86.0627 126.782 79.5678 129.444 76.2008 129.375C72.966 129.306 68.8689 128.324 66.8613 125.555C64.8537 122.786 65.3571 118.909 68.3717 117.159C72.5632 114.724 80.4804 118.418 83.6964 121.326C83.8663 121.483 85.4711 123.283 86.6165 124.604C86.1194 123.717 85.6222 122.792 85.1313 121.949C83.2936 118.802 81.4118 115.989 79.7315 113.534C78.7623 112.143 77.8434 110.91 76.9938 109.758C75.3009 109.626 68.4724 109.003 65.5585 107.423C62.6446 105.844 59.542 103.112 59.0322 99.7326C58.5224 96.353 60.7314 93.137 64.218 92.9923Z" fill="#92E3A9"/>
<path d="M87.7053 125.284C87.6298 125.328 86.5033 119.551 86.4466 119.179C86.1068 114.862 87.9948 106.328 92.4758 104.49C95.7043 103.162 99.1028 105.195 100.028 108.405C100.953 111.615 99.2853 115.536 97.3721 118.135C95.1694 121.193 87.7116 125.278 87.7053 125.284Z" fill="#92E3A9"/>
<path d="M85.0245 215.558C85.0245 215.558 65.9426 215.319 61.4805 208.182H11.636C11.636 208.182 15.6891 215.495 21.9825 215.558H85.0245Z" fill="white" stroke="#263238" stroke-miterlimit="10"/>
<path d="M60.0331 210.536H19.4275C19.4275 210.536 20.1827 212.184 18.1121 213.091C19.4174 214.297 21.0556 215.082 22.8134 215.344H74.5081C74.5081 215.344 67.9251 214.714 64.3567 212.638C64.3567 212.638 60.2219 213.242 60.0331 210.536Z" fill="white" stroke="#263238" stroke-miterlimit="10"/>
<path d="M77.4976 272.608H192.052V258.435H77.4976V272.608Z" fill="#263238" stroke="#263238" stroke-miterlimit="10"/>
<path d="M14.4555 272.608H129.01V258.435H14.4555V272.608Z" fill="white" stroke="#263238" stroke-miterlimit="10"/>
<path d="M128.217 262.218H100.242" stroke="#263238" stroke-miterlimit="10"/>
<path d="M122.697 265.371H82.1168" stroke="#263238" stroke-miterlimit="10"/>
<path d="M106.542 268.203H113.635" stroke="#263238" stroke-miterlimit="10"/>
<path d="M116.398 268.203H127.82" stroke="#263238" stroke-miterlimit="10"/>
<path d="M15.1288 267.573H50.9828" stroke="#263238" stroke-miterlimit="10"/>
<path d="M18.282 265.685H23.0084" stroke="#263238" stroke-miterlimit="10"/>
<path d="M45.073 265.371H29.3141" stroke="#263238" stroke-miterlimit="10"/>
<path d="M15.1288 261.588H28.9178" stroke="#263238" stroke-miterlimit="10"/>
<path d="M190.472 264.42H183.379" stroke="#8A8A8A" stroke-miterlimit="10"/>
<path d="M192.052 267.573H169.987" stroke="#8A8A8A" stroke-miterlimit="10"/>
<path d="M130.186 269.461H140.828" stroke="#8A8A8A" stroke-miterlimit="10"/>
<path d="M129.003 264.42H157.771" stroke="#8A8A8A" stroke-miterlimit="10"/>
<path d="M182.592 260.33H166.047" stroke="#8A8A8A" stroke-miterlimit="10"/>
<path d="M66.7421 272.293H80.1409V258.435H66.7421V272.293Z" fill="white" stroke="#263238" stroke-miterlimit="10"/>
<path d="M76.025 258.322H190.579V244.149H76.025V258.322Z" fill="#263238" stroke="#263238" stroke-miterlimit="10"/>
<path d="M12.9829 258.322H127.537V244.149H12.9829V258.322Z" fill="white" stroke="#263238" stroke-miterlimit="10"/>
<path d="M126.744 247.925H98.7693" stroke="#263238" stroke-miterlimit="10"/>
<path d="M121.231 251.072H80.6443" stroke="#263238" stroke-miterlimit="10"/>
<path d="M105.075 253.91H112.168" stroke="#263238" stroke-miterlimit="10"/>
<path d="M114.925 253.91H126.354" stroke="#263238" stroke-miterlimit="10"/>
<path d="M13.6558 253.281H49.5161" stroke="#263238" stroke-miterlimit="10"/>
<path d="M16.809 251.386H21.5354" stroke="#263238" stroke-miterlimit="10"/>
<path d="M43.6067 251.072H27.8415" stroke="#263238" stroke-miterlimit="10"/>
<path d="M13.6558 247.296H27.4512" stroke="#263238" stroke-miterlimit="10"/>
<path d="M189.006 250.128H181.913" stroke="#8A8A8A" stroke-miterlimit="10"/>
<path d="M190.579 253.281H168.514" stroke="#8A8A8A" stroke-miterlimit="10"/>
<path d="M128.72 255.169H139.356" stroke="#8A8A8A" stroke-miterlimit="10"/>
<path d="M127.537 250.128H156.298" stroke="#8A8A8A" stroke-miterlimit="10"/>
<path d="M181.126 246.037H164.574" stroke="#8A8A8A" stroke-miterlimit="10"/>
<path d="M65.2753 258.007H78.6741V244.149H65.2753V258.007Z" fill="white" stroke="#263238" stroke-miterlimit="10"/>
<path d="M80.682 244.029H195.236V229.856H80.682V244.029Z" fill="#263238" stroke="#263238" stroke-miterlimit="10"/>
<path d="M17.64 244.029H132.194V229.856H17.64V244.029Z" fill="white" stroke="#263238" stroke-miterlimit="10"/>
<path d="M131.401 233.633H103.427" stroke="#263238" stroke-miterlimit="10"/>
<path d="M125.882 236.779H85.3013" stroke="#263238" stroke-miterlimit="10"/>
<path d="M109.726 239.617H116.819" stroke="#263238" stroke-miterlimit="10"/>
<path d="M119.582 239.617H131.005" stroke="#263238" stroke-miterlimit="10"/>
<path d="M18.3132 238.988H54.1673" stroke="#263238" stroke-miterlimit="10"/>
<path d="M21.4664 237.094H26.1928" stroke="#263238" stroke-miterlimit="10"/>
<path d="M48.2578 236.779H32.4989" stroke="#263238" stroke-miterlimit="10"/>
<path d="M18.3132 233.003H32.1023" stroke="#263238" stroke-miterlimit="10"/>
<path d="M193.656 235.835H186.564" stroke="#8A8A8A" stroke-miterlimit="10"/>
<path d="M195.236 238.988H173.171" stroke="#8A8A8A" stroke-miterlimit="10"/>
<path d="M133.371 240.876H144.013" stroke="#8A8A8A" stroke-miterlimit="10"/>
<path d="M132.188 235.835H160.955" stroke="#8A8A8A" stroke-miterlimit="10"/>
<path d="M185.777 231.744H169.231" stroke="#8A8A8A" stroke-miterlimit="10"/>
<path d="M69.9261 243.715H83.325V229.857H69.9261V243.715Z" fill="white" stroke="#263238" stroke-miterlimit="10"/>
<path d="M77.1262 229.73H191.68V215.557H77.1262V229.73Z" fill="#263238" stroke="#263238" stroke-miterlimit="10"/>
<path d="M14.0842 229.73H128.638V215.557H14.0842V229.73Z" fill="white" stroke="#263238" stroke-miterlimit="10"/>
<path d="M127.852 219.34H99.871" stroke="#263238" stroke-miterlimit="10"/>
<path d="M122.332 222.487H81.7455" stroke="#263238" stroke-miterlimit="10"/>
<path d="M106.177 225.319H113.269" stroke="#263238" stroke-miterlimit="10"/>
<path d="M116.026 225.319H127.455" stroke="#263238" stroke-miterlimit="10"/>
<path d="M14.7574 224.69H50.6178" stroke="#263238" stroke-miterlimit="10"/>
<path d="M17.9106 222.801H22.6434" stroke="#263238" stroke-miterlimit="10"/>
<path d="M44.7079 222.487H28.9427" stroke="#263238" stroke-miterlimit="10"/>
<path d="M14.7574 218.711H28.5528" stroke="#263238" stroke-miterlimit="10"/>
<path d="M190.107 221.543H183.014" stroke="#8A8A8A" stroke-miterlimit="10"/>
<path d="M191.68 224.69H169.615" stroke="#8A8A8A" stroke-miterlimit="10"/>
<path d="M129.821 226.584H140.457" stroke="#8A8A8A" stroke-miterlimit="10"/>
<path d="M128.638 221.543H157.4" stroke="#8A8A8A" stroke-miterlimit="10"/>
<path d="M182.227 217.446H165.675" stroke="#8A8A8A" stroke-miterlimit="10"/>
<path d="M66.3765 229.416H79.7754V215.558H66.3765V229.416Z" fill="white" stroke="#263238" stroke-miterlimit="10"/>
<path d="M282.861 55.7657H173.203V272.614H282.861V55.7657Z" fill="#263238" stroke="#263238" stroke-miterlimit="10"/>
<path d="M271.003 56.7539V94.2946" stroke="#8A8A8A" stroke-miterlimit="10"/>
<path d="M277.92 66.1374V81.9467" stroke="#8A8A8A" stroke-miterlimit="10"/>
<path d="M274.465 62.682V118.99" stroke="#8A8A8A" stroke-miterlimit="10"/>
<path d="M280.394 55.7657V129.368" stroke="#8A8A8A" stroke-miterlimit="10"/>
<path d="M271.992 272.117V233.588" stroke="#8A8A8A" stroke-miterlimit="10"/>
<path d="M275.944 272.614V264.212" stroke="#8A8A8A" stroke-miterlimit="10"/>
<path d="M276.932 261.248V227.169" stroke="#8A8A8A" stroke-miterlimit="10"/>
<path d="M272.489 228.648V172.831" stroke="#8A8A8A" stroke-miterlimit="10"/>
<path d="M267.548 55.7659H157.891V272.614H267.548V55.7659Z" fill="#92E3A9" stroke="#263238" stroke-miterlimit="10"/>
<path d="M258.165 71.1091C256.022 71.1042 253.962 70.2792 252.408 68.8034C250.853 67.3277 249.923 65.313 249.807 63.173H175.645C175.532 65.3163 174.601 67.3345 173.043 68.8112C171.486 70.2879 169.421 71.1104 167.274 71.1091C166.778 71.1079 166.283 71.0615 165.795 70.9706V252.991C166.284 252.903 166.778 252.857 167.274 252.853C168.724 252.852 170.15 253.228 171.411 253.942C172.673 254.657 173.728 255.686 174.474 256.929C175.22 258.172 175.631 259.588 175.668 261.037C175.704 262.487 175.364 263.921 174.682 265.2H250.758C250.073 263.921 249.732 262.487 249.767 261.036C249.803 259.586 250.214 258.17 250.96 256.926C251.706 255.682 252.762 254.653 254.025 253.939C255.288 253.225 256.714 252.851 258.165 252.853C258.661 252.857 259.156 252.903 259.644 252.991V70.9391C259.157 71.0406 258.662 71.0975 258.165 71.1091V71.1091ZM210.498 197.036C193.172 197.036 179.131 181.78 179.131 162.956C179.131 144.132 193.172 128.871 210.498 128.871C227.824 128.871 241.865 144.132 241.865 162.956C241.865 181.78 227.818 197.036 210.498 197.036Z" fill="white" stroke="#263238" stroke-miterlimit="10"/>
<path d="M282.659 151.1H158.382V173.328H282.659V151.1Z" fill="white" stroke="#263238" stroke-miterlimit="10"/>
<path d="M282.659 151.1H267.788V173.328H282.659V151.1Z" fill="#3D3D3D" stroke="#8A8A8A" stroke-miterlimit="10"/>
<path d="M38.1446 259.128L34.4817 264.622L27.326 270.286V272.621H51.8014L50.9644 264.44V260.777C50.9644 260.777 40.9766 256.459 38.1446 259.128Z" fill="#263238" stroke="#263238" stroke-miterlimit="10"/>
<path d="M51.5812 270.45H27.326V272.615H51.8014L51.5812 270.45Z" fill="white" stroke="#263238" stroke-miterlimit="10"/>
<path d="M78.5614 259.128L82.4634 264.622L90.0974 270.286V272.621H64.0109L64.8982 264.44V260.777C64.8982 260.777 75.5468 256.459 78.5614 259.128Z" fill="#263238" stroke="#263238" stroke-miterlimit="10"/>
<path d="M64.2437 270.45H90.0974V272.615H64.0109L64.2437 270.45Z" fill="white" stroke="#263238" stroke-miterlimit="10"/>
<path d="M27.2253 145.172C27.2253 145.172 32.9398 209.667 33.3489 221.914C33.758 234.161 37.6347 250.694 37.6347 250.694L35.8285 253.552L37.6662 259.877C37.6662 259.877 41.9521 258.857 44.1989 259.675C46.4456 260.493 50.4923 261.513 50.4923 261.513C50.4923 261.513 52.5377 256 52.7391 253.552C52.9405 251.104 50.3035 245.181 50.3035 245.181L49.8945 171.503H53.5699L62.9472 249.467L62.5381 254.162L64.3758 261.513C64.3758 261.513 75.1943 259.266 76.0062 259.059C76.6263 258.965 77.2602 259.037 77.8439 259.266C77.8439 259.266 79.1026 256.61 79.1026 255.792C79.1026 254.974 77.4663 250.285 77.4663 250.285L77.0572 213.752V144.561L27.2568 143.542L27.2253 145.172Z" fill="#92E3A9" stroke="#263238" stroke-miterlimit="10"/>
<path d="M75.3012 173.656L76.4152 198.056L71.6636 198.484V201.511L75.1187 201.725" stroke="#263238" stroke-linecap="round" stroke-linejoin="round"/>
<path d="M74.4705 155.505L75.1943 171.264" stroke="#263238" stroke-linecap="round" stroke-linejoin="round"/>
<path d="M72.3935 215.992C72.5508 220.354 72.897 224.136 73.6081 224.4C75.3388 225.03 75.7668 225.697 75.7668 225.697" stroke="#263238" stroke-linecap="round" stroke-linejoin="round"/>
<path d="M72.3304 202.373C72.3304 202.373 72.2171 207.886 72.3304 213.399" stroke="#263238" stroke-linecap="round" stroke-linejoin="round"/>
<path d="M44.8845 169.326L53.5192 169.974" stroke="#263238" stroke-linecap="round" stroke-linejoin="round"/>
<path d="M47.6918 148.595L47.9058 160.685L51.7952 163.498" stroke="#263238" stroke-linecap="round" stroke-linejoin="round"/>
<path d="M51.795 152.913L52.4432 167.816" stroke="#263238" stroke-linecap="round" stroke-linejoin="round"/>
<path d="M49.1266 222.034L49.4161 236.93" stroke="#263238" stroke-linecap="round" stroke-linejoin="round"/>
<path d="M48.1195 170.188L49.0572 218.352" stroke="#263238" stroke-linecap="round" stroke-linejoin="round"/>
<path d="M65.6158 154.857C65.6158 154.857 68.643 161.119 74.2568 159.174" stroke="#263238" stroke-linecap="round" stroke-linejoin="round"/>
<path d="M35.3814 154.857C35.3814 154.857 33.2164 159.609 29.7613 160.257" stroke="#263238" stroke-linecap="round" stroke-linejoin="round"/>
<path d="M48.2077 73.2054L41.7191 75.1689L36.2815 144.901L64.9609 145.36L66.4714 73.6585L48.2077 73.2054Z" fill="white" stroke="#263238" stroke-miterlimit="10"/>
<path d="M45.8981 70.4807H44.375L43.6072 72.4695L43.9156 89.3046L53.4062 83.1873L62.7395 92.0611L63.9667 72.01C63.9667 72.01 64.4261 71.0912 63.0478 70.4807C61.6696 69.8703 61.2101 69.7129 61.2101 69.7129L45.8981 70.4807Z" fill="white" stroke="#263238" stroke-miterlimit="10"/>
<path d="M44.9851 65.5714L45.4445 72.4943C45.4445 72.4943 49.85 82.1359 52.789 83.5142C55.7281 84.8924 62.4369 72.0348 62.4369 72.0348L61.9775 64.382H44.8278L44.9851 65.5714Z" fill="white" stroke="#263238" stroke-miterlimit="10"/>
<path d="M44.9856 65.5718C44.9856 65.5718 50.4924 77.5295 53.7084 77.9763C56.9244 78.4232 62.1291 66.9501 62.1291 65.8802C62.1291 64.8103 44.9856 65.5718 44.9856 65.5718Z" fill="#263238" stroke="#263238" stroke-miterlimit="10"/>
<path d="M42.078 55.3257C42.078 55.3257 39.4221 53.1481 39.0571 56.169C38.6921 59.1899 42.5626 61.9716 42.5626 61.9716L42.078 55.3257Z" fill="white" stroke="#263238" stroke-miterlimit="10"/>
<path d="M63.6643 55.3257C63.6643 55.3257 66.3265 53.1481 66.6915 56.169C67.0565 59.1899 63.186 61.9716 63.186 61.9716L63.6643 55.3257Z" fill="white" stroke="#263238" stroke-miterlimit="10"/>
<path d="M41.5932 55.6846C41.5932 55.6846 43.047 64.1493 44.2553 65.7164C45.4637 67.2835 49.2083 72.7274 52.7138 73.6966C56.2193 74.6658 61.6631 67.894 62.7456 65.5969C63.8281 63.2997 64.1994 53.1483 64.1994 53.1483L64.0798 47.7108C64.0798 47.7108 63.7148 43.7207 62.1415 41.5431C60.5681 39.3656 53.8026 37.9181 49.3342 39.6425C44.8658 41.3669 41.1149 49.1583 41.1149 50.7316C41.1149 52.305 41.5932 55.6846 41.5932 55.6846Z" fill="white" stroke="#263238" stroke-miterlimit="10"/>
<path d="M49.5732 46.2567C49.5732 46.2567 45.7971 50.6118 44.1356 51.4551C43.3807 51.803 42.6528 52.2069 41.9581 52.6635L42.1972 57.7423L40.2651 50.8195C40.2651 50.8195 37.8484 43.475 38.3456 40.2149C38.8428 36.9549 49.825 33.8082 53.6955 32.5998C57.5659 31.3915 59.0135 33.8082 61.5497 35.7466C64.086 37.685 66.7481 39.1325 66.3894 42.3988C66.0769 44.6707 65.509 46.9002 64.6965 49.0447C64.6965 49.0447 64.0671 58.1073 64.0671 58.485C64.0671 58.8626 62.9783 49.5419 62.9783 49.5419C62.3611 49.3796 61.8043 49.0417 61.3753 48.5691C60.9463 48.0966 60.6637 47.5097 60.5617 46.8798C60.2404 45.2851 60.0301 43.6701 59.9323 42.0464C59.9323 42.0464 58.3589 45.3127 56.7856 46.8798C55.2122 48.4468 51.348 49.9006 50.7438 49.7811C50.1396 49.6615 51.3732 46.7602 51.3732 46.7602L49.1956 48.8181L49.5732 46.2567Z" fill="#263238" stroke="#263238" stroke-miterlimit="10"/>
<path d="M50.5424 63.1798C51.141 63.7125 51.838 64.1229 52.5941 64.3882C53.5633 64.6273 55.2562 63.1798 55.7408 62.8148" stroke="#263238" stroke-miterlimit="10"/>
<path d="M50.1776 66.5658C50.1776 66.5658 52.9594 68.737 56.704 66.2007Z" fill="white"/>
<path d="M50.1776 66.5658C50.1776 66.5658 52.9594 68.737 56.704 66.2007" stroke="#263238" stroke-miterlimit="10"/>
<path d="M48.3021 58.825C48.7366 58.825 49.0888 58.2305 49.0888 57.4971C49.0888 56.7637 48.7366 56.1692 48.3021 56.1692C47.8677 56.1692 47.5154 56.7637 47.5154 57.4971C47.5154 58.2305 47.8677 58.825 48.3021 58.825Z" fill="#263238"/>
<path d="M57.4907 58.825C57.9252 58.825 58.2774 58.2305 58.2774 57.4971C58.2774 56.7637 57.9252 56.1692 57.4907 56.1692C57.0562 56.1692 56.704 56.7637 56.704 57.4971C56.704 58.2305 57.0562 58.825 57.4907 58.825Z" fill="#263238"/>
<path d="M55.6151 53.2676C56.3943 52.8594 57.2831 52.7096 58.1531 52.8397C59.0231 52.9698 59.8291 53.3731 60.4548 53.9914" stroke="#263238" stroke-miterlimit="10"/>
<path d="M49.208 53.148C48.5923 52.7833 47.8681 52.6465 47.1617 52.7616C46.4554 52.8766 45.812 53.2361 45.3438 53.7774" stroke="#263238" stroke-miterlimit="10"/>
<path d="M57.7925 59.7941L60.4547 59.1899" stroke="#263238" stroke-miterlimit="10"/>
<path d="M45.5836 59.0703L47.7611 59.794" stroke="#263238" stroke-miterlimit="10"/>
<path d="M43.7584 88.1021L42.3801 154.184L26.6464 153.422L25.696 151.603C25.696 151.603 23.5563 151.603 23.2479 149.917C22.9395 148.23 25.3877 111.193 25.3877 111.193L11.9133 109.966L20.9445 92.3439C20.9445 92.3439 23.701 80.0968 24.3115 79.1779C24.9219 78.2591 44.0605 71.6761 44.0605 71.6761L43.7584 88.1021Z" fill="#263238" stroke="#263238" stroke-miterlimit="10"/>
<path d="M63.3558 71.2858L61.109 154.36L81.3111 154.152L82.1292 151.094L84.1683 149.665V143.132C84.1683 139.866 80.2915 116.19 80.2915 116.19C80.2915 116.19 90.4996 114.761 90.701 112.722C90.9024 110.683 86.4151 79.8639 83.9669 77.6171C81.5188 75.3703 63.3558 71.2858 63.3558 71.2858Z" fill="#263238" stroke="#263238" stroke-miterlimit="10"/>
<path d="M68.4224 118.657L71.1097 126.398C71.1097 126.398 72.6642 122.66 72.4313 120.306C72.1985 117.952 72.1922 117.241 71.4873 117.121C70.7825 117.002 68.5546 116.536 68.4224 118.657Z" fill="white" stroke="#263238" stroke-miterlimit="10"/>
<path d="M41.5681 98.5433L50.1713 115.636L59.2465 111.155L51.5873 93.1246L41.5681 98.5433Z" fill="#92E3A9" stroke="#263238" stroke-miterlimit="10"/>
<path d="M56.4899 110.469C56.3869 110.197 56.3951 109.895 56.5129 109.629C56.6307 109.363 56.8485 109.154 57.1192 109.047C57.1694 109.041 57.2201 109.041 57.2703 109.047L51.6061 95.774C51.5546 95.898 51.4758 96.0088 51.3755 96.0982C51.2753 96.1875 51.1562 96.2531 51.0271 96.2901C50.8336 96.3352 50.631 96.3208 50.4457 96.249C50.2605 96.1771 50.1012 96.0511 49.9887 95.8873L44.0099 99.1033C44.087 99.2189 44.1444 99.3465 44.1798 99.4809C44.2632 99.7218 44.2653 99.9834 44.1857 100.226C44.1062 100.468 43.9493 100.677 43.7393 100.821L49.7118 112.647C49.8185 112.528 49.9556 112.441 50.1083 112.395C50.3616 112.347 50.6238 112.391 50.8477 112.519C51.0715 112.647 51.2423 112.851 51.3292 113.094L56.5088 110.539L56.4899 110.469ZM51.3796 107.411C50.2782 107.719 49.0887 106.907 48.7174 105.592C48.3461 104.277 48.9314 102.955 50.0265 102.647C51.1215 102.338 52.3173 103.15 52.6886 104.465C53.0599 105.781 52.4746 107.096 51.3796 107.411V107.411Z" fill="white" stroke="#263238" stroke-miterlimit="10"/>
<path d="M45.2497 96.4411L49.8439 115.013L59.6869 112.659L56.2192 93.3824L45.2497 96.4411Z" fill="#92E3A9" stroke="#263238" stroke-miterlimit="10"/>
<path d="M57.1506 111.388C57.1292 111.244 57.1365 111.097 57.1721 110.956C57.2077 110.814 57.2709 110.681 57.358 110.564C57.4451 110.447 57.5545 110.349 57.6798 110.274C57.8052 110.199 57.944 110.15 58.0883 110.13C58.1385 110.124 58.1892 110.124 58.2394 110.13L55.722 95.9378C55.6432 96.0466 55.5415 96.1368 55.424 96.202C55.3066 96.2673 55.1763 96.306 55.0423 96.3154C54.8422 96.3141 54.647 96.2537 54.4813 96.1417C54.3155 96.0297 54.1866 95.8712 54.1108 95.686L47.5278 97.5426C47.5798 97.6731 47.6096 97.8114 47.6159 97.9517C47.6434 98.2053 47.5868 98.4608 47.455 98.6791C47.3231 98.8974 47.1231 99.0664 46.8859 99.16L50.0641 112.018C50.1939 111.927 50.3465 111.875 50.5047 111.867C50.7617 111.873 51.008 111.972 51.1977 112.145C51.3875 112.319 51.5079 112.555 51.5368 112.811L57.1569 111.47L57.1506 111.388ZM52.8207 107.26C51.6815 107.323 50.6997 106.265 50.6305 104.9C50.5613 103.534 51.4235 102.382 52.5626 102.319C53.7017 102.256 54.6772 103.32 54.7528 104.686C54.8283 106.051 53.985 107.203 52.8207 107.26Z" fill="white" stroke="#263238" stroke-miterlimit="10"/>
<path d="M50.6934 95.0063L49.6361 114.107L59.7371 114.749L62.0783 95.2958L50.6934 95.0063Z" fill="#92E3A9" stroke="#263238" stroke-miterlimit="10"/>
<path d="M57.6858 112.779C57.7323 112.491 57.8906 112.233 58.1263 112.061C58.362 111.889 58.656 111.816 58.9445 111.86C58.9971 111.872 59.0479 111.891 59.0956 111.917L60.82 97.5926C60.7134 97.6752 60.5897 97.7327 60.4579 97.7611C60.3261 97.7894 60.1896 97.7877 60.0585 97.7562C59.8674 97.6989 59.6981 97.5854 59.5724 97.4305C59.4467 97.2756 59.3704 97.0865 59.3536 96.8877L52.5504 96.7178C52.5625 96.8553 52.5497 96.9939 52.5126 97.1269C52.4651 97.3777 52.3365 97.6059 52.1466 97.7765C51.9567 97.9471 51.716 98.0505 51.4616 98.0709L50.7315 111.287C50.8858 111.243 51.0493 111.243 51.2035 111.287C51.4478 111.371 51.6536 111.54 51.7832 111.763C51.9127 111.986 51.9572 112.248 51.9084 112.502L57.6796 112.867C57.6741 112.837 57.6763 112.807 57.6858 112.779V112.779ZM54.7783 107.574C53.6769 107.297 53.0475 106.001 53.3811 104.673C53.7147 103.345 54.8789 102.495 55.9866 102.785C57.0943 103.074 57.711 104.364 57.3838 105.692C57.0565 107.02 55.8859 107.851 54.7783 107.574Z" fill="white" stroke="#263238" stroke-miterlimit="10"/>
<path d="M71.4874 113.704C70.3747 113.537 69.2734 113.302 68.1896 112.999C67.7176 112.766 64.3002 111.583 61.5877 110.173C58.8752 108.764 56.641 110.173 52.7768 110.878C48.9126 111.583 47.8239 111.822 47.8239 112.766C47.8239 113.71 49.8315 113.943 49.8315 113.943C49.8315 113.943 47.9434 114.176 48.8875 115.473C49.4435 116.243 50.2271 116.82 51.1279 117.121C51.6499 117.986 52.3286 118.746 53.1293 119.362C54.3061 120.186 55.1306 120.898 55.1306 120.898C55.8686 121.817 56.8498 122.51 57.9627 122.899C59.6116 123.371 68.9196 120.539 68.9196 120.539C68.9196 120.539 71.7454 121.363 72.4566 119.834C73.1677 118.305 71.4874 113.704 71.4874 113.704Z" fill="white" stroke="#263238" stroke-linecap="round" stroke-linejoin="round"/>
<path d="M49.8063 113.943C49.8063 113.943 56.8739 113.704 59.1144 112.999" stroke="#263238" stroke-linecap="round" stroke-linejoin="round"/>
<path d="M51.1029 117.122C53.051 117.434 55.0207 117.591 56.9936 117.594C58.1553 117.571 59.2913 117.248 60.2914 116.656" stroke="#263238" stroke-linecap="round" stroke-linejoin="round"/>
<path d="M54.0797 120.073C54.0797 120.073 58.2019 121.332 61.0025 120.426" stroke="#263238" stroke-linecap="round" stroke-linejoin="round"/>
<path d="M74.9865 93.5334L77.2333 111.086L70.902 112.924C70.902 112.924 71.9279 118.229 71.5314 120.683C71.2653 122.577 71.1286 124.486 71.1223 126.398C71.1223 126.398 78.0452 124.151 82.5513 123.742C87.0574 123.333 90.9216 121.294 92.1426 118.028C93.3635 114.761 89.493 103.553 89.493 103.553" fill="#263238"/>
<path d="M74.9865 93.5334L77.2333 111.086L70.902 112.924C70.902 112.924 71.9279 118.229 71.5314 120.683C71.2653 122.577 71.1286 124.486 71.1223 126.398C71.1223 126.398 78.0452 124.151 82.5513 123.742C87.0574 123.333 90.9216 121.294 92.1426 118.028C93.3635 114.761 89.493 103.553 89.493 103.553" stroke="#263238" stroke-miterlimit="10"/>
<path d="M74.1494 112.408L77.2332 111.086L85.0371 108.99" stroke="#6B6B6B" stroke-miterlimit="10"/>
<path d="M77.2332 111.086L74.8102 90.3551" stroke="#6B6B6B" stroke-miterlimit="10"/>
<path d="M37.3264 110.683C37.3264 110.683 35.9167 104.44 35.3251 103.257C34.7335 102.074 31.549 105.384 31.3162 106.441C31.0833 107.499 36.3824 110.803 37.3264 110.683Z" fill="white" stroke="#263238" stroke-miterlimit="10"/>
<path d="M34.2486 97.5423L31.2026 101.117C31.2026 101.117 32.0522 106.353 32.7319 106.561C33.4116 106.769 38.2702 103.024 38.2702 103.024L34.2486 97.5423Z" fill="white" stroke="#263238" stroke-miterlimit="10"/>
<path d="M39.9065 90.374C39.9065 90.374 34.6011 95.5598 34.2423 97.5611C33.8836 99.5625 37.6597 103.339 38.1317 103.691C38.6037 104.043 42.0211 101.331 42.1344 100.859C42.2477 100.387 39.9002 96.7367 39.9002 96.7367C40.9816 97.2665 42.0321 97.8569 43.0469 98.5052C43.3994 98.8576 45.6399 102.042 46.4643 101.803C47.2887 101.564 46.9363 100.034 46.4643 98.6247C45.9923 97.215 40.926 92.4949 40.926 92.4949L44.3434 93.3193C44.3434 93.3193 48.3523 97.2087 49.2964 97.2087C50.2404 97.2087 49.7684 96.2647 49.1768 95.4402C48.5852 94.6158 45.7594 91.318 45.0546 90.4935C44.3497 89.6691 41.6372 89.1971 41.2785 89.1971C40.9197 89.1971 39.9065 90.374 39.9065 90.374Z" fill="white" stroke="#263238" stroke-linecap="round" stroke-linejoin="round"/>
<path d="M39.9067 96.7366L38.2578 95.0877" stroke="#263238" stroke-linecap="round" stroke-linejoin="round"/>
<path d="M36.1364 97.0891L40.3782 102.275" stroke="#263238" stroke-linecap="round" stroke-linejoin="round"/>
<path d="M31.0831 100.551C31.0831 100.551 31.9075 103.376 32.3795 105.145C32.8516 106.913 37.3262 110.683 37.3262 110.683C37.3262 110.683 30.9635 117.398 25.3057 120.344C19.6478 123.289 13.0019 121.81 11.0006 119.456C8.99923 117.103 9.82367 110.268 11.4726 108.852C13.1215 107.436 22.7127 105.617 25.0728 104.321C27.4329 103.024 31.0831 100.551 31.0831 100.551Z" fill="#263238" stroke="#263238" stroke-miterlimit="10"/>
<path d="M31.0832 100.551L15.576 108.128" stroke="#6B6B6B" stroke-miterlimit="10"/>
<path d="M29.0692 101.545V94.3076" stroke="#6B6B6B" stroke-miterlimit="10"/>
<path d="M132.27 260.732C132.27 260.732 130.382 261.267 125.347 257.535C120.312 253.803 114.421 248.473 114.421 248.473C114.421 248.473 120.237 247.692 122.924 246.276C125.882 244.709 129.343 241.009 129.343 241.009C129.343 241.009 141.068 257 155.732 255.937C155.478 257.3 154.883 258.577 154.002 259.649C153.122 260.72 151.985 261.552 150.697 262.067C146.128 263.929 132.27 260.732 132.27 260.732Z" fill="#92E3A9" stroke="#263238" stroke-linejoin="round"/>
<path d="M151.295 257.768C151.295 257.768 138.847 254.502 132.119 247.359C131.795 247.447 131.455 247.462 131.124 247.403C130.794 247.344 130.48 247.212 130.207 247.017C129.933 246.822 129.706 246.568 129.543 246.275C129.38 245.981 129.284 245.655 129.262 245.32C126.91 247.528 123.894 248.898 120.684 249.215C120.684 249.215 120.885 250.644 120.275 251.053C120.275 251.053 129.866 259.423 135.379 260.443C139.206 261.208 143.123 261.42 147.009 261.072C148.688 260.895 150.264 260.18 151.503 259.033C151.503 259.033 149.458 258.586 151.295 257.768ZM139.539 257.309C139.092 258.41 136.871 258.568 134.574 257.611C132.276 256.654 130.797 255.037 131.213 253.942C131.628 252.847 133.881 252.683 136.178 253.64C138.475 254.596 139.98 256.214 139.539 257.309V257.309Z" fill="white" stroke="#263238" stroke-miterlimit="10"/>
<path d="M130.382 260.399C130.382 260.399 136.801 263.042 141.867 263.042C144.832 263.059 147.789 262.732 150.678 262.067C150.678 262.067 148.947 263.011 146.134 261.205C144.529 260.172 143.497 257.875 143.497 257.875C139.263 259.32 134.849 260.169 130.382 260.399V260.399Z" fill="#92E3A9" stroke="#263238" stroke-linejoin="round"/>
<path d="M202.493 233.519C202.493 233.519 214.18 229.674 221.015 225.111L228.284 237.069C228.284 237.069 210.901 250.606 206.338 247.044L202.493 233.519Z" fill="#92E3A9" stroke="#263238" stroke-linejoin="round"/>
<path d="M223.299 236.37C223.313 236.025 223.44 235.695 223.659 235.428C223.878 235.161 224.178 234.973 224.513 234.891L221.285 229.535C221.015 229.627 220.732 229.674 220.448 229.674C220.102 229.693 219.757 229.627 219.442 229.482C219.127 229.337 218.852 229.118 218.641 228.843C212.606 233.066 203.348 235.231 203.348 235.231L205.199 242.5C205.199 242.5 204.915 246.49 209.9 245.489C213.764 244.715 221.033 239.825 224.123 237.692C223.88 237.565 223.676 237.376 223.531 237.143C223.386 236.911 223.306 236.644 223.299 236.37V236.37ZM210.844 241.72C208.66 242.217 206.627 241.474 206.3 240.058C205.973 238.642 207.483 237.081 209.667 236.578C211.851 236.074 213.89 236.823 214.217 238.239C214.544 239.655 213.034 241.216 210.844 241.72Z" fill="white" stroke="#263238" stroke-miterlimit="10"/>
<path d="M200.781 228.107L208.761 243.922C208.761 243.922 206.055 245.345 206.338 247.069L198.647 231.965C198.647 231.965 197.646 229.529 200.781 228.107Z" fill="#92E3A9" stroke="#263238" stroke-linejoin="round"/>
<path d="M199.327 233.293L205.255 244.923C205.508 244.364 205.955 243.917 206.514 243.665L199.925 232.097L199.327 233.293Z" fill="white" stroke="#263238" stroke-miterlimit="10"/>
<path d="M114.176 145.24L114.302 175.556L130.124 175.487L130.174 144.555L114.176 145.24Z" fill="#92E3A9" stroke="#263238" stroke-miterlimit="10"/>
<path d="M126.656 172.579C126.67 172.353 126.728 172.131 126.828 171.928C126.928 171.724 127.068 171.543 127.239 171.394C127.41 171.245 127.609 171.132 127.825 171.061C128.04 170.99 128.268 170.963 128.494 170.981C128.573 170.997 128.651 171.02 128.727 171.05L128.695 147.972C128.555 148.098 128.389 148.191 128.208 148.245C128.027 148.298 127.836 148.31 127.65 148.28C127.373 148.212 127.122 148.064 126.927 147.855C126.733 147.646 126.603 147.385 126.555 147.103L117.014 147.512C117.045 147.708 117.045 147.908 117.014 148.104C116.983 148.462 116.832 148.8 116.587 149.063C116.342 149.326 116.016 149.5 115.661 149.558V170.956C115.893 170.862 116.145 170.834 116.391 170.874C116.784 170.988 117.124 171.235 117.354 171.572C117.583 171.91 117.688 172.317 117.65 172.724L126.687 172.686C126.656 172.636 126.65 172.605 126.656 172.579ZM121.42 164.612C119.664 164.291 118.506 162.296 118.833 160.15C119.16 158.004 120.866 156.525 122.609 156.852C124.353 157.179 125.529 159.168 125.196 161.314C124.862 163.46 123.157 164.939 121.42 164.612Z" fill="white" stroke="#263238" stroke-miterlimit="10"/>
<path d="M262.117 16.9666L240.052 39.0316L251.569 50.5487L274.213 28.169L262.117 16.9666Z" fill="#92E3A9" stroke="#263238" stroke-miterlimit="10"/>
<path d="M251.179 45.9358C251.355 45.7788 251.56 45.6588 251.783 45.5828C252.006 45.5068 252.242 45.4764 252.477 45.4934C252.711 45.5104 252.94 45.5745 253.15 45.6819C253.36 45.7892 253.546 45.9376 253.697 46.1183C253.744 46.1896 253.784 46.2655 253.816 46.3449L270.651 29.5727C270.456 29.5626 270.266 29.5087 270.095 29.415C269.924 29.3213 269.777 29.1902 269.663 29.0315C269.512 28.7788 269.438 28.4876 269.451 28.1935C269.463 27.8995 269.561 27.6154 269.732 27.3763L262.507 20.6737C262.384 20.8382 262.238 20.9844 262.073 21.108C261.788 21.3453 261.431 21.4799 261.06 21.4902C260.689 21.5005 260.326 21.3858 260.028 21.1646L244.376 36.6466C244.611 36.744 244.813 36.9054 244.961 37.1123C245.168 37.481 245.238 37.9107 245.16 38.3261C245.082 38.7415 244.86 39.1161 244.533 39.3843L251.11 45.9673L251.179 45.9358ZM253.193 36.3193C252.148 34.8026 252.771 32.5055 254.578 31.1901C256.384 29.8748 258.7 30.051 259.738 31.5677C260.777 33.0845 260.154 35.3879 258.347 36.6969C256.541 38.006 254.213 37.8109 253.193 36.2879V36.3193Z" fill="white" stroke="#263238" stroke-miterlimit="10"/>
<path d="M110.092 109.462L140.791 97.3219L134.454 81.2986L103.056 93.5017L110.092 109.462Z" fill="#92E3A9" stroke="#263238" stroke-miterlimit="10"/>
<path d="M132.874 85.9684C131.76 86.2139 130.709 85.6663 130.527 84.7097C130.52 84.6196 130.52 84.5292 130.527 84.4391L107.121 93.615C107.306 93.7072 107.468 93.84 107.594 94.0035C107.72 94.1669 107.808 94.3568 107.851 94.559C107.891 94.8669 107.84 95.1796 107.704 95.459C107.569 95.7384 107.356 95.9724 107.09 96.1324L111.275 105.724C111.472 105.616 111.684 105.537 111.904 105.491C112.28 105.38 112.682 105.399 113.046 105.543C113.41 105.688 113.715 105.951 113.912 106.29L135.618 97.8442C135.429 97.652 135.301 97.4094 135.247 97.1456C135.197 96.7 135.308 96.2513 135.56 95.88C135.811 95.5087 136.187 95.239 136.619 95.1191L132.994 85.9621L132.874 85.9684ZM126.883 94.4583C127.254 96.3464 125.687 98.3414 123.377 98.8638C121.067 99.3861 118.902 98.2344 118.531 96.3464C118.16 94.4583 119.727 92.4696 122.037 91.9409C124.346 91.4123 126.511 92.5451 126.883 94.4583V94.4583Z" fill="white" stroke="#263238" stroke-miterlimit="10"/>
<path d="M218.447 16.8657C218.447 16.8657 220.335 17.3629 222.764 23.1592C225.193 28.9555 227.522 36.5329 227.522 36.5329C227.522 36.5329 222.122 34.2295 219.088 34.0721C215.74 33.9022 210.875 35.3308 210.875 35.3308C210.875 35.3308 208.987 15.5882 195.84 9.01146C196.755 7.95934 197.922 7.1572 199.233 6.68049C200.543 6.20377 201.953 6.06815 203.33 6.28638C208.176 7.02901 218.447 16.8657 218.447 16.8657Z" fill="#92E3A9" stroke="#263238" stroke-linejoin="round"/>
<path d="M200.586 9.67854C200.586 9.67854 209.611 18.8733 211.744 28.4331C212.067 28.5242 212.366 28.6857 212.62 28.9061C212.873 29.1265 213.074 29.4004 213.209 29.7079C213.344 30.0155 213.409 30.3491 213.399 30.6847C213.39 31.0204 213.306 31.3497 213.154 31.6491C216.304 30.9654 219.592 31.3416 222.506 32.719C222.506 32.719 223.06 31.3848 223.796 31.347C223.796 31.347 219.831 19.2509 215.615 15.5567C212.712 12.9447 209.45 10.7618 205.929 9.07436C204.395 8.37305 202.676 8.18331 201.026 8.53312C201.026 8.53312 202.606 9.91769 200.586 9.67854ZM210.454 16.0853C211.392 15.3741 213.374 16.3937 214.859 18.3698C216.345 20.346 216.81 22.5236 215.866 23.241C214.922 23.9585 212.946 22.9326 211.461 20.9565C209.976 18.9803 209.529 16.8028 210.454 16.0853Z" fill="white" stroke="#263238" stroke-miterlimit="10"/>
<path d="M219.9 18.1183C219.9 18.1183 215.734 12.5801 211.379 9.96825C208.847 8.43527 206.146 7.19986 203.33 6.28656C203.33 6.28656 205.3 6.36208 206.791 9.35149C207.641 11.0633 207.358 13.5618 207.358 13.5618C211.729 14.4937 215.95 16.0271 219.9 18.1183Z" fill="#92E3A9" stroke="#263238" stroke-linejoin="round"/>
<path d="M55.5835 1L58.6232 12.1395C58.6232 12.1395 43.4308 23.3922 20.4784 20.2392L21.7371 8.19975C21.7371 8.19975 30.7368 9.99969 38.9498 8.31304C47.1628 6.62638 55.5835 1 55.5835 1Z" fill="#92E3A9" stroke="#263238" stroke-miterlimit="10"/>
<path d="M53.8464 11.6485C53.8781 11.3746 53.9927 11.1169 54.1749 10.9099C54.3572 10.703 54.5982 10.5566 54.8659 10.4905L53.0723 5.5375C52.8106 5.62511 52.5364 5.66975 52.2604 5.66967C51.7856 5.67748 51.3206 5.53423 50.9325 5.26059C48.4151 6.58222 43.6887 8.88564 38.9749 9.86113C34.6811 10.6316 30.302 10.8095 25.9599 10.3898C25.7918 10.57 25.5848 10.7095 25.3548 10.7978C25.1247 10.8861 24.8775 10.9209 24.632 10.8996L24.0341 17.6462C24.1852 17.6462 24.3425 17.6462 24.4998 17.6462C25.7585 17.6462 26.7466 18.0238 26.7466 18.4895C26.7388 18.5642 26.7136 18.6361 26.6732 18.6995C26.6328 18.7628 26.5782 18.8159 26.5138 18.8545C41.0958 19.4084 51.3038 14.3673 54.4002 12.6051C54.2359 12.504 54.0992 12.3637 54.0025 12.1967C53.9059 12.0297 53.8522 11.8413 53.8464 11.6485V11.6485ZM39.4154 15.1665C37.1875 15.6134 35.2365 15.2358 35.054 14.3232C34.8715 13.4107 36.5267 12.3156 38.7546 11.8688C40.9825 11.4219 42.9335 11.7995 43.116 12.7121C43.2985 13.6246 41.6433 14.7197 39.4154 15.1665Z" fill="white" stroke="#263238" stroke-miterlimit="10"/>
<path d="M260.556 249.071L263.59 260.21C263.59 260.21 248.403 271.463 225.445 268.31L226.704 256.271C226.704 256.271 235.703 258.071 243.923 256.384C252.142 254.697 260.556 249.071 260.556 249.071Z" fill="#92E3A9" stroke="#263238" stroke-miterlimit="10"/>
<path d="M258.813 259.725C258.843 259.45 258.958 259.191 259.14 258.983C259.322 258.775 259.564 258.628 259.832 258.561L258.039 253.621C257.776 253.703 257.502 253.746 257.227 253.747C256.743 253.759 256.267 253.618 255.868 253.344C253.407 254.659 248.655 256.962 243.948 257.938C239.654 258.709 235.275 258.886 230.933 258.467C230.765 258.647 230.558 258.786 230.328 258.875C230.098 258.963 229.85 258.998 229.605 258.976L229.038 265.723C229.189 265.723 229.347 265.723 229.51 265.723C230.769 265.723 231.751 266.094 231.751 266.56C231.743 266.635 231.718 266.707 231.678 266.77C231.637 266.833 231.583 266.886 231.518 266.925C246.1 267.485 256.308 262.444 259.411 260.676C259.239 260.581 259.094 260.443 258.99 260.277C258.885 260.111 258.824 259.921 258.813 259.725V259.725ZM244.382 263.237C242.154 263.684 240.203 263.306 240.021 262.4C239.838 261.494 241.493 260.386 243.721 259.939C245.949 259.492 247.9 259.876 248.083 260.783C248.265 261.689 246.61 262.797 244.382 263.237Z" fill="white" stroke="#263238" stroke-miterlimit="10"/>
<path d="M101.432 15.198C101.432 15.198 113.112 11.3527 119.953 6.78992L127.222 18.7476C127.222 18.7476 109.84 32.2974 105.277 28.7353L101.432 15.198Z" fill="#92E3A9" stroke="#263238" stroke-linejoin="round"/>
<path d="M122.232 18.0491C122.248 17.7037 122.376 17.3728 122.596 17.1062C122.816 16.8395 123.117 16.6514 123.453 16.5701L120.218 11.2143C119.951 11.3068 119.67 11.3536 119.387 11.3528C119.041 11.3714 118.696 11.3054 118.381 11.1607C118.067 11.0159 117.792 10.7968 117.581 10.5221C111.545 14.745 102.288 16.91 102.288 16.91L104.138 24.1789C104.138 24.1789 103.855 28.169 108.839 27.1683C112.697 26.3942 119.966 21.5042 123.063 19.3707C122.819 19.2448 122.613 19.0558 122.467 18.8233C122.321 18.5909 122.239 18.3235 122.232 18.0491V18.0491ZM109.783 23.3985C107.599 23.8957 105.56 23.1531 105.239 21.7371C104.918 20.321 106.423 18.7602 108.606 18.2568C110.79 17.7533 112.829 18.5022 113.157 19.9245C113.484 21.3469 111.98 22.8951 109.783 23.3985Z" fill="white" stroke="#263238" stroke-miterlimit="10"/>
<path d="M99.7201 9.78598L107.7 25.6015C107.7 25.6015 104.994 27.0239 105.277 28.7483L97.5803 13.6439C97.5803 13.6439 96.5859 11.2083 99.7201 9.78598Z" fill="#92E3A9" stroke="#263238" stroke-linejoin="round"/>
<path d="M98.2665 14.9714L104.189 26.6017C104.441 26.0429 104.888 25.5953 105.447 25.343L98.8644 13.7756L98.2665 14.9714Z" fill="white" stroke="#263238" stroke-miterlimit="10"/>
<path d="M199.151 85.3458L177.086 107.411L188.603 118.922L211.253 96.5419L199.151 85.3458Z" fill="#92E3A9" stroke="#263238" stroke-miterlimit="10"/>
<path d="M188.219 114.283C188.395 114.126 188.6 114.006 188.823 113.93C189.046 113.854 189.282 113.823 189.517 113.84C189.751 113.857 189.98 113.921 190.19 114.029C190.4 114.136 190.585 114.285 190.737 114.465C190.782 114.537 190.82 114.613 190.85 114.692L207.704 97.9385C207.509 97.9303 207.32 97.8772 207.149 97.7833C206.979 97.6893 206.833 97.5572 206.722 97.3973C206.57 97.1453 206.495 96.8543 206.506 96.5603C206.518 96.2663 206.614 95.9819 206.785 95.7421L199.56 89.0521C199.438 89.2161 199.292 89.3604 199.126 89.4801C198.842 89.7194 198.485 89.8558 198.114 89.8672C197.743 89.8787 197.379 89.7644 197.08 89.543L181.428 105.019C181.663 105.119 181.866 105.282 182.014 105.491C182.221 105.859 182.291 106.289 182.213 106.704C182.135 107.12 181.913 107.495 181.586 107.763L188.131 114.339L188.219 114.283ZM190.227 104.666C189.188 103.143 189.811 100.852 191.618 99.5371C193.424 98.2217 195.734 98.398 196.772 99.9147C197.81 101.431 197.194 103.729 195.381 105.044C193.569 106.359 191.278 106.183 190.227 104.666Z" fill="white" stroke="#263238" stroke-miterlimit="10"/>
<path d="M239.486 139.18L269.638 142.326L271.274 126.593L240.53 123.201L239.486 139.18Z" fill="#92E3A9" stroke="#263238" stroke-miterlimit="10"/>
<path d="M268.008 129.721C267.785 129.683 267.572 129.601 267.38 129.48C267.189 129.359 267.024 129.201 266.895 129.015C266.765 128.829 266.674 128.62 266.626 128.398C266.579 128.177 266.576 127.949 266.617 127.726C266.644 127.648 266.678 127.572 266.718 127.499L243.766 125.039C243.877 125.192 243.952 125.368 243.986 125.554C244.02 125.741 244.011 125.932 243.961 126.115C243.866 126.379 243.696 126.61 243.473 126.779C243.249 126.949 242.982 127.05 242.702 127.071L242.073 136.619C242.272 136.612 242.471 136.633 242.664 136.682C243.018 136.753 243.337 136.94 243.572 137.214C243.807 137.487 243.944 137.832 243.961 138.192L265.214 140.527C265.145 140.289 265.145 140.035 265.214 139.797C265.365 139.415 265.646 139.098 266.007 138.903C266.369 138.707 266.787 138.645 267.19 138.727L268.121 129.74L268.008 129.721ZM259.524 134.126C259.015 135.838 256.906 136.776 254.811 136.216C252.715 135.656 251.425 133.806 251.935 132.094C252.444 130.382 254.559 129.444 256.655 130.004C258.75 130.564 260.034 132.377 259.524 134.095V134.126Z" fill="white" stroke="#263238" stroke-miterlimit="10"/>
<path d="M273.835 167.67C273.835 167.67 275.723 168.167 278.153 173.964C280.582 179.76 282.904 187.337 282.904 187.337C282.904 187.337 277.511 185.034 274.471 184.877C271.129 184.707 266.289 186.135 266.289 186.135C266.289 186.135 264.401 166.393 251.254 159.816C252.173 158.772 253.341 157.979 254.65 157.51C255.959 157.041 257.365 156.912 258.737 157.135C263.558 157.834 273.835 167.67 273.835 167.67Z" fill="#92E3A9" stroke="#263238" stroke-linejoin="round"/>
<path d="M255.968 160.477C255.968 160.477 265 169.653 267.133 179.238C267.457 179.328 267.757 179.488 268.01 179.707C268.264 179.927 268.466 180.2 268.601 180.508C268.736 180.815 268.801 181.149 268.791 181.485C268.781 181.82 268.696 182.149 268.543 182.448C271.689 181.76 274.975 182.132 277.889 183.505C277.889 183.505 278.449 182.171 279.179 182.133C279.179 182.133 275.22 170.037 270.997 166.343C268.101 163.726 264.843 161.539 261.324 159.848C259.79 159.147 258.072 158.957 256.422 159.307C256.422 159.307 257.989 160.723 255.968 160.477ZM265.837 166.884C266.781 166.173 268.757 167.193 270.242 169.169C271.727 171.145 272.193 173.322 271.249 174.04C270.305 174.757 268.329 173.732 266.844 171.755C265.358 169.779 264.911 167.608 265.837 166.891V166.884Z" fill="white" stroke="#263238" stroke-miterlimit="10"/>
<path d="M275.283 168.923C275.283 168.923 271.117 163.366 266.768 160.773C264.233 159.248 261.53 158.021 258.712 157.116C258.712 157.116 260.689 157.192 262.174 160.181C263.03 161.893 262.74 164.392 262.74 164.392C267.111 165.315 271.332 166.839 275.283 168.923V168.923Z" fill="#92E3A9" stroke="#263238" stroke-linejoin="round"/>
<path d="M259.247 94.9177C259.247 94.9177 249.058 101.809 243.721 108.065L233.444 98.5365C233.444 98.5365 246.465 80.7637 251.827 82.9475L259.247 94.9177Z" fill="#92E3A9" stroke="#263238" stroke-linejoin="round"/>
<path d="M238.479 97.8632C238.558 98.1987 238.526 98.5509 238.388 98.8666C238.249 99.1823 238.012 99.4443 237.711 99.6128L242.28 103.886C242.515 103.725 242.774 103.604 243.048 103.527C243.375 103.415 243.725 103.383 244.067 103.436C244.409 103.489 244.733 103.624 245.011 103.829C249.669 98.1213 257.982 93.5081 257.982 93.5081L254.206 87.0195C254.206 87.0195 253.388 83.105 248.863 85.4273C245.364 87.2272 239.7 93.892 237.315 96.8185C237.585 96.8717 237.835 96.9969 238.04 97.1807C238.245 97.3646 238.397 97.6004 238.479 97.8632ZM248.995 89.3167C250.959 88.2342 253.124 88.3978 253.822 89.6691C254.521 90.9404 253.495 92.8599 251.532 93.9361C249.568 95.0123 247.403 94.8549 246.698 93.5774C245.993 92.2998 247.006 90.3928 248.976 89.3167H248.995Z" fill="white" stroke="#263238" stroke-miterlimit="10"/>
<path d="M262.394 99.6569L250.399 86.623C250.399 86.623 252.614 84.5147 251.872 82.9476L263.401 95.371C263.401 95.371 265 97.429 262.394 99.6569Z" fill="#92E3A9" stroke="#263238" stroke-linejoin="round"/>
<path d="M262.356 94.2692L253.482 84.7031C253.401 85.311 253.104 85.8695 252.645 86.2765L262.086 95.5846L262.356 94.2692Z" fill="white" stroke="#263238" stroke-miterlimit="10"/>
<path d="M1 272.615H302.043" stroke="#263238" stroke-linecap="round" stroke-linejoin="round"/>
</svg>
