<svg width="24" height="29" viewBox="0 0 24 29" fill="none" xmlns="http://www.w3.org/2000/svg">
<path d="M20.3907 2.13091C19.0822 0.63943 16.7168 0 13.6908 0H4.9084C4.2893 0 3.76321 0.450259 3.66628 1.06077L0.00949297 24.253C-0.0632051 24.7103 0.290905 25.1246 0.754453 25.1246H6.17632L7.53804 16.4876L7.49583 16.7581C7.59276 16.1476 8.11494 15.6973 8.73326 15.6973H11.3097C16.3712 15.6973 20.3345 13.6414 21.4922 7.69427C21.5266 7.51839 21.5563 7.34719 21.5821 7.17991C21.4359 7.10252 21.4359 7.10252 21.5821 7.17991C21.9268 4.98177 21.5797 3.4856 20.3907 2.13091Z" fill="#27346A"/>
<path d="M9.61267 6.38805C9.75729 6.31926 9.91832 6.28096 10.0872 6.28096H16.9724C17.7877 6.28096 18.5483 6.33411 19.2432 6.44589C19.4425 6.47794 19.6356 6.51468 19.8232 6.5569C20.0108 6.59833 20.193 6.64523 20.3696 6.69682C20.458 6.72262 20.5447 6.74919 20.6299 6.77734C20.9715 6.89146 21.2897 7.02435 21.5821 7.17991C21.9268 4.98099 21.5797 3.4856 20.3907 2.13091C19.0814 0.63943 16.7168 0 13.6908 0H4.90762C4.2893 0 3.76321 0.450259 3.66628 1.06077L0.0094935 24.2522C-0.0632046 24.7103 0.290905 25.1238 0.753672 25.1238H6.17632L9.00138 7.20883C9.05923 6.84143 9.2953 6.54048 9.61267 6.38805Z" fill="#27346A"/>
<path d="M21.4925 7.69405C20.3348 13.6404 16.3715 15.6971 11.31 15.6971H8.73278C8.11445 15.6971 7.59228 16.1473 7.49613 16.7579L5.80219 27.4968C5.73887 27.8971 6.04842 28.2598 6.45334 28.2598H11.0239C11.5649 28.2598 12.0253 27.8658 12.1097 27.3319L12.1543 27.099L13.0157 21.6396L13.0712 21.3378C13.1556 20.8039 13.6161 20.41 14.157 20.41H14.841C19.2685 20.41 22.7354 18.6113 23.7484 13.4091C24.1713 11.2351 23.9525 9.42004 22.8339 8.14509C22.4946 7.75893 22.0733 7.43999 21.5824 7.17969C21.5558 7.34775 21.5269 7.51816 21.4925 7.69405Z" fill="#2790C3"/>
<path d="M20.3694 6.69711C20.1927 6.64552 20.0106 6.59862 19.823 6.55719C19.6354 6.51576 19.4415 6.47902 19.243 6.44697C18.5473 6.33441 17.7875 6.28125 16.9714 6.28125H10.0869C9.91731 6.28125 9.75628 6.31955 9.61245 6.38912C9.2943 6.54156 9.059 6.84173 9.00116 7.20991L7.53782 16.4879L7.49561 16.7584C7.59175 16.1479 8.11393 15.6976 8.73225 15.6976H11.3095C16.371 15.6976 20.3342 13.6417 21.4919 7.69456C21.5263 7.51868 21.5552 7.34827 21.5818 7.1802C21.2887 7.02543 20.9713 6.89176 20.6297 6.77841C20.5445 6.75027 20.4577 6.72291 20.3694 6.69711Z" fill="#1F264F"/>
</svg>
