<svg width="338" viewBox="0 0 338 322" fill="none" xmlns="http://www.w3.org/2000/svg">
<path d="M88.7098 10.779L89.018 11.295C89.3586 11.8708 89.8557 12.338 90.4514 12.6424L90.9889 12.9076L90.4729 13.2158C89.899 13.5565 89.4341 14.0537 89.1327 14.6492L88.8603 15.1938L88.5521 14.6778C88.2115 14.1021 87.7145 13.6348 87.1187 13.3304L86.5812 13.0652L87.0972 12.7499C87.6735 12.4099 88.1409 11.9127 88.4446 11.3165L88.7098 10.779Z" fill="#E0E0E0"/>
<path d="M164.738 50.3768L165.046 50.8929C165.387 51.4686 165.884 51.9359 166.479 52.2403L167.017 52.5054L166.501 52.8136C165.927 53.1564 165.46 53.6529 165.153 54.247L164.888 54.7845L164.58 54.2757C164.239 53.6999 163.742 53.2327 163.147 52.9283L162.609 52.6631L163.125 52.3478C163.701 52.0096 164.167 51.5117 164.465 50.9144L164.738 50.3768Z" fill="#E0E0E0"/>
<path d="M33.9758 160.397L34.284 160.913C34.6268 161.487 35.1233 161.954 35.7174 162.261L36.2621 162.526L35.7461 162.834C35.172 163.177 34.7053 163.673 34.3987 164.267L34.1335 164.812L33.8181 164.296C33.4782 163.72 32.9809 163.252 32.3847 162.949L31.8401 162.684L32.3561 162.368C32.9323 162.028 33.3997 161.531 33.7035 160.935L33.9758 160.397Z" fill="#E0E0E0"/>
<path d="M238.974 298.907L239.289 299.423C239.629 299.999 240.126 300.466 240.723 300.77L241.267 301.035L240.751 301.351C240.175 301.691 239.708 302.188 239.404 302.784L239.139 303.329L238.831 302.813C238.488 302.239 237.991 301.772 237.397 301.465L236.86 301.2L237.376 300.885C237.947 300.541 238.411 300.045 238.716 299.451L238.974 298.907Z" fill="#E0E0E0"/>
<path d="M297.334 145.268L298.051 146.393C298.812 147.659 299.918 148.681 301.24 149.339L302.423 149.92L301.298 150.636C300.032 151.397 299.01 152.504 298.352 153.826L297.771 155.008L297.091 153.883C296.331 152.616 295.224 151.593 293.901 150.937L292.719 150.357L293.851 149.676C295.114 148.914 296.134 147.808 296.79 146.487L297.334 145.268Z" fill="#E0E0E0"/>
<path d="M232.437 1.29021L233.118 2.42259C233.877 3.68776 234.984 4.70781 236.307 5.36106L237.49 5.94159L236.358 6.65829C235.094 7.41969 234.075 8.52623 233.419 9.84761L232.839 11.0302L232.122 9.90494C231.36 8.63739 230.251 7.61504 228.925 6.95931L227.786 6.30711L228.911 5.62624C230.178 4.86716 231.201 3.76018 231.857 2.43693L232.437 1.29021Z" fill="#E0E0E0"/>
<path d="M93.4835 281.763L94.1572 282.896C94.9193 284.161 96.0288 285.181 97.3537 285.834L98.5291 286.415L97.4039 287.096C96.1369 287.856 95.1165 288.966 94.4654 290.292L93.8777 291.468L93.204 290.342C92.4422 289.077 91.3327 288.057 90.0075 287.404L88.8321 286.816L89.9573 286.142C91.2212 285.379 92.2407 284.27 92.8958 282.946L93.4835 281.763Z" fill="#E0E0E0"/>
<path d="M278.02 96.5682C278.02 96.5682 272.236 99.435 264.675 103.9C255.458 109.376 236.487 120.133 224.36 111.633L213.259 89.8384C213.259 89.8384 220.383 93.1065 231.226 91.6946C240.902 90.4404 248.642 85.3447 252.125 83.0011C253.559 82.0479 255.393 80.765 256.848 79.8906C259.285 78.4572 262.209 76.3071 266.466 74.2143L278.02 96.5682Z" fill="#EBEBEB"/>
<path d="M248.489 108.686C253.328 107.838 256.598 103.428 255.793 98.8348C254.988 94.242 250.413 91.2062 245.575 92.0541C240.736 92.902 237.467 97.3126 238.271 101.905C239.076 106.498 243.651 109.534 248.489 108.686Z" fill="#F5F5F5"/>
<path d="M244.141 96.9337L243.424 95.83L244.306 95.2567L245.022 96.3389C245.837 95.8581 246.781 95.6404 247.724 95.7153L248.018 97.2347C247.278 97.1606 246.532 97.2999 245.868 97.6361L246.936 99.2845C248.083 98.919 249.408 98.5678 250.319 100.001C251 101.048 250.899 102.388 249.602 103.463L250.319 104.559L249.437 105.126L248.72 104.051C248.063 104.415 247.322 104.603 246.57 104.595L246.226 103.097C246.805 103.105 247.378 102.982 247.903 102.739L246.821 101.062C245.682 101.435 244.37 101.779 243.474 100.345C242.801 99.3347 242.879 98.0446 244.141 96.9337ZM244.786 99.3275C245.008 99.6787 245.381 99.7002 245.861 99.5999L244.979 98.2381C244.819 98.3643 244.711 98.5451 244.675 98.746C244.639 98.9468 244.679 99.1538 244.786 99.3275V99.3275ZM247.832 100.761L248.735 102.194C248.901 102.059 249.012 101.868 249.046 101.656C249.08 101.445 249.036 101.228 248.921 101.048C248.699 100.639 248.312 100.625 247.817 100.732L247.832 100.761Z" fill="#EBEBEB"/>
<path d="M225.6 111.748L225.744 111.834C226.102 112.049 234.752 116.973 250.176 109.956C255.938 107.331 261.477 104.241 266.739 100.718C270.079 98.5677 272.472 96.9838 275.138 96.2815L275.855 96.0951L265.872 75.5832L265.305 75.9845C265.141 76.0992 248.864 87.4159 241.611 90.383C235.878 92.741 224.962 96.1166 216.749 92.3539L215.172 91.6372L225.6 111.748ZM242.041 91.4867C247.28 89.3366 256.805 83.1515 262.109 79.5752C262.6 80.3341 263.348 80.8912 264.216 81.1447C265.178 81.4116 266.206 81.2933 267.083 80.8151L272.551 92.0458C272.112 92.2277 271.721 92.5077 271.406 92.8642C271.092 93.2207 270.863 93.6443 270.738 94.1027C270.513 94.9877 270.563 95.9201 270.881 96.776C269.448 97.5643 267.893 98.5534 266.094 99.7216C260.886 103.218 255.399 106.279 249.688 108.874C241.941 112.4 236.007 112.737 232.394 112.4C231.451 112.314 230.515 112.163 229.592 111.949C229.319 110.894 228.731 109.948 227.906 109.236C227.082 108.524 226.06 108.08 224.977 107.964L219.15 96.7401C219.745 96.69 220.526 96.3316 220.676 94.8266C228.374 96.2815 237.067 93.515 242.005 91.4867H242.041Z" fill="#F5F5F5"/>
<path d="M81.3636 22.3467C81.3636 22.3467 75.5798 25.2135 68.0186 29.6786C58.8019 35.147 39.8308 45.9118 27.7043 37.4117L16.6026 15.6241C16.6026 15.6241 23.7266 18.885 34.5702 17.4803C44.2457 16.2261 51.9861 11.1304 55.4692 8.77958C56.9026 7.83353 58.7374 6.54347 60.1923 5.6691C62.6291 4.2357 65.5532 2.0856 69.8104 0L81.3636 22.3467Z" fill="#EBEBEB"/>
<path d="M51.8346 34.4496C56.6731 33.6016 59.9429 29.1911 59.138 24.5983C58.3332 20.0055 53.7584 16.9697 48.9199 17.8176C44.0815 18.6655 40.8117 23.0761 41.6166 27.6689C42.4214 32.2617 46.9962 35.2975 51.8346 34.4496Z" fill="#F5F5F5"/>
<path d="M47.4852 22.7122L46.7685 21.6013L47.65 21.0351L48.3667 22.1173C49.1806 21.6335 50.1251 21.4155 51.0687 21.4938L51.3625 23.0132C50.623 22.94 49.8779 23.0767 49.2124 23.4074L50.2803 25.0629C51.427 24.6974 52.7529 24.3462 53.6631 25.7796C54.0225 26.3338 54.1489 27.0074 54.0147 27.6542C53.8805 28.3009 53.4966 28.8687 52.9464 29.2341L53.6631 30.3307L52.7816 30.9041L52.0649 29.8218C51.408 30.1886 50.6671 30.3788 49.9148 30.3737L49.5708 28.8758C50.1492 28.8797 50.7215 28.7574 51.2478 28.5174L50.1656 26.8404C49.0261 27.2131 47.7145 27.5571 46.8186 26.1237C46.1234 25.1131 46.2238 23.7872 47.4852 22.7122ZM48.1302 25.106C48.3524 25.45 48.7251 25.4786 49.2052 25.3783L48.3237 24.0166C48.1634 24.1428 48.0551 24.3235 48.0194 24.5244C47.9837 24.7253 48.0232 24.9323 48.1302 25.106V25.106ZM51.1762 26.5394L52.0792 27.9728C52.2445 27.8355 52.3545 27.6429 52.3888 27.4308C52.423 27.2186 52.3793 27.0012 52.2656 26.8189C52.0434 26.4175 51.6564 26.3745 51.1762 26.5107V26.5394Z" fill="#EBEBEB"/>
<path d="M28.909 37.5266L29.0524 37.6126C29.4107 37.8276 38.0613 42.7513 53.4847 35.7348C59.2553 33.108 64.804 30.0185 70.0763 26.4966C73.4161 24.3465 75.8099 22.7626 78.476 22.0602L79.1927 21.8739L69.1589 1.36189L68.5927 1.76325C68.4279 1.87792 52.1588 13.1874 44.8986 16.1618C39.165 18.5197 28.2497 21.8954 20.0363 18.1327L18.4595 17.416L28.909 37.5266ZM45.3501 17.2655C50.5892 15.1154 60.1142 8.93025 65.4177 5.35391C65.9291 6.15151 66.7255 6.72393 67.6445 6.95435C68.5635 7.18476 69.5358 7.05581 70.363 6.59381L75.8314 17.8245C75.3918 18.0055 74.9997 18.2852 74.6853 18.6418C74.3709 18.9985 74.1426 19.4226 74.0182 19.8814C73.7929 20.764 73.8429 21.6943 74.1615 22.5476C72.7281 23.3431 71.1728 24.3321 69.3739 25.5004C64.1731 28.9955 58.6933 32.0566 52.9902 34.6526C45.2426 38.1788 39.3084 38.5156 35.6747 38.1716C34.7316 38.0875 33.7953 37.939 32.8724 37.7273C32.6003 36.6714 32.0127 35.7237 31.1881 35.0104C30.3634 34.2972 29.3409 33.8523 28.2568 33.7352L22.4516 22.5117C23.0464 22.4687 23.8276 22.1104 23.9781 20.5981C31.7185 22.0745 40.3906 19.2937 45.3501 17.2655Z" fill="#F5F5F5"/>
<path d="M287.143 269.443C287.143 269.443 281.359 272.31 273.798 276.775C264.588 282.236 245.61 292.987 233.483 284.508L222.382 262.714C222.382 262.714 229.506 265.982 240.349 264.577C250.025 263.316 257.765 258.22 261.248 255.876C262.682 254.923 264.516 253.64 265.971 252.766C268.408 251.332 271.332 249.182 275.589 247.089L287.143 269.443Z" fill="#EBEBEB"/>
<path d="M247.395 274.776C246.592 270.182 249.86 265.774 254.698 264.921C259.536 264.068 264.108 267.114 264.911 271.708C265.714 276.302 262.445 280.71 257.608 281.556C252.77 282.401 248.197 279.37 247.395 274.776Z" fill="#F5F5F5"/>
<path d="M253.264 269.809L252.548 268.705L253.429 268.139L254.146 269.214C254.961 268.733 255.905 268.516 256.848 268.591L257.142 270.11C256.402 270.04 255.657 270.179 254.992 270.511L256.06 272.16C257.206 271.794 258.539 271.443 259.45 272.876C260.123 273.93 260.023 275.263 258.733 276.338L259.45 277.435L258.568 278.001L257.851 276.926C257.193 277.289 256.453 277.477 255.701 277.47L255.357 275.973C255.935 275.98 256.508 275.86 257.034 275.621L255.952 273.937C254.812 274.31 253.501 274.654 252.605 273.22C251.903 272.203 252.003 270.891 253.264 269.809ZM253.909 272.21C254.132 272.554 254.511 272.575 254.984 272.482L254.103 271.113C253.946 271.242 253.841 271.423 253.806 271.622C253.77 271.822 253.807 272.028 253.909 272.203V272.21ZM256.955 273.643L257.866 275.041C258.029 274.904 258.138 274.712 258.171 274.501C258.203 274.29 258.159 274.075 258.045 273.894C257.851 273.521 257.436 273.5 256.955 273.636V273.643Z" fill="#EBEBEB"/>
<path d="M234.688 284.623L234.831 284.709C235.197 284.924 243.84 289.848 259.263 282.838C265.026 280.21 270.565 277.118 275.826 273.593C279.166 271.443 281.56 269.859 284.226 269.157L284.943 268.97L274.959 248.466L274.386 248.86C274.221 248.974 257.952 260.291 250.692 263.258C244.958 265.616 234.043 268.992 225.829 265.229L224.26 264.512L234.688 284.623ZM251.129 264.362C256.368 262.212 265.893 256.027 271.196 252.45C271.708 253.248 272.504 253.82 273.423 254.051C274.342 254.281 275.315 254.152 276.142 253.69L281.61 264.921C281.172 265.104 280.781 265.385 280.467 265.741C280.153 266.097 279.924 266.52 279.797 266.978C279.574 267.864 279.626 268.796 279.947 269.651C278.514 270.447 276.952 271.436 275.16 272.597C269.947 276.091 264.458 279.155 258.747 281.756C251 285.275 245.066 285.612 241.453 285.275C240.512 285.189 239.578 285.038 238.658 284.824C238.383 283.77 237.794 282.825 236.97 282.113C236.146 281.402 235.125 280.957 234.043 280.839L228.216 269.615C228.811 269.572 229.585 269.214 229.735 267.702C237.504 269.157 246.169 266.397 251.129 264.362Z" fill="#F5F5F5"/>
<path d="M71.1298 202.11C71.1298 202.11 65.3532 204.976 57.792 209.441C48.5752 214.91 29.6042 225.675 17.4776 217.175L6.37592 195.38C6.37592 195.38 13.4999 198.648 24.3436 197.236C34.0119 195.982 41.7594 190.886 45.2426 188.535C46.676 187.589 48.5036 186.299 49.9656 185.432C52.4024 183.999 55.3194 181.848 59.5837 179.756L71.1298 202.11Z" fill="#EBEBEB"/>
<path d="M31.374 207.442C30.5713 202.848 33.8394 198.433 38.6771 197.587C43.5149 196.741 48.0874 199.773 48.8973 204.367C49.7072 208.961 46.4247 213.376 41.6013 214.222C36.7779 215.067 32.191 212.036 31.374 207.442Z" fill="#F5F5F5"/>
<path d="M37.2511 202.475L36.5344 201.364L37.416 200.798L38.1327 201.88C38.9478 201.399 39.8913 201.181 40.8346 201.256L41.1213 202.776C40.3818 202.702 39.6364 202.839 38.9712 203.17L40.0104 204.833C41.1643 204.467 42.4902 204.116 43.4004 205.549C44.0741 206.596 43.9738 207.936 42.6837 209.011L43.4004 210.108L42.5189 210.674L41.8022 209.592C41.1461 209.961 40.4047 210.151 39.6521 210.144L39.3152 208.646C39.8936 208.65 40.466 208.527 40.9923 208.287L39.9101 206.61C38.7634 206.983 37.459 207.327 36.5559 205.893C35.8966 204.876 35.9897 203.55 37.2511 202.475ZM37.8961 204.869C38.1255 205.213 38.4982 205.241 38.9712 205.141L38.0968 203.779C37.9367 203.905 37.8279 204.086 37.791 204.286C37.7541 204.487 37.7914 204.694 37.8961 204.869V204.869ZM40.9493 206.302L41.8523 207.735C42.0192 207.599 42.1297 207.406 42.1628 207.193C42.1958 206.98 42.1491 206.762 42.0315 206.582C41.8093 206.18 41.408 206.166 40.9493 206.266V206.302Z" fill="#EBEBEB"/>
<path d="M18.6741 217.289L18.8246 217.375C19.1829 217.59 27.8335 222.514 43.2569 215.497C49.0189 212.874 54.5581 209.787 59.8198 206.266C63.1597 204.116 65.5534 202.532 68.2196 201.83L68.9363 201.644L58.9311 181.125L58.3649 181.526C58.2001 181.641 41.9238 192.95 34.6708 195.924C28.9372 198.282 18.0219 201.658 9.80851 197.895L8.23177 197.179L18.6741 217.289ZM35.1224 197.028C40.3614 194.878 49.8864 188.693 55.19 185.117C55.7026 185.915 56.5003 186.487 57.4205 186.718C58.3407 186.948 59.3141 186.819 60.1424 186.356L65.6036 197.587C65.165 197.769 64.7741 198.048 64.4609 198.405C64.1477 198.762 63.9208 199.186 63.7975 199.644C63.5689 200.529 63.6189 201.462 63.9409 202.317C62.5075 203.106 60.9522 204.095 59.1533 205.263C53.9456 208.759 48.4586 211.82 42.748 214.415C35.0005 217.941 29.0662 218.278 25.4469 217.941C24.506 217.855 23.5721 217.704 22.6518 217.49C22.3778 216.435 21.7897 215.488 20.9654 214.775C20.1411 214.062 19.1196 213.617 18.0362 213.498L12.2095 202.274C12.8043 202.231 13.5783 201.873 13.736 200.361C21.4907 201.823 30.1556 199.056 35.1224 197.028V197.028Z" fill="#F5F5F5"/>
<path d="M249.488 205.686C249.488 205.686 260.561 192.706 282.327 201.063C283.151 201.387 284.006 201.627 284.878 201.78C287.359 202.27 289.925 202.087 292.311 201.25C296.546 199.544 302.581 197.057 302.581 197.057L321.215 208.094C321.215 208.094 313.396 213.828 305.828 214.272C298.259 214.716 289.343 208.538 280.628 210.688C276.215 211.645 272.208 213.949 269.161 217.282L249.488 205.686Z" fill="#EBEBEB"/>
<path d="M294.403 208.545C293.564 209.262 288.519 208.603 283.129 207.005C277.74 205.406 274.041 203.5 274.88 202.747C275.718 201.995 280.771 202.683 286.161 204.288C291.55 205.894 295.27 207.793 294.403 208.545Z" fill="#F5F5F5"/>
<path d="M286.913 207.083L287.257 207.449L286.125 207.198L285.788 206.847C284.75 206.611 283.726 206.316 282.721 205.965L282.971 205.707C283.763 205.991 284.569 206.23 285.387 206.424L284.878 205.886C283.538 205.521 282.011 205.091 281.581 204.625C281.251 204.288 281.846 204.181 283.581 204.517L283.244 204.159L284.376 204.41L284.713 204.761C285.58 204.969 286.469 205.213 287.2 205.478L287.006 205.75C286.34 205.528 285.702 205.349 285.114 205.205L285.638 205.75C286.971 206.116 288.504 206.539 288.906 206.99C289.221 207.313 288.669 207.413 286.913 207.083ZM284.426 205.406L283.989 204.947C283.43 204.854 283.272 204.897 283.38 205.005C283.702 205.2 284.056 205.336 284.426 205.406V205.406ZM287.114 206.617C286.799 206.424 286.452 206.288 286.089 206.216L286.512 206.66C287.042 206.746 287.236 206.718 287.114 206.617Z" fill="#EBEBEB"/>
<path d="M302.33 198.383L302.129 198.483C298.628 200.205 294.98 201.611 291.228 202.683C288.626 203.342 287.408 203.134 285.186 202.747C284.756 202.676 284.29 202.59 283.753 202.511C282.455 202.241 281.176 201.884 279.926 201.443C277.109 200.533 273.604 199.408 270.1 199.293H270.035C269.935 199.293 260.281 198.469 252.455 204.768L251.982 205.141L268.738 215.282L268.967 215.075C269.06 214.989 278.048 206.868 290.196 209.929C291.629 210.287 292.97 210.645 294.224 210.975C304.071 213.577 309.009 214.881 318.9 208.94L319.509 208.574L302.33 198.383ZM294.446 210.129C293.192 209.793 291.852 209.413 290.411 209.076C282.147 206.997 275.303 209.907 271.54 212.179C270.705 211.663 269.725 211.433 268.747 211.524C267.77 211.614 266.848 212.02 266.122 212.681L256.325 206.747C258.217 205.098 257.113 203.672 256.468 203.084C260.636 200.918 265.3 199.887 269.992 200.096C273.432 200.196 276.908 201.307 279.696 202.203C280.988 202.661 282.31 203.027 283.652 203.299L285.086 203.536C287.343 203.93 288.705 204.166 291.479 203.464C294.279 202.692 297.017 201.712 299.671 200.533C300.387 201.142 302.215 202.289 304.96 200.913L314.958 206.825C314.241 207.184 313.087 208.101 314.872 210.115C307.511 213.591 302.767 212.344 294.403 210.144L294.446 210.129Z" fill="#F5F5F5"/>
<path d="M80.8264 113.016C80.8264 113.016 80.6473 95.9519 102.55 87.932C103.386 87.6367 104.191 87.2573 104.951 86.7996C107.143 85.558 108.961 83.7481 110.211 81.5605C112.29 77.4897 115.228 71.6557 115.228 71.6557L136.536 67.721C136.536 67.721 134.385 77.16 128.996 82.4922C123.606 87.8245 112.777 89.0214 107.631 96.3245C104.938 99.9478 103.435 104.318 103.331 108.831L80.8264 113.016Z" fill="#EBEBEB"/>
<path d="M116.604 85.6385C116.468 86.7565 112.204 89.5517 107.086 91.8881C101.969 94.2246 97.9414 95.2136 98.0775 94.0956C98.2137 92.9775 102.478 90.1752 107.595 87.8459C112.713 85.5167 116.74 84.5204 116.604 85.6385Z" fill="#F5F5F5"/>
<path d="M109.975 89.4799L110.476 89.53L109.458 90.0819L108.971 90.0389C108.039 90.5389 107.082 90.991 106.104 91.3935V91.0351C106.884 90.724 107.647 90.3724 108.391 89.9816L107.674 89.9099C106.42 90.5191 104.993 91.1928 104.363 91.1283C103.89 91.0853 104.27 90.6194 105.796 89.7307L105.302 89.6877L106.319 89.1287L106.8 89.1717C107.595 88.756 108.426 88.3618 109.143 88.068V88.3976C108.491 88.67 107.889 88.9567 107.351 89.229L108.104 89.3007C109.351 88.6987 110.756 88.0321 111.386 88.0895C111.867 88.1396 111.494 88.5983 109.975 89.4799ZM107 89.8454L106.37 89.788C105.882 90.0891 105.796 90.2181 105.947 90.2324C106.317 90.1648 106.674 90.0339 107 89.8454V89.8454ZM109.817 88.9925C109.452 89.0568 109.1 89.1828 108.778 89.3652L109.394 89.4225C109.853 89.143 109.96 89.0068 109.817 88.9925Z" fill="#EBEBEB"/>
<path d="M115.894 72.8026L115.808 73.0104C114.289 76.599 112.454 80.0455 110.326 83.3094C108.799 85.5168 107.738 86.1762 105.81 87.3301L104.585 88.0468C103.43 88.6955 102.233 89.2653 101.001 89.7525C98.2778 90.9207 94.9021 92.3756 92.1858 94.5974L92.1213 94.6476C92.0425 94.7049 84.2376 100.431 82.4602 110.322L82.3527 110.917L101.61 107.591L101.646 107.276C101.646 107.154 103.08 95.1278 114.267 89.4515C115.593 88.7778 116.833 88.1686 117.994 87.5953C127.154 83.0872 131.712 80.8439 135.295 69.8498L135.518 69.1832L115.894 72.8026ZM117.65 86.8427C116.489 87.4161 115.242 88.0324 113.923 88.7061C106.326 92.5692 103.073 99.256 101.739 103.441C100.771 103.6 99.8804 104.07 99.2027 104.78C98.5251 105.49 98.0972 106.401 97.984 107.376L86.6959 109.34C87.0399 106.86 85.2625 106.509 84.4025 106.473C86.1178 102.102 88.9558 98.2599 92.6302 95.3356C95.2892 93.1497 98.6361 91.7019 101.331 90.5481C102.606 90.0446 103.844 89.4531 105.036 88.7778C105.481 88.4983 105.882 88.2546 106.255 88.0611C108.211 86.8714 109.394 86.1547 111.021 83.8039C112.644 81.3763 114.081 78.8296 115.321 76.1854C116.245 76.1854 118.396 75.8342 119.557 72.9961L130.995 70.8746C130.665 71.5913 130.422 73.0247 133.088 73.4118C129.777 80.8439 125.383 83.0299 117.65 86.8427Z" fill="#F5F5F5"/>
<path d="M239.497 38.8095C239.497 38.8095 249.968 25.314 272.085 32.6244C272.924 32.9075 273.788 33.1091 274.665 33.2264C277.165 33.6013 279.72 33.2968 282.062 32.3448C286.211 30.4384 292.095 27.6648 292.095 27.6648L311.253 37.7989C311.253 37.7989 303.713 43.8622 296.202 44.7079C288.691 45.5536 279.431 39.7699 270.867 42.2998C266.499 43.4756 262.604 45.9802 259.722 49.4668L239.497 38.8095Z" fill="#EBEBEB"/>
<path d="M284.534 39.5118C283.731 40.3001 278.65 39.8558 273.188 38.5155C267.727 37.1753 263.95 35.4481 264.753 34.6597C265.555 33.8713 270.63 34.3157 276.091 35.6559C281.552 36.9961 285.336 38.7234 284.534 39.5118Z" fill="#F5F5F5"/>
<path d="M276.952 38.415L277.31 38.759L276.17 38.5583L275.819 38.2215C274.769 38.0433 273.731 37.804 272.709 37.5048L272.945 37.2396C273.662 37.4475 274.551 37.6696 275.396 37.8345L274.859 37.3185C273.504 37.0174 271.992 36.6663 271.505 36.2219C271.161 35.8994 271.748 35.7632 273.504 36.0212L273.146 35.6772L274.285 35.8707L274.637 36.2076C275.518 36.3724 276.414 36.5731 277.159 36.7881L276.98 37.0748C276.307 36.8813 275.654 36.7308 275.067 36.6161L275.611 37.1393C276.966 37.4331 278.478 37.7843 278.93 38.2215C279.266 38.5583 278.686 38.6659 276.952 38.415ZM274.386 36.8598L273.927 36.4226C273.361 36.3581 273.21 36.4226 273.318 36.5086C273.652 36.6848 274.013 36.8035 274.386 36.8598V36.8598ZM277.131 37.9348C276.804 37.76 276.45 37.6413 276.084 37.5836L276.529 38.0065C277.066 38.071 277.202 38.0352 277.131 37.9348Z" fill="#EBEBEB"/>
<path d="M291.93 29.005L291.737 29.1125C288.32 30.984 284.744 32.5501 281.051 33.7926C278.478 34.5738 277.252 34.4233 275.016 34.1437L273.583 33.9717C272.272 33.7663 270.976 33.4717 269.705 33.0902C266.839 32.3162 263.291 31.363 259.786 31.4203H259.7C259.6 31.4203 249.925 31.0619 242.399 37.7272L241.955 38.1214L259.156 47.4385L259.378 47.2164C259.464 47.1304 268.057 38.616 280.334 41.0599C281.768 41.3538 283.144 41.6404 284.412 41.9128C294.367 44.0629 299.363 45.1093 308.959 38.702L309.547 38.3078L291.93 29.005ZM284.606 41.1101C283.337 40.8377 281.983 40.5439 280.528 40.25C272.185 38.5586 265.47 41.8053 261.822 44.2922C260.966 43.8077 259.975 43.6155 259 43.7448C258.025 43.8742 257.118 44.318 256.418 45.0089L246.384 39.5477C248.19 37.8133 247.015 36.4444 246.348 35.8853C250.408 33.523 255.018 32.2699 259.715 32.2517C263.155 32.1872 266.674 33.126 269.505 33.8929C270.818 34.287 272.157 34.5911 273.511 34.8031L274.945 34.968C277.068 35.3886 279.264 35.2579 281.323 34.5881C284.091 33.6906 286.786 32.5836 289.386 31.2769C290.103 31.8431 292.016 32.9039 294.69 31.4059L304.953 36.8314C304.236 37.2184 303.154 38.1931 305.024 40.121C297.829 43.9339 293.041 42.909 284.606 41.1101Z" fill="#F5F5F5"/>
<path d="M323.645 321.498C323.645 321.598 255.995 321.684 172.571 321.684C89.1476 321.684 21.4839 321.598 21.4839 321.498C21.4839 321.397 89.1189 321.311 172.571 321.311C256.024 321.311 323.645 321.397 323.645 321.498Z" fill="#263238"/>
<path d="M309.633 168.589L310.085 169.342C310.598 170.189 311.345 170.871 312.235 171.306L313.023 171.693L312.271 172.144C311.423 172.658 310.742 173.404 310.307 174.294L309.92 175.083L309.468 174.366C308.955 173.519 308.209 172.837 307.318 172.402L306.53 172.015L307.283 171.564C308.13 171.05 308.812 170.304 309.246 169.414L309.633 168.589Z" fill="#92E3A9"/>
<path d="M91.1902 308.676L91.6274 309.392C92.1198 310.211 92.8359 310.873 93.6915 311.299L94.4584 311.671L93.7417 312.109C92.9242 312.604 92.2652 313.323 91.8424 314.18L91.4625 314.94L91.0254 314.223C90.5319 313.406 89.8159 312.748 88.9613 312.324L88.1944 311.944L88.9111 311.507C89.7277 311.011 90.3884 310.296 90.8175 309.443L91.1902 308.676Z" fill="#92E3A9"/>
<path d="M47.2352 70.0073L48.0236 71.3189C48.9092 72.7896 50.1975 73.9759 51.7361 74.7375L53.105 75.4542L51.8006 76.2426C50.3267 77.1244 49.1395 78.4137 48.3819 79.9551L47.6652 81.324L46.8769 80.0124C46.0103 78.5267 44.7338 77.3223 43.2002 76.5436L41.8313 75.8269L43.1428 75.0385C44.6116 74.1536 45.7975 72.8683 46.5615 71.3332L47.2352 70.0073Z" fill="#92E3A9"/>
<path d="M205.533 24.1312L206.322 25.4428C207.205 26.9151 208.494 28.1019 210.034 28.8614L211.403 29.5781L210.091 30.3665C208.619 31.2502 207.432 32.539 206.673 34.079L205.999 35.4479L205.211 34.1364C204.33 32.6513 203.041 31.4499 201.498 30.6747L200.122 29.958L201.434 29.1696C202.906 28.2859 204.093 26.9971 204.852 25.4571L205.533 24.1312Z" fill="#92E3A9"/>
<path d="M325.222 139.205L325.53 139.714C325.871 140.289 326.368 140.757 326.963 141.061L327.501 141.326L326.985 141.641C326.409 141.981 325.941 142.479 325.638 143.075L325.372 143.62L325.064 143.104C324.724 142.528 324.227 142.061 323.631 141.756L323.093 141.491L323.609 141.183C324.183 140.84 324.65 140.344 324.957 139.749L325.222 139.205Z" fill="#92E3A9"/>
<path d="M61.2539 136.223L61.5764 136.753C61.932 137.354 62.4551 137.837 63.0814 138.144L63.6405 138.416L63.1029 138.739C62.5076 139.098 62.0276 139.62 61.7197 140.244L61.4402 140.803L61.1249 140.265C60.7656 139.67 60.2433 139.19 59.6198 138.882L59.0608 138.61L59.5911 138.287C60.1912 137.932 60.6744 137.408 60.9815 136.782L61.2539 136.223Z" fill="#92E3A9"/>
<path d="M115.881 43.0451L116.204 43.5755C116.565 44.1712 117.086 44.6531 117.709 44.9659L118.261 45.2382L117.73 45.5607C117.135 45.9201 116.655 46.4423 116.347 47.0658L116.067 47.6177L115.752 47.0873C115.387 46.4994 114.863 46.0272 114.24 45.7256L113.688 45.4461L114.218 45.1307C114.82 44.7552 115.303 44.2157 115.609 43.5755L115.881 43.0451Z" fill="#92E3A9"/>
<path d="M240.213 208.653C240.213 209.42 244.836 229.824 244.836 229.824C244.836 229.824 254.461 223.281 258.116 220.199C261.772 217.117 279.481 200.762 279.481 200.762L290.103 210.566C290.103 210.566 254.984 258.334 242.55 261.208C236.164 262.678 229.083 257.854 227.707 254.443C224.603 246.831 219.866 214.394 219.866 214.394L226.754 211.348L240.213 208.653Z" fill="#BA7E6D"/>
<path d="M245.245 229.867C244.5 229.988 243.768 230.18 243.059 230.441C241.401 231.193 240.007 232.426 239.06 233.981C238.139 235.562 237.442 237.262 236.989 239.034C236.817 239.78 236.592 240.513 236.315 241.227C236.378 240.461 236.515 239.702 236.723 238.962C237.108 237.135 237.785 235.383 238.73 233.773C239.716 232.154 241.199 230.897 242.959 230.19C243.492 229.99 244.053 229.872 244.621 229.839C244.829 229.81 245.041 229.82 245.245 229.867V229.867Z" fill="#875149"/>
<path d="M276.671 203.357C276.671 203.357 286.347 192.52 290.253 192.828C294.159 193.137 299.771 193.982 301.333 193.717C303.306 193.579 305.287 193.579 307.26 193.717C307.26 193.717 317.402 188.227 319.272 188.657C319.272 188.657 321.014 188.564 321.616 189.553C321.616 189.553 325.472 187.109 328.252 188.628L318.147 197.05L321.229 196.663C321.229 196.663 330.309 191.861 333.183 195.165L326.324 198.849C326.324 198.849 332.022 198.763 332.882 201.078L320.118 203.127C320.118 203.127 295.865 205.156 294.582 205.715C293.299 206.274 288.167 212.882 288.167 212.882L276.671 203.357Z" fill="#BA7E6D"/>
<path d="M321.753 189.603C321.575 189.826 321.371 190.026 321.144 190.198C320.735 190.556 320.133 191.065 319.359 191.631C317.35 193.189 315.24 194.613 313.045 195.896C311.82 196.613 310.658 197.265 309.526 197.788C308.516 198.327 307.346 198.484 306.229 198.232L306.408 198.132C306.271 198.557 306.037 198.945 305.723 199.263C305.409 199.582 305.026 199.823 304.602 199.967C304.371 200.045 304.13 200.089 303.886 200.096C303.721 200.096 303.642 200.096 303.642 200.096C303.943 200.03 304.24 199.947 304.531 199.845C304.908 199.685 305.246 199.445 305.519 199.14C305.793 198.835 305.996 198.474 306.115 198.082L306.158 197.938L306.294 197.981C307.343 198.182 308.428 198.006 309.361 197.487C310.451 196.964 311.626 196.29 312.83 195.588C315.389 194.097 317.603 192.578 319.18 191.438L321.036 190.076C321.256 189.892 321.497 189.733 321.753 189.603V189.603Z" fill="#875149"/>
<path d="M318.148 197.243C317.764 197.673 317.305 198.03 316.793 198.297C315.607 199.019 314.301 199.524 312.937 199.787C312.135 199.945 311.361 199.974 310.694 200.096C310.106 200.21 309.538 200.413 309.01 200.698C308.52 201.016 307.946 201.181 307.361 201.171C307.883 200.965 308.391 200.726 308.881 200.454C309.42 200.119 310.011 199.876 310.63 199.737C311.346 199.587 312.063 199.551 312.859 199.393C314.726 198.966 316.512 198.24 318.148 197.243Z" fill="#875149"/>
<path d="M326.855 198.125C326.453 198.545 325.989 198.903 325.479 199.185C323.089 200.675 320.346 201.503 317.531 201.586C316.95 201.634 316.365 201.593 315.797 201.464C317.734 201.347 319.654 201.037 321.53 200.54C324.648 199.622 326.784 198.01 326.855 198.125Z" fill="#875149"/>
<path d="M131.584 266.469C121.113 282.767 108.958 303.157 101.554 321.526H227.693L212.643 266.469H131.584Z" fill="#263238"/>
<path d="M53.4773 206.847C53.4773 206.847 62.3859 219.912 65.4104 223.331C68.4348 226.75 81.1778 245.026 87.8072 252.343C94.4367 259.661 101.668 263.688 106.348 263.688C111.15 263.688 116.009 262.047 119.822 253.096C125.326 240.195 129.964 202.21 129.964 202.21L108.463 194.326L100.651 233.659C98.5506 231.566 65.4175 200.69 65.4175 200.69L57.8205 203.844L53.4773 206.847Z" fill="#BA7E6D"/>
<path d="M25.8414 190.75C25.8414 190.75 26.3503 189.84 29.1813 190.248C32.0122 190.657 36.979 193.588 38.0899 193.588C39.2007 193.588 51.6498 193.989 54.0794 194.599C56.509 195.208 60.2861 195.573 62.5078 197.895L66.0913 201.092L54.0723 207.7C53.623 207.101 53.0441 206.611 52.3789 206.267C51.7137 205.923 50.9793 205.734 50.2307 205.715C47.5001 205.55 34.9579 204.919 34.9579 204.919L25.2394 202.683L12.8907 196.713C13.1713 196.04 13.6803 195.488 14.3279 195.154C14.9755 194.82 15.7203 194.724 16.4312 194.885C18.9611 195.494 23.72 197.215 23.72 197.215L27.8697 198.483L16.94 193.265C17.6476 192.542 18.546 192.035 19.5306 191.803C20.5152 191.571 21.5456 191.623 22.5016 191.954C25.9418 193.065 31.8187 195.695 31.8187 195.695L32.6286 195.394L25.8414 190.75Z" fill="#BA7E6D"/>
<path d="M39.5018 197.938C38.2386 198.036 36.9705 197.83 35.8036 197.336C34.5933 196.955 33.4922 196.289 32.5928 195.394C32.6573 195.301 34.0262 196.297 35.9254 196.992C37.8247 197.688 39.5089 197.831 39.5018 197.938Z" fill="#875149"/>
<path d="M37.2155 201.07C36.6883 201.199 36.1434 201.24 35.6029 201.192C32.9736 201.128 30.4136 200.336 28.2065 198.906C27.734 198.637 27.3061 198.296 26.938 197.895C28.49 198.839 30.1382 199.615 31.8545 200.21C33.6057 200.687 35.4029 200.976 37.2155 201.07Z" fill="#875149"/>
<path d="M15.5496 198.024C15.1216 198.229 14.763 198.554 14.5184 198.961C14.2738 199.367 14.1539 199.837 14.1735 200.311C18.2781 201.653 22.4949 202.624 26.7731 203.213" fill="#875149"/>
<path d="M108.234 250.25C108.155 250.25 108.305 249.161 108.191 247.384C108.124 246.365 107.972 245.353 107.739 244.359C107.441 243.147 107.033 241.964 106.521 240.826C105.992 239.694 105.358 238.614 104.629 237.601C104.027 236.775 103.358 236.001 102.629 235.286C101.375 234.067 100.479 233.472 100.479 233.415C100.717 233.514 100.941 233.644 101.145 233.802C101.398 233.96 101.637 234.137 101.862 234.332C102.134 234.555 102.464 234.791 102.779 235.099C103.546 235.801 104.246 236.571 104.872 237.4C106.411 239.441 107.492 241.79 108.04 244.287C108.261 245.303 108.388 246.337 108.42 247.376C108.442 247.773 108.442 248.17 108.42 248.566C108.416 248.866 108.39 249.166 108.341 249.462C108.338 249.728 108.302 249.993 108.234 250.25V250.25Z" fill="#875149"/>
<path d="M128.788 156.233C125.814 158.068 118.941 163.637 111.831 178.688C102.364 198.705 99.9054 211.197 99.9054 211.197L125.069 220.185L132.694 154.349C132.694 154.349 129.77 155.631 128.788 156.233Z" fill="#455A64"/>
<path d="M123.328 177.204C123.328 177.204 123.922 198.447 123.922 204.217C123.922 209.986 126.503 253.375 126.503 253.375C126.503 253.375 126.503 267.652 135.368 267.43C144.234 267.207 159.392 268.928 165.391 268.928C169.813 268.928 194.947 269.221 208.178 268.039C214.449 267.48 216.864 264.42 218.799 259.438C219.057 258.765 218.9 259.159 219.057 258.765C222.849 249.448 219.917 209.578 219.917 209.578L215.223 173.535L204.53 152.27L143.961 152.077C124.546 153.41 124.546 161.38 123.328 177.204Z" fill="#455A64"/>
<path d="M229.85 169.715C219.874 153.159 204.529 152.299 204.529 152.299L213.588 226.957L220.755 224.965C221.286 224.786 247.631 214.279 247.631 214.279C247.631 214.279 235.985 179.877 229.85 169.715Z" fill="#455A64"/>
<path d="M212.075 175.047C212.075 175.047 212.111 175.09 212.169 175.19C212.226 175.291 212.305 175.455 212.391 175.635C212.577 176.022 212.878 176.595 213.215 177.355C213.932 178.86 214.82 181.089 215.774 183.898C218.182 191.252 219.736 198.858 220.403 206.567C221.069 214.265 221.308 221.993 221.12 229.717C221.07 232.677 220.998 235.071 220.941 236.726C220.941 237.529 220.884 238.16 220.869 238.633C220.869 238.833 220.869 238.998 220.869 239.134C220.876 239.189 220.876 239.244 220.869 239.299C220.863 239.242 220.863 239.184 220.869 239.127V238.633C220.869 238.167 220.869 237.529 220.869 236.726C220.869 235.035 220.869 232.648 220.927 229.71C221.044 221.999 220.773 214.287 220.117 206.603C219.448 198.919 217.936 191.331 215.609 183.977C214.691 181.168 213.817 178.96 213.165 177.412C212.857 176.645 212.577 176.065 212.448 175.663L212.255 175.205C212.19 175.158 212.13 175.105 212.075 175.047Z" fill="#263238"/>
<g opacity="0.3">
<path d="M168.02 224.356C171.207 221.164 175.094 218.759 179.373 217.332C185.035 215.505 201.806 212.007 206.256 210.373C211.164 208.563 215.635 205.74 219.379 202.088L239.067 218.257C235.648 221.323 231.892 223.992 227.872 226.212C221.536 229.616 205.92 229.631 197.513 234.676C192.066 237.945 185.013 247.512 185.013 247.512L168.02 224.356Z" fill="black"/>
</g>
<g opacity="0.3">
<path d="M195.119 311.851C190.622 311.49 186.271 310.086 182.412 307.751C177.345 304.626 163.821 294.134 159.692 291.79C155.059 289.194 150.056 287.321 144.857 286.236L144.434 261.689C148.983 262.305 153.448 263.435 157.743 265.057C164.444 267.68 174.571 279.563 183.867 282.702C189.88 284.731 201.741 283.899 201.741 283.899L195.119 311.851Z" fill="black"/>
</g>
<g opacity="0.3">
<path d="M107.094 188.75C112.111 190.442 118.461 187.568 121.679 183.361C124.897 179.154 128.043 173.764 128.81 168.525C125.133 168.525 120.138 168.797 116.461 168.79L107.094 188.75Z" fill="black"/>
</g>
<path d="M124.546 194.527C124.579 194.721 124.593 194.918 124.589 195.114L124.653 196.806C124.696 198.311 124.754 200.432 124.825 203.034C124.969 208.316 125.162 215.562 125.37 223.568C125.578 231.573 125.857 238.84 126.087 244.094C126.216 246.695 126.316 248.81 126.388 250.315C126.388 251.031 126.445 251.583 126.466 252.006C126.478 252.202 126.478 252.398 126.466 252.594C126.421 252.401 126.394 252.204 126.388 252.006C126.345 251.59 126.294 251.024 126.237 250.322C126.101 248.889 125.972 246.738 125.814 244.108C125.513 238.855 125.219 231.595 124.983 223.575C124.746 215.555 124.617 208.295 124.546 203.034C124.546 200.432 124.51 198.318 124.496 196.806C124.496 196.089 124.496 195.537 124.496 195.114C124.495 194.918 124.512 194.721 124.546 194.527V194.527Z" fill="#263238"/>
<g opacity="0.3">
<path d="M125.205 238.948C118.654 224.184 119.629 207.7 124.546 192.291C125.262 207.305 125.592 223.919 125.227 238.948" fill="black"/>
</g>
<path d="M203.383 81.3383C202.552 78.6625 201.197 76.1785 199.399 74.0304C197.6 71.8823 195.393 70.1128 192.904 68.8247C187.436 66.0367 180.914 65.8002 174.93 67.1763C168.945 68.5523 163.419 71.4406 158.195 74.6658C155.263 76.4719 152.346 78.4499 150.311 81.2092C146.541 86.2261 142.907 94.4324 142.707 100.718C142.549 105.799 144.857 118.442 147.129 122.986C147.939 124.605 149.838 126.032 152.146 127.236C154.592 131.737 157.823 135.766 161.685 139.133C162.76 135.693 163.837 132.253 164.917 128.812L203.383 81.3383Z" fill="#263238"/>
<path d="M200.243 75.1674L190.209 73.6624C196.043 86.52 198.379 116.242 201.898 129.916C205.432 124.462 213.523 107.935 212.878 101.47C212.233 95.0057 212.09 73.7197 200.243 75.1674Z" fill="#263238"/>
<path d="M153.464 98.1808C153.787 90.5623 158.531 84.1836 165.863 82.0909L188.719 75.5617C198.638 74.2 205.626 86.2549 206.564 96.217C207.604 107.29 208.385 118.987 207.324 127.307C205.174 144.035 192.503 146.551 192.503 146.551C192.503 146.551 192.725 154.435 192.854 159.33L179.294 187.632L158.23 153.718L153.435 98.3886C153.392 98.102 153.45 98.5607 153.464 98.1808Z" fill="#BA7E6D"/>
<path d="M200.193 108.444C200.213 109 200.017 109.542 199.645 109.957C199.273 110.371 198.756 110.625 198.201 110.666C197.929 110.695 197.655 110.671 197.394 110.593C197.132 110.515 196.889 110.386 196.678 110.213C196.467 110.041 196.293 109.827 196.165 109.586C196.038 109.345 195.96 109.081 195.936 108.809C195.916 108.253 196.112 107.711 196.484 107.297C196.855 106.882 197.373 106.628 197.928 106.588C198.199 106.558 198.474 106.583 198.735 106.66C198.996 106.738 199.24 106.867 199.451 107.04C199.662 107.213 199.836 107.426 199.963 107.667C200.091 107.908 200.169 108.172 200.193 108.444Z" fill="#263238"/>
<path d="M204.25 102.811C203.999 103.097 202.343 101.951 200.043 102.03C197.742 102.108 196.101 103.305 195.843 103.033C195.714 102.911 195.972 102.402 196.689 101.843C197.661 101.123 198.833 100.722 200.043 100.696C201.236 100.654 202.412 100.995 203.397 101.671C204.099 102.187 204.379 102.682 204.25 102.811Z" fill="#263238"/>
<path d="M180.354 108.451C180.372 109.006 180.175 109.546 179.804 109.959C179.432 110.372 178.916 110.625 178.362 110.666C178.091 110.695 177.816 110.671 177.555 110.593C177.294 110.515 177.05 110.386 176.839 110.213C176.628 110.04 176.454 109.827 176.327 109.586C176.199 109.345 176.121 109.081 176.097 108.809C176.077 108.253 176.273 107.711 176.645 107.297C177.017 106.882 177.534 106.628 178.089 106.588C178.361 106.558 178.636 106.583 178.898 106.661C179.16 106.739 179.403 106.869 179.614 107.042C179.825 107.216 179.999 107.43 180.126 107.672C180.254 107.914 180.331 108.179 180.354 108.451Z" fill="#263238"/>
<path d="M182.433 103.434C182.175 103.721 180.52 102.574 178.226 102.653C175.933 102.732 174.277 103.929 174.019 103.656C173.897 103.535 174.148 103.026 174.865 102.467C175.838 101.748 177.01 101.347 178.219 101.32C179.414 101.279 180.591 101.617 181.58 102.288C182.304 102.811 182.555 103.305 182.433 103.434Z" fill="#263238"/>
<path d="M190.13 121.273C190.13 121.144 191.564 120.857 193.843 120.485C194.424 120.406 194.975 120.277 195.061 119.875C195.096 119.267 194.941 118.664 194.617 118.148L192.746 113.733C190.145 107.448 188.238 102.266 188.489 102.166C188.74 102.065 191.062 107.075 193.664 113.361L195.47 117.804C195.857 118.502 195.989 119.313 195.843 120.098C195.764 120.307 195.638 120.496 195.476 120.65C195.313 120.804 195.117 120.919 194.904 120.986C194.583 121.087 194.25 121.142 193.915 121.151C191.585 121.352 190.145 121.409 190.13 121.273Z" fill="#263238"/>
<path d="M170.249 141.254C170.249 141.254 175.983 152.535 192.61 150.464L192.503 146.551C184.738 146.88 177.034 145.046 170.249 141.254V141.254Z" fill="#875149"/>
<path d="M181.472 95.1778C181.265 95.8085 178.964 95.5792 176.276 95.9877C173.589 96.3962 171.439 97.1989 171.059 96.6471C170.894 96.389 171.252 95.787 172.112 95.1563C173.263 94.3803 174.575 93.8758 175.95 93.6809C177.324 93.4859 178.725 93.6057 180.046 94.0311C181.05 94.3823 181.558 94.8553 181.472 95.1778Z" fill="#263238"/>
<path d="M203.303 95.8085C202.916 96.3388 201.311 95.8515 199.412 95.8801C197.512 95.9088 195.907 96.3388 195.52 95.8085C195.348 95.5433 195.584 95.0129 196.272 94.4969C197.197 93.8658 198.292 93.5331 199.412 93.5437C200.53 93.5316 201.624 93.8672 202.544 94.5041C203.232 95.0129 203.475 95.5433 203.303 95.8085Z" fill="#263238"/>
<path d="M201.605 81.1448C200.516 78.665 197.728 77.2388 195.026 77.1814C192.324 77.1241 189.708 78.2206 187.407 79.6397C177.653 85.6528 172.951 99.6428 163.326 105.849C160.961 107.376 157.786 106.129 155.786 108.121C153.787 110.114 152.554 113.239 153.758 115.783C152.301 114.078 151.094 112.174 150.175 110.128C149.728 109.101 149.505 107.991 149.522 106.871C149.538 105.752 149.792 104.648 150.268 103.635C151.07 102.144 152.54 100.976 152.898 99.3346C153.221 97.9012 152.604 96.3818 152.626 94.8839C152.757 93.3573 153.248 91.8836 154.059 90.5837C157.7 83.6819 162.81 77.3964 169.497 73.3829C173.87 70.6895 178.895 69.2399 184.032 69.1902C189.177 69.1647 194.162 70.9797 198.086 74.3075C200.336 76.2927 202.702 78.3353 201.67 81.1448" fill="#263238"/>
<path d="M156.08 110.178C155.894 109.705 147.122 106.817 147.265 116.055C147.408 125.028 156.41 123 156.417 122.742C156.424 122.484 156.08 110.178 156.08 110.178Z" fill="#BA7E6D"/>
<path d="M153.593 119.395C153.557 119.395 153.443 119.51 153.178 119.639C152.808 119.802 152.39 119.818 152.009 119.682C151.056 119.352 150.232 117.861 150.153 116.249C150.119 115.481 150.253 114.715 150.547 114.006C150.626 113.723 150.772 113.464 150.973 113.251C151.174 113.037 151.424 112.876 151.701 112.78C151.88 112.73 152.07 112.743 152.24 112.818C152.41 112.892 152.549 113.023 152.633 113.188C152.755 113.439 152.705 113.619 152.755 113.633C152.805 113.647 152.941 113.482 152.862 113.11C152.807 112.889 152.678 112.694 152.497 112.558C152.248 112.374 151.936 112.297 151.63 112.343C151.262 112.424 150.921 112.599 150.64 112.85C150.358 113.101 150.147 113.42 150.024 113.776C149.656 114.559 149.486 115.421 149.53 116.285C149.623 118.091 150.583 119.768 151.888 120.112C152.131 120.182 152.387 120.195 152.636 120.149C152.884 120.103 153.119 119.999 153.321 119.847C153.579 119.617 153.629 119.417 153.593 119.395Z" fill="#875149"/>
<path d="M152.39 105.67C152.577 105.585 152.755 105.479 152.92 105.355C153.257 105.126 153.78 104.817 154.396 104.359C156.126 103.014 157.707 101.488 159.112 99.8076C161.172 97.2914 163.087 94.6592 164.846 91.9239C166.964 88.583 169.361 85.4278 172.013 82.4921C173.421 81.0242 174.986 79.7145 176.678 78.5861C178.267 77.5522 179.976 76.717 181.767 76.0992C184.805 75.0297 188.017 74.5434 191.235 74.6658C193.406 74.7355 195.558 75.0947 197.635 75.7337C198.352 75.9343 198.932 76.1709 199.312 76.2999C199.505 76.3802 199.704 76.445 199.907 76.4934C199.73 76.3854 199.543 76.2966 199.348 76.2282C198.808 75.9771 198.253 75.7616 197.685 75.5832C195.603 74.8779 193.431 74.4725 191.235 74.3791C187.975 74.2109 184.714 74.6758 181.631 75.748C179.806 76.3649 178.065 77.2076 176.449 78.2564C174.725 79.3995 173.131 80.7286 171.697 82.2198C169.04 85.1736 166.642 88.3508 164.53 91.7161C162.799 94.4401 160.925 97.0716 158.919 99.5998C157.544 101.282 156.008 102.826 154.332 104.208C153.73 104.688 153.228 105.018 152.898 105.262C152.718 105.384 152.548 105.52 152.39 105.67Z" fill="#455A64"/>
<path d="M152.619 121.015C152.175 120.945 151.723 121.047 151.352 121.3C150.982 121.553 150.721 121.937 150.624 122.375C150.527 122.813 150.601 123.272 150.83 123.657C151.059 124.043 151.427 124.326 151.858 124.451C152.289 124.575 152.751 124.53 153.15 124.326C153.549 124.121 153.855 123.772 154.006 123.35C154.157 122.927 154.141 122.463 153.962 122.052C153.783 121.641 153.454 121.313 153.041 121.137" fill="white"/>
<path d="M153.041 121.137C153.437 121.432 153.733 121.843 153.887 122.312C153.96 122.558 153.969 122.819 153.914 123.069C153.859 123.32 153.741 123.553 153.572 123.746C153.38 123.989 153.12 124.17 152.824 124.266C152.529 124.361 152.212 124.367 151.914 124.281C151.616 124.196 151.35 124.024 151.15 123.787C150.95 123.55 150.825 123.258 150.791 122.95C150.753 122.699 150.777 122.443 150.862 122.204C150.947 121.965 151.09 121.751 151.278 121.581C151.656 121.261 152.125 121.068 152.618 121.029C152.618 121.029 152.482 120.936 152.196 120.943C151.941 120.955 151.692 121.018 151.463 121.129C151.234 121.24 151.03 121.396 150.864 121.589C150.697 121.781 150.572 122.006 150.495 122.249C150.419 122.491 150.393 122.747 150.418 123C150.453 123.385 150.604 123.751 150.851 124.049C151.097 124.347 151.428 124.564 151.8 124.671C152.172 124.778 152.567 124.77 152.935 124.648C153.302 124.526 153.624 124.297 153.858 123.989C154.057 123.751 154.19 123.465 154.243 123.159C154.296 122.853 154.267 122.539 154.159 122.248C154.033 121.861 153.78 121.528 153.443 121.302C153.213 121.13 153.048 121.115 153.041 121.137Z" fill="#263238"/>
<path d="M154.718 108.143C154.646 110.601 154.603 113.16 155.8 115.31C156.997 117.46 159.893 118.85 161.985 117.575C163.691 116.535 164.135 114.292 164.386 112.307C165.103 106.573 165.304 100.782 166.035 95.0558L154.718 108.143Z" fill="#263238"/>
<path d="M199.275 76.9378C199.275 76.9951 198.48 76.816 197.046 76.8088C195.014 76.8297 193.006 77.2562 191.141 78.063C189.851 78.6024 188.623 79.2801 187.478 80.0841C186.168 81.0226 184.914 82.0373 183.723 83.1229C180.973 85.5897 178.531 88.3786 176.448 91.4295C175.352 93.0636 174.392 94.7335 173.338 96.2887C172.348 97.8051 171.181 99.1981 169.862 100.438C167.593 102.475 165.1 104.247 162.43 105.72C160.165 106.996 158.273 107.871 156.969 108.53L155.456 109.247C155.283 109.339 155.101 109.411 154.912 109.462C155.063 109.338 155.229 109.235 155.406 109.153L156.883 108.372C158.158 107.699 160.022 106.745 162.251 105.434C164.869 103.933 167.316 102.15 169.547 100.116C170.829 98.893 171.965 97.5243 172.929 96.0379C173.962 94.497 174.922 92.8199 176.026 91.1715C178.132 88.0851 180.614 85.2731 183.415 82.8004C184.624 81.7062 185.902 80.6912 187.242 79.7616C188.418 78.9558 189.68 78.2827 191.005 77.7548C192.917 76.9605 194.976 76.5795 197.046 76.6368C197.605 76.6514 198.161 76.7114 198.709 76.816C198.902 76.8356 199.092 76.8765 199.275 76.9378Z" fill="#455A64"/>
<path d="M154.31 102.61C154.076 102.827 153.816 103.015 153.536 103.169L151.3 104.567L150.547 105.032C150.25 105.216 149.918 105.336 149.572 105.384C149.36 105.413 149.145 105.367 148.963 105.255C148.864 105.192 148.78 105.106 148.719 105.006C148.658 104.905 148.622 104.791 148.612 104.674C148.621 104.26 148.758 103.859 149.006 103.527C149.773 102.209 150.619 100.768 151.522 99.2271L151.887 99.5497C151.026 100.217 150.056 100.731 149.021 101.069C147.99 101.409 146.909 101.567 145.824 101.535C145.547 101.539 145.272 101.5 145.007 101.42C144.853 101.379 144.709 101.305 144.585 101.204C144.462 101.102 144.361 100.976 144.29 100.833C144.234 100.682 144.216 100.52 144.239 100.361C144.261 100.202 144.323 100.051 144.419 99.9223C144.564 99.7146 144.73 99.5225 144.914 99.349C146.06 98.1679 147.048 96.8429 147.852 95.4071C148.564 94.0589 149.175 92.6599 149.68 91.2216C149.65 91.637 149.566 92.0466 149.429 92.44C149.117 93.5267 148.694 94.5786 148.168 95.5791C147.387 97.0722 146.403 98.4495 145.244 99.6715C144.921 99.994 144.598 100.388 144.735 100.646C144.871 100.904 145.365 101.055 145.838 101.04C147.909 101.09 149.934 100.424 151.572 99.1555L152.618 98.3456L151.902 99.478L149.329 103.778C149.13 104.035 149.008 104.343 148.978 104.667C148.978 104.918 149.214 105.061 149.501 105.032C150.071 104.896 150.611 104.652 151.092 104.316L153.4 103.04C153.686 102.863 153.991 102.719 154.31 102.61V102.61Z" fill="#455A64"/>
<path d="M181.509 125.759C181.66 125.073 182.047 124.461 182.602 124.029C183.157 123.597 183.845 123.373 184.547 123.394C185.061 123.448 185.553 123.626 185.981 123.913C186.41 124.2 186.762 124.588 187.006 125.043C187.24 125.502 187.38 126.004 187.418 126.518C187.456 127.033 187.392 127.549 187.228 128.039L187.185 128.254C186.722 128.784 186.106 129.157 185.422 129.323C184.738 129.488 184.019 129.438 183.365 129.178C182.722 128.893 182.191 128.403 181.855 127.785C181.52 127.166 181.398 126.454 181.509 125.759V125.759Z" fill="#875149"/>
<path d="M185.464 129.02C185.464 129.02 185.371 129.264 185.006 129.479C184.473 129.779 183.848 129.874 183.25 129.744C182.803 129.64 182.386 129.436 182.028 129.148C181.671 128.86 181.383 128.496 181.186 128.082C180.845 127.303 180.748 126.44 180.908 125.606C181.068 124.772 181.477 124.006 182.082 123.409C182.301 123.208 182.564 123.061 182.85 122.979C183.136 122.897 183.437 122.882 183.73 122.936C184.57 123.188 185.344 123.624 185.995 124.211C187.12 125.064 187.787 125.645 187.729 125.716C187.672 125.788 186.898 125.387 185.694 124.649C185.073 124.18 184.371 123.83 183.623 123.617C183.433 123.586 183.239 123.601 183.056 123.659C182.873 123.718 182.706 123.819 182.569 123.953C182.254 124.29 182.01 124.688 181.852 125.122C181.671 125.541 181.578 125.994 181.578 126.451C181.578 126.908 181.671 127.361 181.852 127.781C181.996 128.118 182.211 128.42 182.482 128.667C182.752 128.915 183.073 129.101 183.422 129.214C183.914 129.368 184.442 129.368 184.934 129.214C185.235 129.106 185.421 128.977 185.464 129.02Z" fill="#263238"/>
<path d="M240.522 112.142C244.826 113.956 248.646 116.749 251.681 120.298C255.645 125.021 265.528 139.75 268.832 143.383C272.48 147.386 276.929 150.578 281.89 152.75L274.05 177.935C269.777 175.85 265.754 173.287 262.059 170.295C256.326 165.544 250.227 150.565 242.106 144.458C236.853 140.509 224.905 137.47 224.905 137.47L240.522 112.142Z" fill="#92E3A9"/>
<g opacity="0.2">
<path d="M280.364 153.503C280.292 153.453 272.48 149.031 269.169 145.354C266.825 142.767 263.213 137.85 259.716 133.091C257.071 129.508 254.57 126.082 252.685 123.774C246.665 116.392 241.87 114.902 241.669 114.844L241.203 114.701L227.586 135.958L228.439 136.188C228.525 136.188 237.319 138.589 241.468 141.62C246.994 145.655 250.183 151.023 253.272 156.212C255.48 159.925 257.573 163.429 260.439 166.497C262.989 169.227 265.841 171.658 268.94 173.743C270.175 174.584 271.465 175.341 272.803 176.007L273.476 176.316L280.364 153.503ZM242.199 140.603C239.727 138.796 235.842 137.256 232.882 136.245C233.379 135.619 233.634 134.836 233.599 134.038C233.255 132.74 232.166 132.475 231.04 132.998L239.913 119.195L239.985 119.302C241.354 121.223 244.034 119.567 244.213 117.589C244.258 117.624 244.306 117.656 244.357 117.682C247.126 119.6 249.594 121.919 251.681 124.563C253.545 126.849 256.039 130.239 258.676 133.837C258.985 134.245 259.286 134.661 259.587 135.07C257.566 134.138 254.899 134.582 252.384 138.108C250.062 141.377 249.732 145.784 250.341 149.153C248.132 145.853 245.379 142.953 242.199 140.574V140.603ZM261.343 165.637C258.569 162.67 256.519 159.222 254.348 155.603L253.731 154.564C255.188 155.001 256.748 154.948 258.172 154.413C259.596 153.879 260.806 152.892 261.615 151.604C263.292 148.787 264.897 144.752 263.765 140.696C265.471 142.939 267.033 144.917 268.259 146.279C270.602 148.859 274.637 151.926 277.06 153.682C276.873 153.735 276.7 153.824 276.549 153.945C276.398 154.067 276.273 154.217 276.182 154.388C276.091 154.559 276.035 154.746 276.019 154.939C276.002 155.132 276.025 155.326 276.085 155.51C276.243 156.305 276.988 157.287 277.891 157.094L278.013 157.044L273.354 172.374C272.638 170.224 270.265 171.227 270.638 173.341C267.224 171.168 264.101 168.569 261.343 165.608V165.637Z" fill="white"/>
</g>
<path d="M255.243 149.59L254.419 150.901L253.373 150.249L254.175 148.966C253.252 148.338 252.546 147.44 252.154 146.393L253.624 145.318C253.92 146.149 254.444 146.879 255.136 147.425L256.361 145.462C255.401 144.422 254.376 143.175 255.423 141.491C256.204 140.244 257.68 139.678 259.465 140.502L260.282 139.198L261.328 139.85L260.525 141.133C261.256 141.657 261.837 142.364 262.21 143.183L260.776 144.301C260.495 143.677 260.079 143.124 259.558 142.681L258.311 144.68C259.278 145.72 260.289 146.952 259.25 148.608C258.49 149.834 257.028 150.364 255.243 149.59ZM257.479 147.698C257.737 147.282 257.573 146.874 257.229 146.415L256.218 148.035C256.433 148.141 256.68 148.166 256.912 148.104C257.144 148.042 257.346 147.898 257.479 147.698V147.698ZM257.444 143.734L258.49 142.065C258.261 141.957 258 141.938 257.758 142.009C257.515 142.08 257.306 142.238 257.171 142.452C256.913 142.86 257.085 143.283 257.444 143.734Z" fill="#92E3A9"/>
<path d="M168.981 213.677C172.281 210.374 176.306 207.886 180.735 206.41C186.598 204.51 203.964 200.891 208.572 199.2C213.665 197.322 218.305 194.391 222.189 190.599L242.572 207.341C239.026 210.518 235.131 213.283 230.962 215.583C224.397 219.109 208.228 219.124 199.52 224.349C193.88 227.731 186.576 237.643 186.576 237.643L168.981 213.677Z" fill="#92E3A9"/>
<g opacity="0.2">
<path d="M222.29 192.319C222.218 192.37 215.187 197.924 210.521 199.63C207.246 200.827 201.333 202.325 195.607 203.772C191.307 204.869 187.171 205.922 184.326 206.782C175.224 209.585 172.035 213.462 171.906 213.627L171.597 214L186.182 234.655L186.713 233.938C186.77 233.859 192.281 226.606 196.653 223.904C202.466 220.321 208.636 219.368 214.607 218.458C218.907 217.805 222.906 217.189 226.833 215.691C230.323 214.353 233.648 212.622 236.745 210.531C238.003 209.71 239.201 208.799 240.329 207.807L240.874 207.298L222.29 192.319ZM195.951 222.822C193.349 224.428 190.461 227.452 188.404 229.817C188.001 229.137 187.364 228.628 186.612 228.384C185.286 228.212 184.627 229.101 184.691 230.362L175.238 216.945H175.367C177.661 216.393 177.137 213.29 175.367 212.38L175.503 212.28C178.342 210.423 181.441 209.001 184.699 208.058C187.515 207.191 191.6 206.159 195.922 205.062L197.406 204.69C195.786 206.209 195.191 208.854 197.513 212.509C199.663 215.885 203.627 217.848 206.981 218.551C203.089 219.341 199.36 220.785 195.951 222.822V222.822ZM226.317 214.494C222.526 215.928 218.563 216.551 214.363 217.196L213.173 217.375C214.117 216.19 214.648 214.73 214.687 213.215C214.726 211.701 214.27 210.215 213.388 208.983C211.403 206.374 208.271 203.364 204.071 202.912C206.802 202.196 209.217 201.479 210.937 200.841C214.212 199.644 218.57 197.064 221.114 195.473C221.092 195.665 221.11 195.86 221.165 196.045C221.221 196.231 221.313 196.403 221.437 196.552C221.561 196.7 221.714 196.822 221.886 196.91C222.059 196.998 222.247 197.051 222.44 197.064C223.236 197.222 224.418 196.899 224.59 195.989C224.594 195.946 224.594 195.903 224.59 195.86L237.068 205.937C234.796 205.822 234.839 208.366 236.939 208.804C233.657 211.147 230.087 213.06 226.317 214.494V214.494Z" fill="white"/>
</g>
<path d="M209.224 214.15L210.134 215.404L209.138 216.121L208.249 214.895C207.318 215.513 206.22 215.83 205.103 215.806L204.665 214.035C205.545 214.073 206.417 213.862 207.181 213.426L205.827 211.548C204.493 212.05 202.96 212.538 201.792 210.932C200.931 209.735 200.96 208.158 202.394 206.811L201.49 205.564L202.494 204.847L203.383 206.073C204.14 205.594 205.01 205.322 205.905 205.285L206.407 207.026C205.725 207.057 205.057 207.235 204.45 207.549L205.834 209.463C207.16 208.947 208.701 208.481 209.826 210.065C210.671 211.283 210.643 212.824 209.224 214.15ZM204.63 209.907L203.476 208.309C203.29 208.481 203.174 208.716 203.149 208.968C203.124 209.22 203.192 209.472 203.34 209.678C203.619 210.101 204.099 210.094 204.63 209.936V209.907ZM208.313 211.341C208.027 210.946 207.597 210.939 207.031 211.083L208.149 212.638C208.315 212.482 208.422 212.273 208.452 212.047C208.482 211.821 208.433 211.592 208.313 211.398V211.341Z" fill="#92E3A9"/>
<path d="M170.845 7.17432L146.477 3.899L143.897 4.15701C139.482 4.75904 135.956 5.82693 130.702 11.3885C125.592 16.7996 123.442 30.6248 123.442 30.6248C123.442 30.6248 129.506 27.5071 138.844 27.715C148.183 27.9228 151.58 29.5569 151.58 29.5569C151.58 29.5569 151.644 20.2398 155.636 15.5669C160.625 9.76878 170.845 7.17432 170.845 7.17432Z" fill="#92E3A9"/>
<g opacity="0.2">
<path d="M170.845 7.17432L146.477 3.899L143.897 4.15701C139.482 4.75904 135.956 5.82693 130.702 11.3885C125.592 16.7996 123.442 30.6248 123.442 30.6248C123.442 30.6248 129.506 27.5071 138.844 27.715C148.183 27.9228 151.58 29.5569 151.58 29.5569C151.58 29.5569 151.644 20.2398 155.636 15.5669C160.625 9.76878 170.845 7.17432 170.845 7.17432Z" fill="black"/>
</g>
<path d="M143.897 4.15708C143.897 4.15708 149.63 3.34721 158.704 11.1449C164.509 16.1188 174.471 31.3774 174.471 31.3774C176.542 28.5384 179.165 26.147 182.183 24.3465C190.274 19.5518 194.911 18.3406 194.911 18.3406C194.911 18.3406 189.766 10.6074 182.032 7.56141C163.369 0.172229 143.897 4.15708 143.897 4.15708Z" fill="#92E3A9"/>
<g opacity="0.2">
<path d="M151.465 3.22525C152.734 3.89895 160.223 6.55074 165.405 6.09205C170.587 5.63336 171.855 4.79482 169.763 4.25013C166.855 3.49281 163.866 3.08854 160.861 3.04607C157.728 2.91502 154.591 2.97485 151.465 3.22525V3.22525Z" fill="white"/>
</g>
<g opacity="0.2">
<path d="M192.202 16.6991C188.748 13.0608 184.79 9.93758 180.448 7.42504C179.531 6.92335 178.556 6.44316 177.581 5.99164C174.248 4.97962 170.841 4.23193 167.39 3.75553C170.658 4.47223 174.894 4.81625 180.341 8.55742C183.07 10.4567 185.67 12.5349 188.124 14.7784C187.271 15.2729 187.257 16.9786 187.866 17.6452C185.624 18.5089 183.475 19.5967 181.452 20.8918C179.591 22.1214 177.799 23.4517 176.084 24.8767C176.234 24.5572 176.293 24.2027 176.256 23.8518C176.055 22.7194 174.457 21.9812 173.389 22.2966C173.174 22.3337 172.974 22.4297 172.811 22.574C172.647 22.7183 172.527 22.9051 172.464 23.1136C169.397 18.6486 164.301 11.5461 161.362 9.08061C158.397 6.67415 155.1 4.70917 151.572 3.24667H151.494C150.232 3.32551 149.236 3.46168 148.247 3.56919C152.674 5.04129 156.801 7.29647 160.431 10.2273C164.58 13.7105 173.704 27.5786 173.797 27.722L174.27 28.4387L174.901 27.8653C177.233 25.7943 179.699 23.879 182.283 22.1317C185.24 20.2356 188.476 18.8136 191.872 17.9175L193.112 17.638L192.202 16.6991Z" fill="white"/>
</g>
<path d="M82.0672 180.221L104.12 183.984L106.435 183.826C110.463 183.425 113.695 182.572 118.619 177.691C123.435 172.94 125.829 160.491 125.829 160.491C125.829 160.491 120.224 163.128 111.753 162.641C103.282 162.153 100.25 160.555 100.25 160.555C100.25 160.555 99.8915 169.034 96.1145 173.126C91.4345 178.193 82.0672 180.221 82.0672 180.221Z" fill="#92E3A9"/>
<g opacity="0.2">
<path d="M82.0672 180.221L104.12 183.984L106.435 183.826C110.463 183.425 113.695 182.572 118.619 177.691C123.435 172.94 125.829 160.491 125.829 160.491C125.829 160.491 120.224 163.128 111.753 162.641C103.282 162.153 100.25 160.555 100.25 160.555C100.25 160.555 99.8915 169.034 96.1145 173.126C91.4345 178.193 82.0672 180.221 82.0672 180.221Z" fill="black"/>
</g>
<path d="M106.435 183.826C106.435 183.826 101.218 184.378 93.212 177.011C88.1019 172.309 79.5947 158.126 79.5947 158.126C77.6251 160.639 75.1677 162.728 72.3704 164.268C64.8737 168.36 60.6165 169.285 60.6165 169.285C60.6165 169.285 65.0099 176.452 71.9332 179.49C88.6251 186.822 106.435 183.826 106.435 183.826Z" fill="#92E3A9"/>
<g opacity="0.2">
<path d="M99.5327 184.436C98.4003 183.776 91.692 181.132 86.969 181.404C82.2459 181.676 81.0992 182.371 82.9554 182.938C85.5714 183.717 88.2709 184.181 90.9968 184.321C93.8372 184.53 96.6877 184.569 99.5327 184.436V184.436Z" fill="white"/>
</g>
<g opacity="0.2">
<path d="M62.9814 170.89C66.0003 174.299 69.4899 177.26 73.3449 179.684C74.162 180.171 75.0292 180.637 75.9251 181.074C78.9174 182.106 81.9875 182.897 85.106 183.439C82.1603 182.658 78.326 182.228 73.4954 178.659C71.0825 176.842 68.7891 174.872 66.6294 172.761C67.4178 172.338 67.4895 170.79 66.9591 170.166C69.0235 169.456 71.0095 168.536 72.8862 167.421C74.6214 166.369 76.2963 165.22 77.9031 163.981C77.7565 164.266 77.6919 164.586 77.7168 164.906C77.8601 165.938 79.2864 166.662 80.2826 166.411C80.4797 166.382 80.6652 166.3 80.8193 166.174C80.9733 166.047 81.0901 165.882 81.157 165.694C83.7944 169.844 88.1878 176.444 90.7822 178.795C93.389 181.075 96.3124 182.966 99.4615 184.407H99.526C100.68 184.371 101.59 184.278 102.486 184.214C98.5158 182.731 94.845 180.547 91.6495 177.763C87.9943 174.474 80.1822 161.58 80.0819 161.451L79.6734 160.785L79.0785 161.286C76.8992 163.088 74.6005 164.74 72.1982 166.232C69.4529 167.861 66.4684 169.048 63.3541 169.75L62.2217 169.966L62.9814 170.89Z" fill="white"/>
</g>
<path d="M240.064 50.2407C240.064 50.2407 245.217 46.048 251.775 39.7912C259.773 32.1655 276.358 16.9714 290.477 22.7194L306.667 42.0703C306.667 42.0703 298.783 40.429 288.176 44.3494C278.78 47.8254 272.187 54.7344 269.212 57.9093C268.015 59.1922 266.446 60.9123 265.184 62.1235C263.034 64.159 260.633 66.9828 256.828 70.0503L240.064 50.2407Z" fill="#92E3A9"/>
<g opacity="0.2">
<path d="M278.543 36.1434C280.414 40.5798 278.149 45.7615 273.483 47.7325C268.818 49.7034 263.521 47.7325 261.65 43.2746C259.78 38.8167 262.052 33.6565 266.718 31.6927C271.383 29.729 276.68 31.7142 278.543 36.1434Z" fill="white"/>
</g>
<path d="M274.085 42.0705L275.053 43.0165L274.336 43.7905L273.362 42.8588C272.652 43.5295 271.754 43.9671 270.789 44.1131L270.144 42.6797C270.907 42.5824 271.627 42.2719 272.222 41.7838L270.789 40.3504C269.714 40.9811 268.459 41.6261 267.205 40.4149C266.281 39.519 266.073 38.1573 267.105 36.7812L266.144 35.8423L266.897 35.0683L267.843 35.9928C268.428 35.4674 269.139 35.102 269.907 34.9321L270.624 36.3655C270.045 36.4901 269.498 36.7342 269.018 37.0822L270.495 38.5156C271.563 37.8778 272.803 37.2471 274.028 38.444C274.903 39.347 275.11 40.7087 274.085 42.0705ZM269.499 39.1033L268.266 37.8993C268.13 38.0738 268.063 38.2921 268.078 38.5127C268.092 38.7333 268.187 38.9409 268.345 39.0962C268.653 39.3972 269.04 39.3255 269.499 39.1033ZM272.889 39.82C272.58 39.519 272.172 39.5835 271.742 39.82L272.939 40.9882C273.083 40.8244 273.16 40.6118 273.153 40.3935C273.146 40.1752 273.057 39.9676 272.903 39.8129L272.889 39.82Z" fill="#92E3A9"/>
<g opacity="0.2">
<path d="M289.272 22.8772L289.107 22.827C288.692 22.6909 278.866 19.7452 264.99 30.3452C259.806 34.3143 254.952 38.6982 250.477 43.4537C247.61 46.4065 245.553 48.5351 243.059 49.8538L242.4 50.1978L257.135 68.5023L257.616 67.972C257.759 67.8215 271.498 52.6991 278.106 48.0334C283.345 44.3352 293.508 38.4153 302.632 40.3217L304.438 40.7087L289.272 22.8772ZM277.425 47.0372C272.652 50.3985 264.525 58.8197 259.988 63.6359C259.289 62.9514 258.355 62.5598 257.377 62.5411C256.4 62.5225 255.452 62.8782 254.727 63.5356L246.65 53.5018C247.047 53.2169 247.373 52.8456 247.605 52.4161C247.838 51.9865 247.969 51.5099 247.99 51.022C248.013 50.0791 247.748 49.1517 247.231 48.3631C248.513 47.2307 249.825 45.8833 251.359 44.2994C255.787 39.5863 260.596 35.2452 265.736 31.3199C272.709 25.9949 278.593 24.2891 282.299 23.7946C283.265 23.6616 284.24 23.5945 285.216 23.5939C285.733 24.5925 286.542 25.4095 287.536 25.9359C288.53 26.4622 289.661 26.6728 290.777 26.5395L299.22 36.473C298.632 36.6593 297.937 37.1897 298.131 38.745C290.01 39.0675 281.94 43.8479 277.425 47.0372Z" fill="white"/>
</g>
<path d="M34.6214 235.386C34.6214 235.386 39.7674 239.585 47.221 244.739C56.316 251.031 74.5488 264.197 71.7895 279.212L56.1224 298.978C56.1224 298.978 56.1224 290.894 50.1523 281.333C44.8201 272.812 36.7214 267.716 33.0232 265.48C31.5253 264.57 29.5257 263.38 28.078 262.391C25.6627 260.735 22.4017 258.915 18.6319 255.812L34.6214 235.386Z" fill="#92E3A9"/>
<g opacity="0.2">
<path d="M56.2066 270.236C60.1676 267.509 61.0512 261.917 58.1801 257.748C55.309 253.578 49.7704 252.409 45.8094 255.136C41.8483 257.864 40.9648 263.455 43.8359 267.625C46.707 271.794 52.2455 272.964 56.2066 270.236Z" fill="white"/>
</g>
<path d="M49.4288 266.999L48.7121 268.146L47.8019 267.566L48.5186 266.448C47.7205 265.888 47.1127 265.098 46.777 264.183L48.0742 263.258C48.3282 263.986 48.7799 264.629 49.3786 265.114L50.468 263.402C49.6295 262.484 48.7479 261.38 49.6796 259.926C50.3963 258.836 51.6649 258.356 53.2273 259.094L53.944 257.962L54.8542 258.542L54.1375 259.653C54.7633 260.121 55.2572 260.744 55.5709 261.459L54.3095 262.427C54.0665 261.878 53.707 261.389 53.256 260.993L52.1594 262.742C52.998 263.652 53.8723 264.742 52.9478 266.182C52.2598 267.243 50.984 267.723 49.4288 266.999ZM51.3997 265.365C51.6291 265.007 51.4857 264.649 51.1919 264.24L50.2888 265.673C50.4796 265.767 50.6981 265.788 50.9029 265.731C51.1077 265.674 51.2845 265.544 51.3997 265.365V265.365ZM51.3997 261.904L52.3243 260.47C52.1244 260.377 51.8978 260.36 51.6859 260.42C51.4741 260.481 51.2911 260.616 51.1704 260.8C50.9482 261.137 51.0987 261.502 51.4427 261.904H51.3997Z" fill="#92E3A9"/>
<g opacity="0.2">
<path d="M71.3811 278.037V277.858C71.4312 277.428 72.3271 267.208 59.1327 255.769C54.1983 251.495 48.9252 247.629 43.3653 244.209C39.8964 242.008 37.3951 240.417 35.6034 238.239L35.1232 237.665L20.1943 255.834L20.8107 256.192C20.9899 256.299 38.5849 266.692 44.4618 272.217C49.1419 276.603 56.9969 285.354 56.9826 294.679V296.463L71.3811 278.037ZM45.3218 271.321C41.0646 267.337 31.1742 261.065 25.5337 257.611C26.062 256.789 26.2567 255.797 26.0782 254.837C25.8997 253.876 25.3615 253.02 24.5734 252.444L32.7509 242.496C33.1102 242.827 33.5403 243.072 34.0084 243.212C34.4766 243.353 34.9706 243.385 35.4529 243.306C36.381 243.142 37.2352 242.694 37.8968 242.023C39.2657 243.055 40.8568 244.065 42.7202 245.248C48.2322 248.638 53.4576 252.473 58.3443 256.715C64.9738 262.449 67.8406 267.881 69.0948 271.415C69.4197 272.334 69.6808 273.275 69.876 274.231C69.0049 274.94 68.3702 275.897 68.0565 276.975C67.7429 278.053 67.765 279.201 68.1201 280.266L60.0787 290.529C59.7849 289.991 59.1112 289.418 57.6347 289.92C55.671 282.036 49.364 275.106 45.3218 271.321Z" fill="white"/>
</g>
<path d="M0.556686 116.715C0.556686 116.715 12.0239 103.334 34.4279 111.949C35.2795 112.272 36.1604 112.512 37.0582 112.665C39.6148 113.172 42.2605 112.984 44.7198 112.121C49.0916 110.365 55.3054 107.82 55.3054 107.82L74.5345 119.202C74.5345 119.202 66.4716 125.079 58.6667 125.573C50.8619 126.068 41.6379 119.66 32.6864 121.846C28.1345 122.832 24.0019 125.209 20.8608 128.648L0.556686 116.715Z" fill="#92E3A9"/>
<g opacity="0.2">
<path d="M46.9129 119.66C46.0456 120.434 40.8424 119.725 35.2808 118.076C29.7192 116.428 25.9135 114.493 26.7808 113.683C27.648 112.873 32.8512 113.619 38.4128 115.274C43.9744 116.93 47.7729 118.886 46.9129 119.66Z" fill="white"/>
</g>
<path d="M39.158 118.162L39.5092 118.535L38.3409 118.277L37.9969 117.912C36.9279 117.667 35.8729 117.366 34.8363 117.008L35.0943 116.743C35.811 116.994 36.7212 117.267 37.5812 117.46L37.0581 116.908C35.6748 116.528 34.1052 116.091 33.6537 115.611C33.324 115.26 33.9332 115.152 35.725 115.496L35.3738 115.131L36.542 115.382L36.886 115.747C37.7819 115.962 38.6993 116.213 39.4518 116.464L39.2512 116.75C38.5703 116.521 37.9038 116.328 37.3017 116.184L37.8393 116.75C39.2153 117.123 40.7634 117.56 41.2077 118.026C41.5374 118.399 40.9354 118.499 39.158 118.162ZM36.5922 116.428L36.1407 115.955C35.5601 115.862 35.424 115.905 35.51 116.012C35.845 116.21 36.2108 116.351 36.5922 116.428V116.428ZM39.3658 117.675C39.0384 117.477 38.6797 117.337 38.3051 117.259L38.7423 117.718C39.2583 117.811 39.4662 117.783 39.3658 117.675V117.675Z" fill="#92E3A9"/>
<g opacity="0.2">
<path d="M55.0257 109.204L54.8107 109.304C51.2033 111.071 47.4447 112.51 43.58 113.604C40.8924 114.321 39.6382 114.07 37.3519 113.669L35.9185 113.425C34.5781 113.149 33.2586 112.78 31.9695 112.321C29.1027 111.39 25.4547 110.229 21.8425 110.114H21.7493C21.649 110.114 11.7155 109.254 3.62397 115.754L3.14378 116.141L20.4163 126.598L20.6528 126.376C20.7459 126.29 30.0129 117.919 42.5408 121.072C44.0244 121.445 45.4076 121.789 46.6976 122.154C56.8461 124.835 61.9347 126.182 72.1405 120.055L72.7569 119.682L55.0257 109.204ZM46.9127 121.309C45.6154 120.965 44.2322 120.592 42.7486 120.227C34.2271 118.076 27.1676 121.087 23.2902 123.43C20.4234 121.925 18.4382 123.28 17.7071 123.939L7.60166 117.826C9.55108 116.127 8.41153 114.658 7.75217 114.049C12.0464 111.81 16.8537 110.74 21.692 110.945C25.2396 111.046 28.8232 112.192 31.7258 113.095C33.0576 113.566 34.4202 113.944 35.8038 114.228L37.2372 114.471C39.5593 114.88 40.9641 115.116 43.8237 114.393C46.7246 113.603 49.5613 112.594 52.3094 111.375C53.0261 111.999 54.9397 113.181 57.7707 111.769L68.0768 117.861C67.3028 118.227 66.1489 119.18 67.9908 121.259C60.3866 124.871 55.5059 123.581 46.9127 121.309Z" fill="white"/>
</g>
<path d="M262.869 297.287C262.869 297.287 261.515 279.75 283.503 270.053C284.342 269.686 285.143 269.24 285.897 268.72C288.055 267.274 289.788 265.277 290.914 262.936C292.77 258.636 295.371 252.4 295.371 252.4L317.023 246.896C317.023 246.896 315.461 256.751 310.279 262.606C305.097 268.462 294.038 270.433 289.236 278.302C286.708 282.211 285.455 286.809 285.653 291.461L262.869 297.287Z" fill="#92E3A9"/>
<g opacity="0.2">
<path d="M297.801 266.706C297.737 267.867 293.544 271.006 288.441 273.787C283.338 276.567 279.253 277.836 279.317 276.653C279.382 275.471 283.575 272.353 288.677 269.572C293.78 266.792 297.866 265.545 297.801 266.706Z" fill="white"/>
</g>
<path d="M291.243 271.113H291.759L290.749 271.758H290.247C289.321 272.338 288.364 272.867 287.38 273.342V272.977C288.164 272.604 288.927 272.19 289.666 271.737H288.892C287.653 272.454 286.233 273.235 285.574 273.22C285.087 273.22 285.445 272.697 286.957 271.679H286.448L287.459 271.034H287.961C288.742 270.554 289.573 270.088 290.29 269.744L290.347 270.081C289.702 270.404 289.1 270.733 288.563 271.056H289.344C290.584 270.339 291.989 269.565 292.634 269.623C293.099 269.601 292.741 270.103 291.243 271.113ZM288.204 271.694H287.552C287.072 272.031 286.993 272.174 287.151 272.174C287.527 272.075 287.883 271.913 288.204 271.694V271.694ZM291.071 270.626C290.7 270.717 290.346 270.869 290.025 271.077H290.663C291.093 270.769 291.2 270.626 291.05 270.626H291.071Z" fill="#92E3A9"/>
<g opacity="0.2">
<path d="M296.188 253.568L296.117 253.791C294.799 257.587 293.146 261.259 291.179 264.763C289.745 267.136 288.713 267.874 286.814 269.207C286.441 269.465 286.04 269.744 285.603 270.06C284.455 270.809 283.258 271.48 282.019 272.066C279.303 273.457 275.92 275.177 273.283 277.65L273.218 277.714C273.139 277.779 265.492 284.164 264.352 294.499L264.281 295.116L283.904 290.335V290.013C283.904 289.884 284.571 277.413 295.665 270.805C296.984 270.024 298.217 269.314 299.37 268.655C308.458 263.402 312.988 260.771 315.919 249.218L316.098 248.501L296.188 253.568ZM298.962 267.902C297.801 268.576 296.561 269.286 295.249 270.053C287.703 274.546 284.814 281.649 283.718 286.049C282.736 286.283 281.857 286.828 281.211 287.603C280.565 288.379 280.187 289.342 280.134 290.35L268.667 293.137C268.846 290.557 267.004 290.321 266.108 290.357C267.575 285.742 270.232 281.597 273.813 278.338C276.393 275.908 279.74 274.188 282.413 272.819C283.689 272.21 284.922 271.516 286.104 270.741C286.534 270.425 286.936 270.146 287.301 269.888C289.236 268.533 290.397 267.738 291.917 265.186C293.427 262.58 294.738 259.863 295.837 257.059C296.79 256.987 298.976 256.485 299.98 253.475L311.583 250.53C311.296 251.325 311.146 252.816 313.912 252.995C311.024 260.886 306.652 263.423 298.962 267.902Z" fill="white"/>
</g>
<path d="M294.955 123.71C294.955 123.71 290.082 106.803 309.641 92.8269C310.391 92.3029 311.087 91.705 311.719 91.0424C313.551 89.1918 314.851 86.8819 315.482 84.3555C316.428 79.74 317.718 73.1392 317.718 73.1392L337.785 63.3634C337.785 63.3634 338.244 73.3255 334.36 80.1127C330.475 86.8998 320.026 91.0639 316.929 99.7431C315.246 104.086 314.953 108.844 316.091 113.36L294.955 123.71Z" fill="#92E3A9"/>
<g opacity="0.2">
<path d="M322.957 86.6635C323.129 87.8102 319.667 91.7664 315.223 95.4933C310.78 99.2201 307.046 101.313 306.874 100.166C306.702 99.0194 310.171 95.0633 314.607 91.3364C319.043 87.6096 322.785 85.5096 322.957 86.6635Z" fill="white"/>
</g>
<path d="M317.431 92.3112L317.94 92.218L317.08 93.0566L316.585 93.1426C315.794 93.9073 314.959 94.6252 314.084 95.2927L314.005 94.9343C314.695 94.4119 315.358 93.8545 315.99 93.2644L315.238 93.3934C314.163 94.3395 312.93 95.4073 312.285 95.5435C311.805 95.6223 312.056 95.0562 313.331 93.7518L312.823 93.8449L313.683 93.0064L314.177 92.9204C314.851 92.2897 315.568 91.6662 316.198 91.1788L316.32 91.5013C315.754 91.9457 315.231 92.3972 314.772 92.8129L315.546 92.6767C316.614 91.7307 317.832 90.6843 318.47 90.5768C318.936 90.4478 318.692 91.0068 317.431 92.3112ZM314.564 93.5009L313.919 93.6084C313.525 94.0456 313.475 94.1961 313.625 94.1674C313.976 93.9978 314.296 93.77 314.571 93.4937L314.564 93.5009ZM317.13 91.874C316.784 92.0358 316.469 92.2565 316.198 92.5262L316.829 92.4187C317.216 92.003 317.28 91.8382 317.137 91.8668L317.13 91.874Z" fill="#92E3A9"/>
<g opacity="0.2">
<path d="M318.714 74.107V74.3363C318.192 78.3188 317.319 82.2473 316.105 86.0759C315.195 88.6918 314.321 89.6235 312.73 91.3078C312.414 91.6446 312.077 92.0245 311.712 92.3971C310.745 93.3629 309.713 94.2609 308.623 95.0848C306.236 96.9984 303.276 99.385 301.198 102.323L301.141 102.395C301.083 102.474 294.891 110.315 295.859 120.628L295.916 121.244L314.163 112.594L314.113 112.271C314.113 112.149 312.214 99.8007 321.746 91.0856C322.871 90.0535 323.939 89.1075 324.935 88.2188C332.769 81.231 336.696 77.7263 337.205 65.8362V65.1195L318.714 74.107ZM324.333 87.5666C323.33 88.4625 322.262 89.4157 321.137 90.4334C314.65 96.3605 313.253 103.907 313.081 108.43C312.163 108.855 311.408 109.568 310.931 110.46C310.454 111.352 310.28 112.375 310.436 113.375L299.765 118.435C299.421 115.876 297.564 116.012 296.697 116.227C297.196 111.411 298.959 106.812 301.807 102.897C303.843 100.03 306.774 97.6362 309.132 95.7298C310.262 94.8795 311.33 93.9502 312.328 92.949C312.687 92.5548 313.045 92.2323 313.325 91.874C314.944 90.161 315.919 89.1218 316.908 86.3339C317.842 83.477 318.561 80.5543 319.058 77.5901C319.983 77.3249 322.018 76.3932 322.391 73.2469L333.141 68.0078C333.027 68.8535 333.184 70.3371 335.929 69.9573C334.732 78.2853 330.955 81.6538 324.333 87.5666Z" fill="white"/>
</g>
<path d="M87.1912 66.3592C82.5349 65.9866 78.0295 64.5339 74.0326 62.1163C68.7935 58.8769 54.782 47.9973 50.5105 45.5821C45.7103 42.8997 40.5285 40.9662 35.1444 39.8485L34.7073 14.4271C39.4177 15.0696 44.0409 16.2404 48.4894 17.9174C55.4271 20.6337 65.9196 32.9681 75.5377 36.1861C81.773 38.2932 94.05 37.426 94.05 37.426L87.1912 66.3592Z" fill="#92E3A9"/>
<g opacity="0.2">
<path d="M36.3919 38.8164L36.8505 38.9526C36.9365 38.9526 45.2861 41.3678 49.6006 43.819C52.6394 45.539 57.6133 49.0724 62.4224 52.491C66.0704 55.0855 69.5177 57.5079 72.0262 59.1348C80.0604 64.2521 85.0773 64.1517 85.2923 64.1517H85.7725L92.0723 39.6764L91.1908 39.7266C91.0976 39.7266 81.9955 40.2355 77.1076 38.6587C70.6 36.566 65.8841 32.4736 61.3402 28.5102C58.0792 25.6865 55.0046 23.0132 51.3064 20.9992C48.0119 19.2026 44.5228 17.7887 40.9071 16.785C39.4715 16.3702 38.0081 16.0588 36.528 15.8533L35.8113 15.7673L36.3919 38.8164ZM76.7134 39.8914C79.616 40.8232 83.7944 41.0668 86.9264 41.1027C86.6657 41.853 86.6836 42.6721 86.9766 43.4104C87.6933 44.5285 88.8256 44.4425 89.7287 43.5896L85.6435 59.486L85.5432 59.4C83.6367 58.0096 81.6085 60.4249 82.06 62.3528L81.8951 62.3098C78.6397 61.3423 75.5475 59.8929 72.7214 58.0096C70.2344 56.4257 66.8014 53.9889 63.1678 51.4016L61.9207 50.5129C64.1282 50.7638 66.5291 49.5024 67.8048 45.367C68.9874 41.5399 67.9123 37.254 66.2782 34.2439C69.4014 36.6993 72.9175 38.6088 76.6776 39.8914H76.7134ZM50.6399 22.1316C54.2234 24.081 57.2335 26.7042 60.4371 29.4921C60.7453 29.7501 61.0463 30.0153 61.3474 30.2805C59.8332 30.3293 58.3764 30.8708 57.198 31.8228C56.0196 32.7748 55.1841 34.0853 54.8182 35.5554C54.1015 38.7519 53.8578 43.0951 56.2516 46.5854C53.9008 45.0087 51.8009 43.5753 50.2027 42.6937C47.171 40.9737 42.3763 39.3252 39.5238 38.3935C39.832 38.1755 40.0417 37.8448 40.1074 37.4731C40.1732 37.1014 40.0897 36.7188 39.875 36.4083C39.4737 35.6916 38.4416 34.9749 37.6676 35.4694L37.5672 35.5482L37.1731 19.5372C38.5563 21.3361 40.4699 19.659 39.4522 17.7669C43.352 18.7395 47.1117 20.2063 50.6399 22.1316V22.1316Z" fill="white"/>
</g>
<path d="M61.476 35.4339L61.8415 33.9217L63.0455 34.2155L62.6872 35.6489C63.7585 35.958 64.7091 36.5884 65.4107 37.455L64.3428 38.9744C63.8014 38.2802 63.0764 37.7514 62.25 37.4478L61.6981 39.6983C62.9452 40.415 64.3069 41.2463 63.8482 43.1743C63.4971 44.6077 62.2715 45.6039 60.3149 45.3817L59.9566 46.8796L58.7525 46.5858L59.1109 45.1524C58.2533 44.8775 57.4825 44.3834 56.8748 43.719L57.8925 42.1924C58.3602 42.6902 58.9298 43.0813 59.5624 43.3391L60.1214 41.0457C58.8743 40.372 57.527 39.5191 57.9713 37.6198C58.3082 36.2151 59.5122 35.2261 61.476 35.4339ZM59.9494 37.928C59.8347 38.401 60.1214 38.7379 60.5873 39.0676L61.0388 37.2113C60.7987 37.173 60.553 37.225 60.3491 37.3574C60.1452 37.4898 59.9977 37.6931 59.9351 37.928H59.9494ZM61.2251 41.6764L60.7593 43.5756C61.0108 43.6058 61.2647 43.5431 61.4732 43.3992C61.6818 43.2554 61.8306 43.0403 61.8917 42.7944C61.9848 42.3429 61.691 41.9989 61.2108 41.6764H61.2251Z" fill="#92E3A9"/>
<path d="M195.22 302.476C190.565 302.104 186.061 300.648 182.068 298.226C176.822 294.994 162.811 284.114 158.539 281.699C153.741 279.017 148.562 277.084 143.18 275.966L142.736 250.544C147.447 251.182 152.071 252.353 156.518 254.035C163.456 256.751 173.948 269.049 183.574 272.303C189.802 274.403 202.079 273.543 202.079 273.543L195.22 302.476Z" fill="#92E3A9"/>
<g opacity="0.2">
<path d="M144.385 274.934L144.843 275.063C144.929 275.063 153.286 277.485 157.6 279.936C160.632 281.656 165.606 285.19 170.415 288.608C174.063 291.203 177.51 293.625 180.026 295.252C188.053 300.369 193.077 300.269 193.285 300.269H193.772L200.065 275.786L199.183 275.837C199.09 275.837 189.995 276.345 185.1 274.769C178.593 272.676 173.877 268.584 169.333 264.62C166.072 261.796 162.99 259.123 159.299 257.109C156.009 255.315 152.525 253.903 148.914 252.902C147.479 252.487 146.015 252.176 144.535 251.97L143.818 251.884L144.385 274.934ZM184.706 276.009C187.616 276.94 191.787 277.184 194.926 277.22C194.666 277.97 194.683 278.789 194.976 279.528C195.693 280.646 196.825 280.56 197.729 279.707L193.636 295.603L193.536 295.517C191.637 294.127 189.608 296.542 190.06 298.47L189.895 298.427C186.641 297.473 183.548 296.036 180.721 294.163C178.234 292.579 174.801 290.142 171.168 287.555L169.913 286.666C172.128 286.917 174.522 285.655 175.798 281.52C176.98 277.693 175.912 273.407 174.271 270.397C177.408 272.843 180.936 274.741 184.706 276.009V276.009ZM158.668 258.249C162.252 260.191 165.262 262.821 168.473 265.602C168.774 265.867 169.075 266.132 169.383 266.39C167.868 266.442 166.41 266.985 165.231 267.938C164.052 268.891 163.215 270.202 162.847 271.673C162.13 274.869 161.886 279.212 164.28 282.695C161.958 281.097 159.851 279.714 158.26 278.811C155.221 277.091 150.434 275.442 147.574 274.511C147.735 274.403 147.873 274.264 147.979 274.101C148.085 273.939 148.157 273.757 148.19 273.566C148.224 273.375 148.218 273.179 148.174 272.991C148.129 272.802 148.047 272.624 147.932 272.468C147.531 271.751 146.499 271.035 145.718 271.536L145.617 271.615L145.23 255.597C146.613 257.403 148.52 255.726 147.502 253.834C151.398 254.822 155.151 256.305 158.668 258.249V258.249Z" fill="white"/>
</g>
<path d="M169.49 271.544L169.863 270.038L171.06 270.332L170.701 271.802C171.776 272.107 172.73 272.738 173.432 273.608L172.371 275.07C171.829 274.373 171.101 273.844 170.271 273.543L169.698 275.786C170.945 276.503 172.314 277.334 171.848 279.262C171.504 280.696 170.278 281.692 168.322 281.47L167.956 282.968L166.759 282.674L167.118 281.24C166.257 280.968 165.483 280.474 164.875 279.807L165.885 278.302C166.35 278.8 166.918 279.191 167.548 279.449L168.107 277.155C166.86 276.482 165.52 275.629 165.957 273.729C166.337 272.332 167.548 271.343 169.49 271.544ZM167.964 274.045C167.849 274.518 168.136 274.855 168.601 275.184L169.06 273.328C168.821 273.293 168.578 273.347 168.376 273.479C168.174 273.611 168.027 273.812 167.964 274.045V274.045ZM169.239 277.793L168.773 279.707C169.025 279.735 169.278 279.672 169.486 279.528C169.694 279.385 169.843 279.171 169.906 278.926C170.02 278.453 169.698 278.109 169.239 277.793Z" fill="#92E3A9"/>
<path d="M143.632 94.7908C139.052 94.9055 130.638 94.7263 122.682 91.0783C112.828 86.5559 108.563 80.0698 108.563 80.0698L106.413 104.215C112.147 117.732 134.931 118.664 145.552 118.915C142.743 107.218 142.012 101.721 143.632 94.7908Z" fill="#92E3A9"/>
<g opacity="0.2">
<path d="M140.023 109.846C141.763 105.562 139.516 100.605 135.005 98.773C130.494 96.9413 125.427 98.9289 123.688 103.212C121.948 107.496 124.195 112.453 128.706 114.285C133.217 116.117 138.284 114.129 140.023 109.846Z" fill="white"/>
</g>
<path d="M130.745 102.238V100.933H131.784V102.209C132.723 102.234 133.631 102.547 134.386 103.105L133.834 104.538C133.249 104.082 132.545 103.803 131.806 103.735V105.678C132.96 105.979 134.257 106.394 134.278 108.064C134.278 109.297 133.504 110.365 131.87 110.601V111.892H130.831V110.623C130.064 110.576 129.323 110.329 128.681 109.906L129.183 108.473C129.667 108.779 130.213 108.977 130.781 109.053V107.075C129.627 106.789 128.351 106.359 128.33 104.725C128.344 103.542 129.118 102.481 130.745 102.238ZM130.028 104.596C130.028 105.004 130.337 105.219 130.788 105.391V103.778C130.279 103.915 130.028 104.223 130.028 104.596ZM131.856 107.362V109.01C132.066 108.982 132.258 108.879 132.396 108.719C132.535 108.559 132.61 108.355 132.608 108.143C132.63 107.756 132.315 107.534 131.856 107.362Z" fill="#92E3A9"/>
<g opacity="0.2">
<path d="M144.922 116.184C139.617 116.362 134.307 116.048 129.061 115.246C120.697 114.128 115.537 111.289 112.677 109.103C111.932 108.537 111.226 107.922 110.563 107.262C110.889 106.232 110.894 105.128 110.576 104.096C110.259 103.064 109.634 102.153 108.785 101.485L109.789 88.9929C110.312 89.2652 111.151 89.3727 112.075 88.183C117.809 93.4794 126.545 95.7155 131.784 96.6114C135.547 97.1199 139.341 97.3595 143.137 97.3281L143.359 96.0596C139.576 96.1076 135.795 95.8921 132.042 95.4145C125.965 94.3681 115.035 91.4942 110.126 84.0047L109.18 82.5713L107.381 104.961L107.46 105.111C107.646 105.484 112.326 114.163 128.961 116.385C134.307 117.202 139.717 117.528 145.122 117.36L144.922 116.184Z" fill="white"/>
</g>
</svg>
